<?xml version="1.0" standalone="no"?>
<!DOCTYPE svg PUBLIC "-//W3C//DTD SVG 20010904//EN"
 "http://www.w3.org/TR/2001/REC-SVG-20010904/DTD/svg10.dtd">
<svg version="1.0" xmlns="http://www.w3.org/2000/svg"
 width="1789.000000pt" height="1368.000000pt" viewBox="0 0 1789.000000 1368.000000"
 preserveAspectRatio="xMidYMid meet">

<g transform="translate(0.000000,1368.000000) scale(0.100000,-0.100000)"
fill="#000000" stroke="none">
<path d="M8596 6553 c-54 -67 -118 -193 -137 -273 -8 -30 -13 -102 -13 -160 1
-121 30 -223 90 -322 75 -123 199 -227 325 -273 l64 -23 -4 -128 -4 -128 -33
-32 c-42 -39 -45 -79 -9 -122 19 -23 25 -41 25 -79 0 -49 -1 -50 -38 -61 -145
-44 -215 -212 -146 -351 24 -47 79 -101 117 -114 20 -7 -58 -109 -151 -199
-137 -132 -258 -208 -492 -308 -601 -258 -895 -526 -1044 -954 -5 -15 -9 -16
-21 -6 -21 17 -22 180 -1 180 22 0 29 31 8 37 -15 4 -18 15 -18 72 1 59 -3 73
-27 109 -16 22 -53 58 -83 78 -31 22 -54 45 -54 55 0 10 -9 26 -19 36 -14 13
-22 41 -29 103 -8 74 -10 79 -12 35 -4 -93 -10 -119 -30 -140 -11 -12 -20 -29
-20 -38 0 -9 -10 -21 -21 -28 -36 -19 -110 -91 -126 -123 -10 -19 -16 -55 -16
-91 1 -44 -3 -63 -16 -72 -15 -12 -15 -14 2 -27 14 -11 17 -29 17 -99 0 -47
-4 -88 -9 -91 -4 -3 -6 -48 -3 -101 l5 -95 -37 0 -36 0 0 95 0 95 -55 0 c-44
0 -55 3 -55 16 0 9 7 22 16 29 15 10 15 13 2 25 -12 12 -12 21 -1 64 18 68 16
163 -3 224 -24 74 -88 149 -192 222 -80 56 -92 69 -92 93 0 21 -13 42 -45 74
-36 37 -42 49 -35 64 6 10 7 20 2 23 -4 2 -9 42 -10 88 -2 46 -6 106 -10 133
-8 48 -9 45 -17 -55 -5 -58 -9 -131 -10 -162 0 -53 -2 -59 -40 -91 -31 -27
-39 -41 -39 -68 0 -32 -5 -39 -69 -79 -89 -58 -179 -147 -207 -207 -30 -62
-38 -177 -18 -253 13 -49 13 -57 0 -69 -13 -13 -13 -16 2 -26 34 -25 19 -44
-36 -47 l-53 -3 -3 -92 c-2 -85 -4 -93 -22 -93 -19 0 -20 8 -20 235 0 223 1
235 19 235 28 0 47 26 31 45 -7 8 -21 15 -31 15 -18 0 -19 12 -19 224 0 190 2
225 15 230 19 7 19 35 1 50 -12 9 -15 47 -17 184 -3 160 -1 173 17 186 16 13
17 18 7 35 -16 26 -17 118 -1 123 7 3 8 9 3 19 -5 7 -10 31 -10 51 -1 43 -27
84 -73 113 -17 11 -31 27 -32 36 0 8 -4 19 -9 25 -6 5 -14 32 -19 59 l-10 50
-1 -51 c-1 -33 -7 -56 -16 -64 -8 -7 -15 -17 -15 -22 0 -5 -21 -29 -47 -52
-43 -39 -47 -47 -53 -102 -4 -32 -3 -60 2 -62 13 -5 10 -100 -4 -123 -11 -17
-10 -22 5 -33 15 -12 17 -33 17 -185 0 -167 -1 -173 -22 -192 l-23 -19 23 -19
c22 -19 22 -23 22 -239 l0 -221 -27 -3 c-38 -4 -40 -49 -3 -58 l25 -6 0 -274
c0 -151 -1 -335 -3 -407 l-4 -133 -39 0 c-32 0 -39 4 -39 19 0 10 7 21 15 25
18 6 20 33 3 38 -9 3 -8 16 2 54 19 66 17 169 -5 233 -22 68 -116 169 -214
231 -64 41 -71 48 -71 79 0 26 -9 42 -37 69 -26 24 -39 45 -40 66 -1 17 -4 78
-8 136 -9 155 -18 172 -27 50 -4 -58 -9 -130 -10 -161 -3 -50 -7 -58 -40 -88
-30 -26 -38 -40 -38 -67 0 -30 -7 -38 -74 -83 -199 -134 -267 -273 -222 -450
13 -52 14 -66 4 -72 -10 -7 -11 -12 -1 -29 19 -29 16 -49 -2 -22 -41 58 -169
98 -258 81 -71 -13 -113 -36 -157 -87 l-40 -45 0 105 c0 97 2 106 20 111 26 7
26 33 0 49 -19 12 -20 24 -20 196 0 178 1 184 23 202 18 15 20 21 10 31 -15
15 -18 129 -3 129 6 0 10 7 10 15 0 8 -4 15 -9 15 -5 0 -11 24 -13 52 -5 48
-10 57 -57 99 -28 25 -51 50 -51 56 0 6 -7 16 -15 23 -8 6 -16 34 -18 63 l-3
52 -2 -51 c-1 -32 -8 -56 -17 -64 -8 -7 -15 -19 -15 -26 0 -8 -18 -26 -41 -41
-48 -32 -69 -68 -69 -122 0 -22 -4 -43 -10 -46 -15 -9 -12 -25 5 -25 11 0 15
-13 15 -54 0 -30 -5 -58 -10 -61 -16 -10 -12 -45 5 -45 13 0 15 -28 15 -191 0
-181 -1 -192 -21 -207 -22 -19 -18 -52 7 -52 11 0 14 -31 14 -167 l0 -166 -39
61 c-88 135 -220 243 -362 295 -39 15 -169 46 -191 47 -5 0 -8 7 -8 15 0 8 -9
19 -20 25 -18 10 -20 21 -20 140 l0 130 49 47 c78 75 89 157 36 249 -25 42
-65 72 -49 37 12 -28 17 -100 9 -139 -8 -47 -66 -109 -121 -130 -42 -16 -76
-16 -144 1 -23 6 -22 4 10 -25 42 -37 100 -54 154 -46 l39 7 -7 -62 c-3 -34
-6 -95 -6 -135 0 -59 -3 -74 -15 -74 -8 0 -15 -8 -15 -18 0 -15 -17 -21 -92
-35 -110 -21 -246 -83 -330 -151 -71 -57 -148 -152 -185 -228 -15 -32 -30 -58
-33 -58 -4 0 -19 14 -36 31 -16 17 -48 42 -72 56 -31 18 -42 31 -42 49 0 14
-11 35 -25 48 -22 20 -25 34 -32 132 -7 104 -7 107 -15 54 -4 -30 -8 -79 -9
-108 -2 -44 -7 -59 -31 -82 -15 -16 -28 -37 -28 -48 0 -13 -22 -36 -65 -66
-72 -52 -107 -93 -125 -148 -6 -21 -13 -38 -15 -38 -11 0 -99 43 -146 71 -80
49 -109 74 -109 96 0 10 -4 23 -10 29 -5 5 -12 46 -16 92 -4 45 -10 82 -14 82
-4 0 -10 -37 -13 -82 -4 -45 -11 -86 -17 -92 -5 -5 -10 -20 -10 -32 0 -28
-119 -109 -218 -149 -207 -84 -304 -150 -347 -240 -20 -42 -26 -127 -12 -177
7 -26 5 -28 -23 -28 l-30 0 0 142 c0 116 3 145 16 159 20 22 12 49 -16 49 -15
0 -20 7 -20 25 0 52 -32 106 -85 145 -48 36 -53 43 -66 102 l-13 63 -8 -55
c-7 -51 -13 -59 -73 -115 -57 -52 -67 -67 -77 -112 -9 -40 -16 -53 -30 -53
-13 0 -18 -7 -18 -25 0 -14 5 -25 10 -25 6 0 10 -56 10 -147 -1 -141 -2 -147
-17 -118 -22 43 -71 92 -105 106 -19 8 -35 25 -45 50 -8 21 -26 45 -39 54 -16
10 -24 25 -24 45 0 16 -4 32 -10 35 -5 3 -10 34 -11 68 l-1 62 -17 -95 c-14
-83 -21 -99 -49 -127 -17 -17 -32 -40 -32 -51 0 -12 -11 -24 -30 -32 -43 -18
-114 -98 -135 -152 -12 -34 -16 -65 -13 -108 l4 -60 -42 0 c-39 0 -42 -2 -48
-31 -3 -17 -6 -368 -6 -780 l0 -749 8945 0 8945 0 0 780 0 780 -44 0 -44 0 5
58 c7 80 -23 156 -82 211 -25 23 -56 47 -70 53 -14 6 -25 20 -25 30 0 11 -14
33 -31 51 -33 33 -58 106 -61 180 -1 38 -2 36 -9 -18 -13 -102 -23 -132 -51
-154 -14 -12 -29 -34 -33 -49 -4 -17 -23 -38 -53 -57 -26 -16 -61 -49 -79 -73
l-33 -44 0 141 c0 87 4 141 10 141 6 0 10 11 10 24 0 18 -6 25 -22 28 -16 2
-24 11 -26 28 -7 60 -17 78 -77 135 -59 55 -65 65 -73 115 -10 60 -7 63 -33
-40 -6 -26 -22 -46 -60 -74 -53 -39 -79 -84 -79 -136 0 -23 -4 -30 -20 -30
-28 0 -36 -27 -16 -49 13 -14 16 -43 16 -159 l0 -142 -31 0 c-29 0 -31 2 -23
28 16 49 9 134 -14 179 -47 91 -135 152 -332 232 -102 42 -230 125 -230 150 0
10 -7 32 -15 47 -9 17 -15 56 -15 97 0 37 -4 67 -9 67 -5 0 -12 -38 -16 -85
-5 -53 -13 -89 -21 -96 -8 -7 -12 -19 -9 -28 3 -12 -13 -28 -58 -58 -61 -41
-187 -107 -191 -101 -1 2 -15 29 -30 60 -26 55 -84 112 -158 156 -20 12 -28
24 -28 44 0 18 -8 33 -24 43 -22 15 -25 25 -32 128 l-8 112 -8 -80 c-4 -44 -8
-94 -9 -112 -1 -22 -8 -37 -25 -48 -16 -10 -24 -25 -24 -44 0 -16 -6 -31 -13
-34 -7 -3 -42 -27 -78 -55 l-66 -50 -25 51 c-100 204 -322 360 -555 392 -43 6
-53 11 -53 26 0 10 -7 19 -15 19 -11 0 -15 11 -15 43 0 24 -3 86 -7 137 l-6
93 36 -7 c46 -9 116 9 153 39 34 27 29 40 -10 25 -139 -53 -291 99 -242 242
19 54 11 61 -23 20 -30 -36 -51 -92 -51 -139 0 -45 45 -125 86 -153 l36 -24
-4 -134 c-4 -112 -7 -136 -21 -144 -9 -5 -17 -15 -17 -23 0 -8 -15 -17 -37
-21 -69 -11 -152 -34 -199 -55 -123 -52 -271 -182 -335 -294 l-29 -50 0 163
c0 158 1 165 23 183 l22 19 -22 19 c-22 19 -23 25 -23 205 0 157 2 188 15 192
17 7 20 40 5 49 -18 11 -12 106 8 121 15 11 15 13 2 18 -11 5 -14 18 -12 50 3
39 0 49 -33 85 -20 22 -45 43 -56 46 -10 4 -19 15 -19 26 0 11 -7 22 -15 25
-11 4 -15 21 -15 57 0 60 -8 59 -11 -1 -2 -24 -9 -48 -16 -54 -7 -6 -13 -16
-13 -24 0 -7 -18 -25 -39 -41 -51 -36 -71 -71 -71 -122 0 -23 -4 -41 -10 -41
-5 0 -10 -7 -10 -15 0 -8 5 -15 10 -15 15 0 12 -114 -2 -129 -11 -10 -9 -16
10 -31 21 -18 22 -23 22 -203 0 -176 -1 -185 -20 -190 -12 -3 -20 -14 -20 -27
0 -13 8 -24 20 -27 18 -5 20 -14 20 -104 0 -55 -2 -99 -5 -99 -3 0 -20 16 -37
36 -59 67 -154 98 -255 82 -63 -10 -133 -46 -158 -80 -18 -27 -21 -7 -2 22 10
17 9 22 -1 28 -10 7 -9 23 4 83 15 62 15 84 6 142 -7 37 -21 85 -31 106 -25
47 -142 158 -214 202 -51 30 -56 38 -57 68 0 26 -9 42 -37 69 -27 25 -38 45
-39 66 -7 140 -18 258 -26 262 -4 3 -9 -34 -10 -83 0 -48 -3 -101 -5 -118 -2
-16 -5 -44 -6 -61 -1 -21 -14 -42 -39 -66 -29 -27 -38 -43 -38 -69 -1 -31 -7
-38 -76 -84 -103 -68 -187 -159 -210 -227 -20 -62 -22 -172 -4 -238 8 -32 9
-45 1 -48 -16 -5 -13 -32 4 -38 8 -4 15 -15 15 -25 0 -16 -8 -19 -45 -19 l-45
0 0 410 c0 394 1 410 19 410 28 0 47 26 31 45 -7 8 -21 15 -31 15 -18 0 -19
12 -19 224 0 190 2 225 15 230 8 3 15 15 15 26 0 11 -7 20 -15 20 -13 0 -15
27 -15 181 0 162 2 183 18 195 14 11 15 16 5 33 -16 26 -17 118 -1 123 7 3 8
10 4 17 -5 7 -9 33 -10 58 -2 41 -7 51 -47 87 -56 51 -79 88 -79 123 0 22 -2
25 -10 13 -5 -8 -10 -25 -10 -37 0 -13 -4 -23 -10 -23 -5 0 -10 -8 -10 -17 0
-10 -16 -28 -35 -40 -47 -31 -68 -66 -68 -116 0 -23 -5 -46 -11 -50 -8 -6 -8
-10 2 -14 15 -6 17 -109 2 -118 -16 -10 -11 -36 8 -41 15 -5 17 -20 14 -182
-3 -139 -7 -179 -18 -188 -18 -15 -18 -43 1 -50 13 -5 15 -40 15 -230 0 -212
-1 -224 -19 -224 -10 0 -24 -6 -30 -14 -17 -20 -3 -46 25 -46 l24 0 0 -235 c0
-228 -1 -235 -20 -235 -11 0 -20 3 -21 8 -1 4 -2 45 -3 92 l-1 85 -53 3 c-44
3 -52 6 -52 23 0 10 5 19 10 19 13 0 13 37 -1 42 -7 2 -6 13 2 33 7 17 12 73
13 125 1 85 -2 101 -27 152 -32 65 -125 157 -216 213 -56 35 -61 41 -61 72 0
26 -8 42 -31 64 -17 16 -35 29 -39 29 -4 0 -8 28 -9 63 -1 34 -5 109 -9 167
l-7 105 -8 -80 c-5 -44 -10 -117 -12 -162 -3 -81 -3 -82 -44 -121 -31 -29 -41
-47 -41 -70 0 -27 -9 -36 -69 -76 -90 -60 -173 -144 -201 -203 -28 -60 -37
-162 -20 -245 8 -45 9 -63 1 -66 -16 -5 -13 -39 4 -46 8 -3 15 -12 15 -20 0
-11 -14 -16 -52 -18 l-53 -3 -3 -92 -3 -93 -39 0 -40 0 0 69 c0 39 5 73 10 76
15 9 12 41 -5 55 -11 9 -15 34 -15 95 0 74 2 83 20 88 25 6 26 25 3 35 -15 6
-18 20 -18 79 0 64 -3 75 -31 110 -17 21 -51 52 -77 68 -25 17 -46 38 -46 48
-1 10 -12 29 -25 42 -13 13 -24 30 -23 37 0 7 -1 40 -3 73 l-3 60 -11 -76 c-7
-47 -18 -82 -28 -93 -10 -10 -18 -26 -18 -35 0 -10 -18 -30 -39 -44 -96 -64
-140 -142 -126 -225 5 -34 4 -40 -14 -45 -24 -6 -19 -37 5 -37 21 0 20 -176
-1 -184 -17 -6 -20 -37 -4 -53 5 -5 9 -34 7 -64 l-3 -54 -14 60 c-56 250 -153
433 -320 602 -186 190 -384 314 -751 472 -175 76 -262 124 -376 209 -86 64
-192 171 -244 247 -32 46 -32 49 -14 62 111 79 152 200 104 312 -26 59 -96
127 -144 139 -29 8 -31 11 -34 61 -3 44 1 57 22 82 35 42 34 83 -4 120 -28 29
-29 34 -36 154 l-7 125 89 -6 c188 -14 371 52 500 181 63 63 154 188 122 169
-7 -4 -40 -25 -72 -46 -75 -48 -192 -86 -294 -94 -105 -9 -221 15 -332 68 -70
33 -100 56 -170 127 -135 136 -190 270 -189 461 0 85 18 184 43 243 16 35 -12
16 -58 -40z m-3108 -2132 c18 -11 28 -55 24 -102 -4 -39 -4 -39 -48 -39 l-44
0 0 57 c0 74 29 109 68 84z m6974 -8 c13 -12 18 -31 18 -75 l0 -58 -50 0 -50
0 0 55 c0 42 5 60 20 75 24 24 38 25 62 3z m-1421 -1122 c27 -28 29 -34 29
-113 l0 -83 -73 1 -72 0 -3 40 c-6 70 8 125 38 156 36 35 44 35 81 -1z m-4251
-7 c6 -14 10 -61 10 -105 l0 -79 -31 0 -32 0 6 88 c5 90 13 122 28 122 5 0 14
-12 19 -26z m135 20 c28 -11 45 -60 45 -134 l0 -70 -70 0 -70 0 0 80 c0 73 3
83 25 105 25 26 41 30 70 19z m124 -25 c6 -18 11 -65 11 -105 l0 -74 -30 0
-30 0 0 68 c0 70 15 142 29 142 5 0 14 -14 20 -31z m3841 -9 c6 -22 10 -71 8
-108 -3 -65 -4 -67 -30 -70 l-28 -3 0 91 c0 125 27 174 50 90z m259 3 c14 -49
14 -170 1 -178 -6 -3 -19 -3 -30 0 -18 6 -20 15 -20 91 0 117 28 165 49 87z
m-7189 -74 l0 -39 -46 0 -47 0 7 42 c9 53 31 72 63 51 17 -12 23 -25 23 -54z
m10043 48 c10 -6 20 -29 24 -50 l6 -37 -47 0 -46 0 0 40 c0 27 6 42 18 49 22
13 25 13 45 -2z m-13149 -1278 c24 -29 26 -37 26 -134 l0 -104 -54 -6 c-90
-12 -91 -11 -94 80 -4 103 4 142 33 171 32 32 58 30 89 -7z m16281 5 c24 -25
25 -34 25 -140 l0 -114 -39 0 c-21 0 -53 3 -70 6 l-31 7 0 102 c0 97 2 105 26
134 32 38 57 39 89 5z m-16442 -17 c11 -29 19 -149 13 -192 -6 -39 -10 -45
-32 -45 -24 0 -24 1 -24 99 0 97 10 151 29 151 5 0 11 -6 14 -13z m261 -3 c3
-9 6 -63 6 -120 l0 -104 -25 0 -25 0 0 101 c0 94 9 139 29 139 5 0 12 -7 15
-16z m16026 -10 c6 -14 10 -68 10 -120 l0 -94 -31 0 -32 0 5 103 c6 103 13
137 29 137 5 0 14 -12 19 -26z m261 -1 c5 -14 8 -69 7 -122 -3 -95 -3 -96 -28
-96 -24 0 -25 2 -28 82 -4 126 23 203 49 136z"/>
</g>
</svg>
