<?xml version="1.0" standalone="no"?>
<!DOCTYPE svg PUBLIC "-//W3C//DTD SVG 20010904//EN"
 "http://www.w3.org/TR/2001/REC-SVG-20010904/DTD/svg10.dtd">
<svg version="1.0" xmlns="http://www.w3.org/2000/svg"
 width="587.000000pt" height="584.000000pt" viewBox="0 0 587.000000 584.000000"
 preserveAspectRatio="xMidYMid meet">

<g transform="translate(0.000000,584.000000) scale(0.100000,-0.100000)"
fill="#000000" stroke="none">
<path d="M2878 5151 c-215 -69 -355 -295 -319 -515 29 -179 154 -325 322 -377
33 -10 74 -19 90 -19 16 0 29 -1 29 -2 0 -2 -9 -27 -20 -56 -57 -151 -145
-285 -258 -394 -94 -90 -153 -133 -395 -282 -523 -323 -726 -501 -871 -767
-149 -273 -167 -604 -47 -898 71 -174 166 -307 347 -488 l133 -133 1109 0
1109 0 75 64 c143 122 284 298 366 455 250 482 135 992 -313 1380 -128 112
-242 191 -532 372 -140 87 -282 180 -316 206 -149 114 -271 271 -341 438 -20
48 -36 91 -36 96 0 5 19 9 43 9 98 0 205 47 289 128 48 46 108 126 108 146 0
2 -22 -10 -50 -29 -77 -52 -138 -68 -235 -63 -106 6 -193 45 -258 118 -176
195 -120 487 116 605 l51 25 -70 -1 c-38 0 -95 -8 -126 -18z m219 -1417 c98
-116 216 -204 533 -399 96 -59 218 -137 270 -173 338 -232 520 -458 587 -729
26 -104 23 -294 -6 -403 -53 -199 -198 -426 -373 -585 l-61 -55 -90 0 -89 0
18 28 c137 207 204 337 204 397 0 22 -9 90 -20 150 -28 158 -48 322 -56 465
-7 147 -25 200 -72 219 -26 11 -36 10 -66 -4 -20 -10 -46 -29 -58 -44 -14 -18
-22 -22 -25 -13 -3 7 -51 82 -106 165 -165 249 -255 322 -328 268 -26 -20 -34
-21 -65 -11 -62 21 -126 -15 -144 -79 -7 -27 -17 -39 -39 -48 -38 -14 -56 -73
-46 -150 6 -51 5 -54 -24 -79 -17 -14 -31 -36 -31 -47 -1 -18 -3 -16 -14 9 -8
17 -24 39 -37 48 -22 15 -23 22 -20 94 2 67 0 81 -19 105 -12 15 -30 27 -41
27 -13 0 -19 7 -19 23 0 67 -75 118 -146 98 -31 -9 -40 -7 -64 11 -34 25 -76
20 -128 -15 -40 -26 -150 -170 -246 -320 l-69 -108 -31 30 c-60 58 -117 60
-152 6 -16 -25 -21 -62 -44 -325 -6 -74 -25 -212 -41 -306 -27 -158 -28 -175
-15 -218 16 -53 94 -195 168 -303 l49 -73 -92 0 -91 0 -80 78 c-408 395 -491
854 -227 1261 119 184 310 348 655 561 102 63 239 151 306 194 127 83 274 215
349 312 l43 56 20 -28 c12 -16 44 -56 73 -90z m-465 -751 c28 -25 24 -118 -7
-195 -14 -34 -71 -140 -126 -236 -56 -95 -99 -176 -96 -179 9 -8 202 289 243
373 26 55 38 95 43 147 5 64 8 71 32 79 60 20 106 -30 95 -102 -8 -50 -67
-192 -142 -342 -36 -72 -63 -135 -62 -140 10 -30 199 314 230 419 14 50 44 59
54 17 16 -61 -3 -138 -76 -306 -39 -92 -70 -175 -68 -185 2 -9 38 52 81 135
43 84 82 152 86 152 31 0 41 -89 20 -180 -5 -25 -40 -108 -77 -185 -61 -128
-66 -146 -67 -205 0 -56 5 -76 39 -143 36 -73 38 -81 34 -146 -4 -56 -17 -96
-69 -217 l-65 -149 -254 -2 -255 -3 -61 88 c-82 117 -164 256 -181 303 -11 34
-10 55 7 162 25 158 39 295 48 486 8 141 10 155 30 171 12 10 31 16 42 13 30
-8 68 -58 84 -113 21 -70 40 -308 33 -422 l-5 -98 41 0 c43 0 116 -28 152 -58
l20 -17 -20 24 c-24 28 -110 71 -144 71 l-24 0 7 98 c7 103 -7 343 -24 401 -9
32 -5 40 76 162 122 185 216 303 255 322 43 21 48 21 71 0z m819 -6 c45 -30
111 -113 231 -290 l100 -149 -13 -66 c-8 -42 -14 -144 -14 -269 0 -178 -2
-203 -16 -203 -36 0 -110 -34 -146 -66 l-38 -35 37 26 c47 34 102 54 149 55
l36 0 6 213 c4 116 11 234 17 261 28 134 112 207 152 133 6 -12 15 -99 19
-195 8 -169 28 -363 49 -471 16 -87 12 -127 -19 -189 -36 -71 -123 -208 -179
-284 l-43 -58 -253 0 -253 0 -63 148 c-55 128 -64 157 -68 224 -4 72 -2 81 31
150 20 40 38 88 42 105 9 44 -16 126 -75 242 -60 120 -80 187 -80 267 0 69 6
94 24 94 6 0 45 -66 86 -146 119 -231 123 -205 9 60 -68 160 -70 167 -67 238
2 57 6 73 19 76 11 2 21 -12 34 -45 54 -144 215 -437 231 -420 3 3 -22 60 -56
127 -85 170 -150 332 -150 375 0 67 39 102 97 86 24 -6 28 -12 25 -37 -9 -83
42 -197 185 -414 108 -164 101 -155 108 -148 3 2 -29 63 -71 134 -153 259
-194 361 -180 437 11 58 44 70 97 34z m-356 -748 c77 -152 82 -197 32 -291
-66 -125 -61 -200 29 -411 30 -70 54 -129 54 -132 0 -3 -94 -5 -209 -5 l-210
0 44 100 c67 150 87 217 87 292 1 57 -5 78 -37 145 -54 113 -52 145 24 298 34
67 68 151 78 187 l17 66 17 -68 c10 -37 43 -118 74 -181z"/>
<path d="M3152 4925 c-20 -42 -24 -45 -72 -51 -27 -4 -50 -9 -50 -12 0 -4 16
-22 35 -42 34 -35 35 -37 26 -85 -5 -28 -8 -52 -6 -53 2 -2 24 8 49 23 l46 27
46 -27 c25 -15 47 -25 49 -23 2 1 -1 25 -6 53 -9 48 -8 50 26 85 19 20 35 38
35 42 0 3 -23 8 -50 12 -48 6 -52 9 -72 51 -12 25 -25 45 -28 45 -3 0 -16 -20
-28 -45z"/>
<path d="M1780 1084 c-110 -48 -161 -177 -115 -292 21 -51 80 -104 134 -120
28 -9 351 -12 1214 -12 l1175 0 53 28 c131 68 158 243 55 347 -23 23 -59 46
-82 53 -32 9 -315 12 -1220 12 -1031 -1 -1183 -3 -1214 -16z"/>
</g>
</svg>
