<svg xmlns="http://www.w3.org/2000/svg" width="18.6" height="18.638" viewBox="0 0 18.6 18.638">
  <g id="Home_ico" data-name="Home ico" transform="translate(0.75 0.878)">
    <path id="Path_321" data-name="Path 321" d="M382.5,473.1a3.6,3.6,0,0,1,1.369-2.824l4.95-3.907a3.6,3.6,0,0,1,4.462,0l4.95,3.907A3.6,3.6,0,0,1,399.6,473.1v5.9a3.6,3.6,0,0,1-3.6,3.6h-1.35a.9.9,0,0,1-.9-.9v-2.7a1.8,1.8,0,0,0-1.8-1.8h-1.8a1.8,1.8,0,0,0-1.8,1.8v2.7a.9.9,0,0,1-.9.9H386.1a3.6,3.6,0,0,1-3.6-3.6Z" transform="translate(-382.5 -465.596)" fill="none" stroke="#000" stroke-width="1.5"/>
  </g>
</svg>
