<svg width="24" height="24" viewBox="0 0 24 24" fill="none" xmlns="http://www.w3.org/2000/svg">
<path d="M8 22.321C7.72 22.321 7.43 22.251 7.17 22.111C6.6 21.811 6.25 21.211 6.25 20.571V19.151C3.23 18.841 1.25 16.621 1.25 13.441V7.44104C1.25 4.00104 3.56 1.69104 7 1.69104H17C20.44 1.69104 22.75 4.00104 22.75 7.44104V13.441C22.75 16.881 20.44 19.191 17 19.191H13.23L8.97 22.031C8.68 22.221 8.34 22.321 8 22.321ZM7 3.18104C4.42 3.18104 2.75 4.85104 2.75 7.43104V13.431C2.75 16.011 4.42 17.681 7 17.681C7.41 17.681 7.75 18.021 7.75 18.431V20.561C7.75 20.691 7.83 20.751 7.88 20.781C7.93 20.811 8.03 20.841 8.14 20.771L12.59 17.811C12.71 17.731 12.86 17.681 13.01 17.681H17.01C19.59 17.681 21.26 16.011 21.26 13.431V7.43104C21.26 4.85104 19.59 3.18104 17.01 3.18104H7Z" fill="#442D7A"/>
<path d="M12.0001 12.11C11.5901 12.11 11.2501 11.77 11.2501 11.36V11.15C11.2501 9.98998 12.1001 9.41999 12.4201 9.19999C12.7901 8.94999 12.9101 8.77999 12.9101 8.51999C12.9101 8.01999 12.5001 7.60999 12.0001 7.60999C11.5001 7.60999 11.0901 8.01999 11.0901 8.51999C11.0901 8.92999 10.7501 9.26999 10.3401 9.26999C9.93009 9.26999 9.59009 8.92999 9.59009 8.51999C9.59009 7.18999 10.6701 6.10999 12.0001 6.10999C13.3301 6.10999 14.4101 7.18999 14.4101 8.51999C14.4101 9.65999 13.5701 10.23 13.2601 10.44C12.8701 10.7 12.7501 10.87 12.7501 11.15V11.36C12.7501 11.78 12.4101 12.11 12.0001 12.11ZM12.0001 14.602C11.9017 14.6021 11.8043 14.5829 11.7134 14.5454C11.6225 14.5078 11.5398 14.4528 11.4702 14.3833C11.4005 14.3139 11.3452 14.2314 11.3075 14.1405C11.2697 14.0497 11.2502 13.9523 11.2501 13.854C11.25 13.7556 11.2692 13.6582 11.3067 13.5673C11.3442 13.4764 11.3993 13.3937 11.4688 13.3241C11.5382 13.2544 11.6207 13.1991 11.7115 13.1614C11.8024 13.1236 11.8997 13.1041 11.9981 13.104C12.1967 13.1037 12.3874 13.1824 12.528 13.3227C12.6687 13.4629 12.7478 13.6533 12.7481 13.852C12.7484 14.0506 12.6697 14.2412 12.5294 14.3819C12.3891 14.5226 12.1987 14.6017 12.0001 14.602Z" fill="#442D7A"/>
</svg>
