<svg id="Notification_ico" data-name="Notification ico" xmlns="http://www.w3.org/2000/svg" width="14.06" height="17.76" viewBox="0 0 14.06 17.76">
  <path id="Path_163" data-name="Path 163" d="M495.865,475.163h0Zm2.24,2.56.084-.594h0Zm8.35,0-.084-.594Zm-8.55-8a4.324,4.324,0,0,1,4.375-4.272v-1.2a5.54,5.54,0,0,0-5.6,5.472Zm0,1.674v-1.674h-1.23V471.4Zm-1.426,3.767a2.009,2.009,0,0,1,.3-1.052l-1.057-.615a3.193,3.193,0,0,0-.469,1.666Zm1.71,1.966a1.974,1.974,0,0,1-1.71-1.966h-1.23a3.183,3.183,0,0,0,2.771,3.154Zm4.091.345a33.531,33.531,0,0,1-4.091-.345l-.169,1.189a34.505,34.505,0,0,0,4.259.357Zm4.091-.345a33.516,33.516,0,0,1-4.091.345v1.2a34.492,34.492,0,0,0,4.259-.357Zm1.71-1.966a1.974,1.974,0,0,1-1.71,1.966l.169,1.189a3.183,3.183,0,0,0,2.771-3.154Zm-.3-1.052a2.017,2.017,0,0,1,.3,1.052h1.23a3.193,3.193,0,0,0-.469-1.666Zm-1.13-4.389V471.4h1.23v-1.675Zm-4.375-4.272a4.324,4.324,0,0,1,4.375,4.272h1.23a5.54,5.54,0,0,0-5.6-5.472Zm6.561,8.046c-.253-.415-.484-.747-.673-1.117a2.178,2.178,0,0,1-.284-.982h-1.23a3.332,3.332,0,0,0,.413,1.518c.216.423.508.854.717,1.2Zm-12.166-2.1a2.169,2.169,0,0,1-.284.983c-.189.371-.42.7-.673,1.117l1.057.615c.208-.342.5-.772.716-1.2a3.332,3.332,0,0,0,.413-1.519Z" transform="translate(-495.25 -464.25)"/>
  <path id="Path_164" data-name="Path 164" d="M505.773,483.834a2.473,2.473,0,0,1-4.12,0" transform="translate(-496.682 -467.929)" fill="none" stroke="#000" stroke-linecap="round" stroke-width="1.5"/>
</svg>
