<?xml version="1.0" standalone="no"?>
<!DOCTYPE svg PUBLIC "-//W3C//DTD SVG 20010904//EN"
 "http://www.w3.org/TR/2001/REC-SVG-20010904/DTD/svg10.dtd">
<svg version="1.0" xmlns="http://www.w3.org/2000/svg"
 width="2000.000000pt" height="1991.000000pt" viewBox="0 0 2000.000000 1991.000000"
 preserveAspectRatio="xMidYMid meet">

<g transform="translate(0.000000,1991.000000) scale(0.100000,-0.100000)"
fill="#000000" stroke="none">
<path d="M10278 19369 c-10 -5 -18 -18 -18 -27 0 -41 -54 -124 -139 -217 -100
-108 -147 -188 -157 -266 l-6 -48 -64 45 c-34 25 -91 57 -126 72 -57 24 -75
26 -196 27 -121 0 -135 -2 -148 -19 -23 -33 -16 -54 29 -85 111 -76 154 -147
238 -398 62 -185 97 -258 162 -336 l40 -48 -29 7 c-61 14 -197 74 -271 119
-90 55 -210 148 -303 234 -101 94 -130 83 -130 -48 0 -108 31 -258 68 -333
l29 -58 -31 0 c-63 0 -214 -39 -287 -72 -134 -63 -231 -152 -289 -267 -18 -35
-20 -49 -11 -67 6 -13 16 -24 23 -25 7 0 206 0 442 1 l430 2 -32 -36 c-59 -67
-84 -123 -90 -194 -8 -123 37 -217 129 -267 45 -24 68 -30 140 -33 60 -3 103
1 140 11 29 9 56 14 59 10 3 -3 -17 -25 -45 -50 -207 -186 -406 -284 -895
-438 -504 -159 -705 -259 -890 -445 -193 -192 -274 -401 -287 -736 -7 -183 -3
-198 54 -209 139 -25 291 -154 373 -317 47 -94 64 -170 58 -264 -8 -127 -69
-197 -198 -230 -117 -30 -263 8 -334 86 -19 22 -40 58 -46 80 -10 37 -9 47 12
88 30 60 48 66 48 15 0 -60 46 -124 111 -157 100 -49 235 -26 302 53 35 42 40
66 35 160 -8 135 -95 283 -205 348 -106 62 -266 81 -397 47 -204 -53 -404
-236 -511 -468 -61 -130 -80 -228 -79 -406 1 -135 4 -168 27 -253 14 -54 48
-145 75 -201 53 -110 144 -254 168 -263 32 -12 60 8 94 69 52 94 213 250 324
315 235 138 524 201 810 175 204 -19 203 -15 45 -110 -638 -384 -929 -694
-1041 -1110 -44 -165 -34 -448 22 -595 11 -28 18 -52 16 -54 -2 -2 -37 6 -77
17 -430 121 -797 21 -1125 -305 -180 -179 -347 -418 -544 -780 -51 -93 -117
-215 -148 -270 -221 -396 -425 -603 -744 -755 -105 -49 -253 -101 -343 -120
-27 -6 -61 -13 -74 -16 -18 -4 -1 17 61 78 57 55 94 101 111 138 118 245 -9
529 -272 610 -75 24 -211 27 -286 6 -218 -58 -328 -221 -311 -460 l6 -89 -55
52 c-74 70 -163 111 -257 118 -202 15 -370 -92 -495 -317 -71 -128 -119 -186
-175 -214 -28 -14 -64 -26 -78 -26 -62 0 -81 -83 -22 -96 87 -19 108 -29 149
-67 26 -24 74 -91 116 -162 91 -155 173 -242 276 -293 73 -36 77 -37 190 -37
107 0 120 2 174 28 32 16 85 54 117 84 l60 55 -6 -88 c-11 -162 28 -277 121
-363 90 -82 195 -115 359 -109 94 3 108 6 177 40 190 94 289 285 248 480 -21
97 -57 157 -148 247 -47 46 -77 81 -66 78 11 -3 47 -11 80 -18 146 -29 397
-136 536 -229 241 -162 392 -344 580 -700 116 -222 204 -377 287 -510 365
-584 722 -839 1173 -840 127 0 251 18 343 50 33 11 61 19 63 17 1 -2 -7 -30
-18 -63 -34 -95 -49 -198 -49 -326 0 -326 129 -609 399 -878 159 -158 358
-305 678 -500 72 -44 117 -77 110 -81 -53 -29 -393 -38 -530 -14 -314 55 -605
230 -746 448 -67 103 -74 111 -103 104 -48 -12 -168 -213 -225 -377 -46 -130
-58 -209 -57 -365 1 -116 6 -157 27 -237 66 -250 223 -455 429 -558 105 -52
202 -73 326 -68 86 3 105 7 163 35 85 42 169 129 211 220 26 55 33 83 36 154
4 77 2 92 -19 128 -57 101 -212 141 -326 83 -68 -36 -103 -88 -103 -158 0 -43
-15 -43 -40 -2 -47 78 -27 150 58 213 156 115 397 82 472 -65 54 -107 46 -216
-28 -363 -77 -155 -236 -296 -362 -322 -65 -13 -70 -25 -70 -149 0 -518 203
-839 671 -1060 138 -65 242 -103 549 -200 129 -41 277 -91 329 -111 181 -69
369 -175 475 -267 l39 -34 -99 1 c-121 0 -180 -22 -247 -94 -109 -117 -101
-261 22 -391 l38 -40 -444 0 -443 0 -11 -24 c-23 -50 67 -183 179 -266 105
-78 281 -140 397 -140 19 0 35 -4 35 -9 0 -5 -13 -37 -30 -72 -47 -102 -80
-362 -51 -408 20 -32 60 -15 139 61 177 169 398 303 566 342 29 7 28 7 -15
-42 -72 -81 -115 -166 -170 -336 -80 -249 -126 -329 -226 -393 -90 -58 -67
-106 58 -119 128 -13 278 32 390 119 l47 35 6 -51 c10 -81 49 -147 146 -252
93 -99 133 -158 146 -210 10 -42 22 -55 53 -55 30 0 51 16 51 40 0 40 54 123
138 214 99 106 146 187 158 268 l6 47 49 -39 c105 -83 247 -127 377 -116 81 6
108 17 117 45 9 29 -4 48 -48 75 -96 56 -149 145 -223 371 -63 192 -107 284
-172 356 -24 27 -42 49 -40 49 3 0 34 -9 69 -21 185 -61 354 -169 541 -346 36
-35 70 -63 75 -63 5 0 19 7 31 16 19 13 22 24 22 88 0 98 -25 236 -56 310 -41
99 -41 96 0 96 100 0 264 52 364 116 137 88 248 254 200 302 -9 9 -122 12
-446 12 l-433 0 41 49 c127 151 95 373 -65 451 -53 26 -170 37 -233 22 l-44
-10 24 25 c35 38 143 115 235 168 118 68 331 151 639 248 499 159 679 247 872
431 194 184 286 417 299 758 7 171 1 191 -64 201 -74 12 -164 66 -243 146
-120 121 -180 257 -181 405 0 133 51 209 170 251 98 34 268 7 342 -54 68 -56
88 -144 49 -209 -25 -40 -40 -41 -40 -2 0 60 -48 127 -115 163 -30 16 -58 22
-115 22 -64 0 -82 -4 -123 -28 -86 -51 -117 -127 -97 -239 48 -262 265 -416
534 -379 321 45 602 365 655 744 36 257 -32 525 -196 772 -55 82 -86 107 -112
90 -6 -3 -33 -41 -61 -83 -51 -81 -183 -217 -261 -270 -75 -51 -217 -118 -319
-150 -136 -43 -263 -62 -414 -62 -134 0 -306 17 -306 30 0 4 44 34 98 66 553
329 833 587 993 917 118 244 142 547 63 786 -14 40 -23 75 -22 76 2 2 55 -11
118 -27 107 -29 127 -31 290 -32 204 -1 280 15 437 89 133 63 233 135 359 260
171 169 345 416 519 735 38 69 104 190 148 270 187 343 326 513 548 672 140
100 351 195 531 238 129 31 131 29 50 -47 -88 -83 -136 -161 -152 -249 -43
-226 78 -429 298 -503 84 -29 234 -29 324 -1 121 37 214 122 259 237 19 49 22
76 22 178 l-1 120 50 -48 c76 -71 164 -110 266 -115 210 -11 349 82 497 333
37 63 83 131 103 151 40 41 103 73 144 74 28 0 58 23 58 43 0 30 -30 54 -74
59 -88 10 -145 68 -251 254 -70 123 -159 213 -261 261 -76 36 -83 38 -184 38
-97 0 -110 -2 -173 -32 -37 -18 -93 -56 -123 -85 l-57 -53 7 70 c4 39 2 104
-4 145 -20 143 -83 235 -201 294 -90 45 -161 59 -278 54 -82 -3 -106 -8 -164
-35 -145 -68 -254 -217 -264 -360 -12 -162 49 -291 191 -407 26 -21 45 -40 43
-42 -7 -8 -123 18 -217 48 -240 76 -463 210 -636 383 -154 154 -210 235 -377
551 -176 334 -308 550 -451 739 -84 112 -256 287 -351 357 -278 209 -622 270
-959 173 -44 -13 -82 -22 -83 -21 -1 1 8 35 21 76 55 173 60 398 12 583 -30
117 -104 277 -178 384 -67 98 -245 283 -364 379 -110 88 -321 232 -499 340
l-130 79 65 13 c103 21 397 21 502 -1 346 -70 616 -247 762 -499 23 -40 33
-48 57 -48 24 0 36 11 80 73 311 441 281 1009 -71 1340 -141 133 -331 205
-511 195 -190 -11 -362 -169 -399 -368 -21 -110 6 -187 87 -244 35 -24 55 -30
116 -34 88 -5 134 8 184 51 42 37 63 82 63 133 l0 37 25 -23 c112 -105 -29
-283 -235 -298 -102 -7 -172 17 -236 81 -79 79 -98 160 -69 286 49 208 251
424 428 456 49 9 57 30 57 141 0 205 -42 410 -114 558 -99 202 -242 341 -486
469 -140 74 -258 120 -555 215 -514 166 -663 232 -847 381 -87 70 -143 128
-114 117 95 -34 230 -33 307 1 55 25 111 78 141 136 17 32 22 59 22 112 0 81
-21 130 -85 200 -21 23 -39 45 -39 49 0 4 195 6 433 5 238 -2 438 1 445 5 24
15 13 72 -26 132 -104 161 -294 267 -519 290 l-62 7 25 49 c38 75 64 190 71
310 7 118 0 138 -44 138 -18 0 -53 -26 -119 -89 -106 -101 -231 -190 -350
-249 -82 -41 -203 -86 -210 -79 -3 2 13 25 34 51 71 86 109 164 172 356 73
224 112 291 208 358 64 45 73 63 48 97 -12 17 -30 20 -118 23 -155 6 -264 -28
-379 -119 l-37 -29 -7 48 c-11 79 -48 145 -136 242 -112 123 -136 156 -154
214 -20 65 -44 80 -87 55z m164 -336 c66 -71 80 -92 98 -149 29 -95 24 -150
-25 -300 -9 -28 18 -54 55 -54 24 0 31 8 55 55 31 64 118 162 182 206 47 33
142 69 180 69 l24 0 -29 -42 c-51 -74 -89 -160 -147 -329 -31 -90 -70 -187
-86 -216 -43 -76 -114 -149 -194 -202 -64 -43 -70 -49 -70 -81 l0 -35 105 1
c65 0 129 6 167 17 171 45 349 139 507 267 48 39 90 69 92 67 8 -8 -27 -160
-47 -202 -26 -55 -75 -101 -124 -118 -32 -11 -41 -19 -43 -41 -6 -50 7 -54
156 -54 156 0 246 -18 359 -74 66 -32 183 -132 183 -156 0 -10 -106 -12 -506
-12 -535 1 -534 2 -534 -45 0 -29 14 -40 70 -55 25 -7 62 -21 83 -32 44 -22
123 -91 139 -122 58 -108 -4 -240 -124 -265 -85 -18 -204 13 -284 74 -37 28
-76 32 -94 10 -11 -13 -11 -26 -2 -66 38 -163 -17 -281 -171 -371 -40 -22 -80
-47 -89 -55 -15 -13 -20 -12 -50 10 -18 14 -56 36 -85 51 -60 30 -117 85 -145
141 -27 51 -35 151 -18 220 11 44 11 57 0 70 -20 24 -57 18 -110 -19 -64 -44
-141 -70 -210 -70 -131 -1 -228 102 -206 218 15 77 153 188 264 211 46 9 64
45 39 79 -12 16 -47 17 -520 16 -437 -1 -507 1 -507 14 0 24 116 121 184 155
112 55 203 73 358 73 149 0 162 4 156 54 -2 21 -11 30 -41 40 -60 21 -94 51
-122 107 -25 53 -62 203 -52 214 3 2 36 -21 73 -52 219 -187 492 -304 705
-305 80 0 99 9 99 47 0 17 -17 34 -68 68 -92 60 -173 147 -215 231 -19 38 -53
128 -76 199 -45 145 -95 256 -146 325 l-35 47 48 -8 c26 -5 79 -25 118 -44 86
-42 179 -136 224 -225 26 -52 34 -60 59 -60 56 0 60 23 26 150 -21 78 -16 166
12 231 11 25 57 86 102 135 45 49 90 102 99 117 l17 28 30 -38 c16 -21 65 -75
107 -120z m-462 -2213 c0 -13 -154 -155 -256 -235 -255 -202 -362 -308 -466
-465 -110 -167 -206 -406 -244 -615 -26 -138 -26 -424 0 -545 36 -167 104
-320 214 -480 79 -116 132 -178 337 -394 301 -318 402 -451 520 -691 62 -127
139 -334 165 -445 7 -30 17 -61 23 -67 11 -15 63 -17 71 -4 3 5 22 63 41 130
65 228 153 419 289 626 87 132 177 241 364 437 275 289 380 423 462 593 92
190 123 327 124 545 0 427 -164 845 -444 1130 -47 48 -161 148 -255 222 -93
75 -197 164 -231 199 l-61 64 32 62 32 63 24 -26 c37 -40 171 -138 252 -186
133 -78 290 -140 677 -268 396 -131 524 -183 651 -265 272 -175 399 -366 444
-669 8 -57 15 -140 15 -185 0 -69 -3 -82 -17 -87 -109 -33 -235 -123 -317
-226 -138 -173 -193 -376 -146 -540 26 -89 126 -191 220 -223 153 -54 348 -14
463 94 67 62 87 105 87 183 -1 131 -89 228 -208 228 -55 0 -64 -15 -56 -92 6
-62 5 -67 -22 -97 -54 -60 -148 -59 -200 1 -24 30 -26 38 -22 98 10 129 88
236 207 281 108 41 275 23 412 -46 152 -77 277 -248 346 -472 24 -79 27 -103
27 -243 0 -140 -3 -164 -27 -245 -31 -99 -82 -215 -129 -287 l-30 -48 -43 59
c-233 316 -700 501 -1165 462 -632 -53 -1198 -407 -1517 -949 -70 -119 -156
-318 -148 -343 3 -9 27 -30 53 -45 26 -15 73 -52 105 -83 100 -95 147 -204
147 -340 0 -138 -44 -246 -143 -348 -59 -62 -60 -63 -53 -109 10 -79 92 -309
155 -438 297 -605 865 -1060 1636 -1309 314 -102 655 -167 1078 -207 l118 -11
82 83 c45 46 101 98 124 115 35 28 43 41 53 88 6 30 10 96 8 145 -2 50 1 90 6
90 5 0 23 -16 41 -35 34 -36 65 -110 65 -156 0 -32 16 -51 59 -68 26 -11 71
-77 71 -104 0 -4 -28 -7 -62 -7 -130 0 -260 -51 -266 -103 -7 -61 -12 -60 368
-54 190 3 412 13 495 21 83 8 179 18 215 22 110 11 58 -11 -115 -49 -274 -60
-509 -94 -728 -104 -148 -7 -167 -13 -167 -57 0 -13 6 -28 13 -33 6 -6 90 -15
186 -22 213 -14 416 -42 627 -86 185 -39 248 -54 241 -61 -2 -3 -74 2 -158 11
-220 21 -503 35 -731 35 -212 0 -228 -4 -228 -54 0 -50 112 -107 223 -114 42
-2 77 -8 77 -12 0 -17 -42 -58 -72 -70 -59 -23 -68 -37 -68 -102 0 -33 -7 -72
-15 -88 -14 -27 -60 -70 -75 -70 -4 0 -8 27 -7 59 0 75 -29 138 -113 241 -34
41 -83 101 -108 134 l-47 59 -98 -7 c-132 -8 -373 -40 -542 -71 -736 -134
-1334 -417 -1746 -825 -257 -255 -460 -591 -564 -937 -46 -150 -45 -167 4
-210 98 -83 161 -226 161 -363 0 -179 -90 -333 -245 -421 -30 -17 -57 -39 -60
-49 -11 -34 83 -242 177 -394 459 -740 1461 -1106 2182 -795 186 80 346 197
449 330 l62 79 23 -28 c60 -73 140 -275 161 -412 56 -349 -117 -728 -392 -859
-104 -50 -174 -65 -273 -59 -136 8 -228 69 -288 190 -41 81 -49 165 -20 207
35 50 125 65 181 31 45 -27 54 -51 51 -133 l-3 -72 60 -3 c78 -3 127 24 170
92 26 44 30 58 30 125 0 65 -4 83 -30 129 -36 66 -70 96 -155 136 -62 30 -70
31 -195 31 -125 0 -133 -1 -195 -31 -87 -41 -130 -80 -170 -156 -61 -114 -53
-260 24 -423 77 -163 206 -297 351 -366 33 -16 66 -29 73 -29 17 0 16 -137 -3
-266 -35 -232 -119 -401 -269 -542 -171 -159 -344 -242 -853 -407 -495 -161
-672 -244 -859 -404 -63 -55 -74 -60 -74 -35 0 8 -10 38 -22 66 l-22 51 67 64
c37 35 134 116 215 180 276 218 428 396 541 633 112 237 155 429 155 690 1
309 -60 507 -232 755 -73 106 -137 180 -362 420 -263 280 -324 357 -432 545
-94 163 -192 405 -228 560 -18 78 -48 107 -88 81 -7 -4 -30 -68 -52 -142 -65
-226 -156 -423 -286 -619 -90 -135 -152 -211 -343 -415 -250 -268 -310 -339
-388 -457 -174 -261 -232 -465 -220 -773 9 -238 62 -444 173 -670 114 -234
231 -371 509 -595 94 -75 198 -164 232 -198 l62 -61 -19 -43 c-11 -24 -20 -51
-20 -60 0 -33 -19 -28 -77 23 -182 160 -391 257 -898 418 -395 126 -559 198
-722 319 -244 182 -356 409 -370 747 l-5 130 49 17 c105 37 222 128 302 236
147 200 187 413 106 572 -28 56 -111 135 -168 160 -192 85 -456 9 -554 -158
-58 -98 -25 -235 71 -299 41 -28 57 -33 107 -33 53 0 59 2 65 24 3 13 1 41 -5
61 -27 100 90 181 189 130 97 -50 69 -241 -52 -350 -120 -108 -318 -111 -523
-8 -28 14 -85 61 -130 107 -67 67 -90 99 -133 186 -30 61 -63 147 -78 205 -23
91 -25 113 -21 240 5 146 17 203 69 332 27 67 108 213 118 213 3 0 26 -28 50
-61 82 -113 241 -240 398 -318 77 -39 239 -94 342 -116 103 -22 391 -31 517
-15 658 81 1261 540 1526 1161 51 119 50 131 -18 174 -165 106 -245 247 -245
430 0 188 84 325 260 424 44 25 66 44 68 58 6 38 -79 272 -149 412 -190 382
-455 673 -847 932 -139 92 -412 232 -572 294 -379 147 -822 242 -1325 285
-191 16 -172 21 -266 -72 -46 -46 -101 -95 -121 -110 -30 -23 -39 -37 -49 -85
-7 -32 -12 -97 -12 -145 0 -49 -2 -88 -6 -88 -4 0 -21 15 -39 33 -32 33 -55
88 -67 160 -5 30 -13 41 -45 57 -42 22 -65 49 -75 91 l-6 26 100 5 c84 4 109
9 158 34 50 25 58 33 61 60 2 17 -3 35 -10 41 -20 16 -191 33 -333 33 -194 0
-331 -17 -537 -66 -59 -15 -116 -23 -125 -19 -27 10 -6 18 118 48 261 64 542
108 779 122 63 4 121 12 128 17 19 16 15 66 -7 78 -11 5 -49 10 -86 10 -87 0
-331 26 -480 51 -125 21 -420 84 -457 98 l-22 8 21 12 c17 9 44 8 118 -4 188
-30 373 -46 617 -52 269 -7 278 -5 278 47 0 56 -153 130 -267 130 -24 0 -43 3
-43 6 0 21 28 48 73 70 29 15 55 32 59 38 4 6 8 38 8 71 0 69 23 116 68 139
l28 15 0 -62 c-1 -94 15 -122 209 -362 l70 -87 110 6 c352 21 784 97 1115 197
388 117 795 324 1065 542 236 190 447 447 589 718 92 176 188 442 174 481 -3
8 -35 28 -70 46 -67 33 -155 113 -195 178 -87 144 -83 363 9 509 37 58 114
131 176 167 54 31 54 31 50 72 -7 60 -116 282 -202 411 -327 490 -859 801
-1465 856 -266 24 -530 -25 -761 -141 -172 -87 -322 -210 -403 -329 l-35 -52
-21 30 c-36 50 -98 181 -124 262 -38 114 -51 214 -44 342 17 354 236 653 530
722 86 20 153 19 233 -6 57 -18 77 -31 129 -82 76 -77 109 -152 102 -236 -3
-46 -9 -59 -36 -83 -26 -23 -41 -28 -82 -28 -64 0 -102 20 -123 64 -14 30 -15
41 -4 81 17 63 5 79 -58 83 -69 4 -130 -29 -169 -93 -27 -43 -30 -57 -30 -129
0 -64 5 -90 22 -121 110 -205 471 -247 656 -76 86 79 124 218 97 353 -39 200
-211 430 -384 512 -39 19 -79 37 -88 40 -38 12 -14 299 38 454 90 268 268 443
605 594 62 28 280 106 484 173 517 171 682 250 870 418 l50 45 28 -60 c15 -34
27 -64 27 -68z m132 -102 c115 -68 130 -80 144 -113 21 -52 85 -60 100 -12 10
34 44 67 99 94 28 14 63 35 78 45 l28 20 87 -84 c48 -47 152 -137 232 -200
251 -200 394 -368 494 -579 209 -442 205 -907 -11 -1270 -25 -42 -55 -89 -67
-104 l-22 -27 -99 88 c-304 270 -537 561 -678 847 -64 129 -123 296 -133 377
-9 74 -19 90 -53 90 -37 0 -47 -14 -55 -80 -12 -88 -71 -255 -140 -395 -125
-253 -284 -463 -537 -710 -85 -82 -173 -165 -196 -183 l-41 -32 -55 82 c-99
149 -152 278 -182 443 -23 121 -16 380 14 507 45 193 135 410 233 558 63 95
202 235 378 379 85 69 193 163 240 208 47 45 86 83 87 83 1 0 26 -14 55 -32z
m248 -1237 c153 -353 388 -663 724 -958 67 -59 122 -110 124 -114 3 -6 -178
-211 -195 -222 -5 -3 -38 30 -75 72 -314 363 -477 645 -558 966 -30 115 -46
139 -88 129 -16 -5 -25 -18 -32 -48 -73 -301 -190 -548 -379 -801 -92 -121
-257 -315 -269 -315 -9 0 -197 209 -197 219 0 5 41 44 90 87 191 165 398 393
527 579 103 149 241 411 264 500 3 14 9 24 11 21 3 -3 27 -54 53 -115z m-22
-458 c41 -118 150 -334 227 -448 77 -115 169 -233 294 -379 l74 -87 -24 -27
c-13 -15 -54 -59 -90 -98 -89 -96 -197 -237 -263 -344 -91 -147 -151 -272
-238 -500 -8 -22 -13 -15 -47 75 -108 284 -273 551 -491 792 l-92 103 19 24
c10 13 61 75 114 137 228 270 360 486 455 741 16 43 31 78 34 78 3 0 16 -30
28 -67z m-1376 -1079 c105 -40 293 -131 309 -150 7 -9 -13 -46 -74 -136 -205
-298 -328 -561 -394 -838 -34 -142 -43 -419 -19 -557 57 -327 299 -775 675
-1247 l55 -70 -65 -59 c-87 -81 -205 -173 -322 -250 l-98 -65 -222 112 c-521
261 -871 330 -1298 256 -376 -64 -712 -217 -1214 -551 -170 -113 -357 -233
-415 -266 -213 -123 -451 -208 -777 -278 -12 -3 -27 -14 -33 -26 -18 -33 10
-66 62 -74 80 -12 310 -75 407 -112 123 -46 297 -128 386 -183 39 -23 149 -98
246 -166 862 -606 1535 -779 2188 -565 145 48 354 140 523 231 l130 71 77 -47
c82 -51 269 -189 340 -252 l45 -39 -131 -174 c-375 -499 -536 -841 -574 -1217
-39 -397 115 -838 463 -1324 44 -62 82 -118 85 -125 9 -24 -228 -146 -403
-206 l-101 -35 -184 110 c-484 290 -729 492 -888 734 -126 190 -182 367 -184
574 0 178 35 314 119 451 37 62 37 85 -3 100 -18 7 -42 1 -107 -26 -329 -136
-653 -124 -926 36 -85 49 -213 152 -284 229 -191 207 -332 422 -590 903 -184
342 -236 418 -385 567 -132 131 -259 221 -426 305 -144 72 -267 115 -415 145
-128 26 -186 26 -200 1 -30 -57 7 -138 94 -208 177 -142 206 -357 69 -504
-141 -151 -384 -169 -527 -38 -97 89 -120 182 -91 373 27 177 8 271 -53 264
-23 -3 -33 -15 -63 -78 -46 -96 -111 -167 -191 -211 -58 -32 -69 -34 -153 -34
-79 0 -97 3 -150 29 -82 41 -142 106 -227 248 -40 67 -94 145 -121 175 l-49
53 49 49 c26 27 83 106 126 174 100 162 151 218 234 259 80 39 157 42 246 8
96 -36 221 -167 242 -252 9 -37 38 -60 71 -56 53 6 66 97 38 272 -9 55 -14
126 -11 157 10 116 74 207 176 253 201 90 413 22 503 -162 28 -57 33 -77 33
-142 0 -111 -31 -171 -145 -280 -90 -86 -110 -117 -110 -171 0 -45 30 -68 82
-63 177 20 366 79 554 174 244 122 458 307 597 517 36 54 127 211 202 348 171
312 273 483 377 627 240 337 481 532 753 610 68 20 102 23 235 23 176 -1 251
-16 422 -87 102 -41 129 -43 149 -7 8 16 5 29 -20 67 -95 148 -139 350 -120
547 25 263 144 494 369 716 160 158 312 269 665 486 230 141 211 137 367 77z
m2932 -1 c346 -198 606 -382 778 -551 254 -249 374 -489 385 -776 8 -193 -27
-346 -112 -486 -39 -65 -40 -84 -2 -101 20 -9 40 -5 116 26 173 69 267 88 436
88 122 0 164 -4 227 -21 191 -52 324 -131 486 -286 218 -210 346 -399 647
-956 176 -326 233 -409 384 -560 213 -213 445 -349 725 -425 103 -28 273 -56
294 -48 21 9 33 50 26 96 -6 36 -19 54 -100 132 -125 121 -149 168 -149 290 0
78 4 97 27 140 115 219 449 268 607 89 71 -81 90 -174 67 -327 -20 -134 -20
-207 -1 -253 13 -31 18 -35 47 -32 30 3 36 9 69 78 49 101 114 171 197 212 59
29 76 33 147 33 156 0 256 -76 383 -291 39 -67 92 -143 117 -169 l46 -47 -48
-48 c-26 -27 -83 -105 -126 -174 -97 -156 -160 -226 -235 -263 -168 -82 -380
17 -480 224 -36 75 -38 78 -72 78 -31 0 -36 -4 -47 -35 -17 -49 -16 -134 3
-248 26 -161 1 -265 -82 -342 -54 -50 -114 -76 -205 -92 -78 -12 -154 -1 -223
34 -60 31 -133 105 -163 167 -24 48 -28 68 -28 141 0 115 27 166 146 280 100
96 119 134 99 196 -11 32 -14 34 -60 34 -120 0 -343 -63 -521 -147 -180 -86
-304 -170 -438 -298 -148 -141 -217 -242 -426 -625 -152 -278 -268 -470 -366
-606 -330 -456 -662 -652 -1055 -623 -109 8 -207 33 -342 86 -108 43 -114 44
-137 29 -33 -22 -32 -35 8 -98 86 -135 122 -288 114 -487 -6 -159 -31 -260
-102 -407 -140 -290 -403 -525 -961 -860 l-191 -114 -104 36 c-111 38 -271
113 -357 167 l-53 33 49 65 c191 253 345 535 429 783 56 168 74 272 80 466 5
152 3 190 -16 287 -59 307 -212 607 -529 1036 l-95 129 64 65 c114 115 429
353 468 353 7 0 76 -33 154 -74 279 -147 533 -243 757 -287 95 -19 148 -23
305 -24 203 0 264 8 458 56 313 78 625 228 1010 486 370 248 432 286 602 371
142 71 386 153 555 187 103 21 120 29 120 58 0 40 -16 48 -131 73 -228 48
-480 142 -669 249 -52 29 -189 119 -305 198 -545 377 -927 554 -1350 628 -168
29 -423 31 -565 6 -256 -47 -509 -143 -837 -321 l-102 -55 -88 55 c-130 82
-256 181 -377 296 l-108 103 113 150 c493 656 647 1114 544 1620 -54 265 -211
593 -437 914 -51 71 -52 74 -33 88 55 43 398 189 449 192 5 1 45 -20 90 -46z
m-2348 -351 c169 -147 329 -358 430 -567 30 -60 54 -114 54 -120 0 -5 -20 -23
-44 -38 -187 -118 -294 -391 -241 -615 35 -146 151 -298 282 -369 40 -21 40
-19 -14 -163 -75 -202 -199 -418 -334 -584 -35 -44 -71 -88 -80 -99 -16 -19
-20 -15 -128 124 -326 419 -517 777 -587 1099 -29 129 -26 371 4 508 64 287
217 600 444 910 l39 53 46 -33 c25 -18 83 -66 129 -106z m1824 -38 c332 -501
450 -960 349 -1357 -68 -266 -241 -585 -533 -981 l-80 -109 -29 34 c-60 71
-179 259 -237 377 -33 67 -83 189 -111 271 l-50 150 43 45 c54 56 106 141 131
215 28 79 34 236 13 325 -31 132 -121 266 -225 337 -61 41 -61 39 10 183 98
196 242 386 400 529 94 84 191 157 202 150 4 -2 57 -79 117 -169z m-3255
-2714 c202 -43 484 -152 714 -277 l94 -51 -114 -55 c-404 -193 -872 -314
-1431 -372 -228 -23 -203 -30 -299 80 -141 160 -169 240 -109 308 59 67 33
107 -69 107 -147 0 -261 -103 -261 -235 0 -24 -9 -37 -47 -65 -73 -55 -88 -81
-88 -156 l0 -64 -65 6 c-131 11 -346 35 -363 40 -13 4 45 49 210 161 263 178
395 259 560 342 276 138 547 221 833 255 85 10 338 -4 435 -24z m5120 6 c275
-49 611 -182 915 -363 63 -38 221 -141 350 -228 l235 -160 -63 -7 c-100 -11
-358 -28 -426 -28 l-63 0 -7 58 c-9 76 -49 157 -92 185 -26 17 -37 34 -50 77
-22 77 -70 148 -123 181 -38 25 -55 29 -113 29 -55 0 -72 -4 -88 -20 -26 -26
-25 -39 4 -79 33 -44 41 -99 26 -176 -10 -51 -17 -68 -39 -81 -14 -10 -60 -50
-101 -90 l-76 -73 -139 14 c-554 58 -1009 177 -1430 374 l-109 52 33 20 c68
41 271 138 394 188 151 61 337 114 462 131 50 6 97 13 105 15 35 9 313 -5 395
-19z m-7340 -949 c77 -20 210 -50 294 -67 85 -17 156 -32 158 -33 1 -2 -50
-13 -115 -25 -64 -13 -199 -43 -300 -68 l-183 -46 -92 37 c-50 21 -136 52
-190 70 -55 18 -95 35 -90 37 4 3 53 20 108 38 55 18 134 48 175 65 41 18 80
32 85 30 6 -1 73 -19 150 -38z m9230 0 c44 -19 118 -46 165 -61 47 -15 92 -30
100 -32 8 -3 -37 -22 -100 -43 -63 -21 -146 -51 -184 -66 l-68 -28 -177 42
c-97 23 -232 53 -301 65 -84 16 -117 25 -100 29 14 4 104 22 200 41 96 20 213
47 260 60 47 13 94 24 105 25 11 0 56 -14 100 -32z m-8632 -401 c8 -82 37
-144 93 -194 24 -23 44 -49 44 -59 0 -32 50 -127 88 -167 l37 -39 -70 38 c-83
45 -207 125 -460 295 -211 143 -209 126 -20 160 125 22 159 26 231 28 l51 2 6
-64z m7944 33 c98 -6 205 -14 238 -17 l60 -7 -260 -176 c-286 -193 -383 -253
-547 -335 -463 -232 -908 -313 -1283 -234 -198 41 -461 143 -693 267 l-103 55
28 17 c55 34 254 121 380 166 312 114 643 189 1033 235 242 29 215 35 310 -72
89 -101 130 -170 130 -219 0 -32 -34 -99 -51 -99 -16 0 -10 -57 8 -71 10 -9
40 -14 84 -13 146 3 256 102 259 234 0 30 7 39 43 64 67 44 92 88 92 158 l-1
58 48 0 c26 0 127 -5 225 -11z m-7007 -25 c499 -56 959 -182 1381 -377 43 -20
80 -40 84 -46 9 -15 -330 -179 -485 -234 -508 -182 -917 -153 -1480 103 -63
28 -118 55 -122 58 -4 4 24 7 61 7 75 0 101 13 101 52 0 13 -10 38 -22 54 -19
25 -23 44 -23 97 0 112 8 131 81 187 35 27 79 67 96 89 l31 38 81 -6 c45 -4
142 -14 216 -22z m2292 -1097 c85 -111 153 -224 219 -362 64 -136 125 -304
112 -314 -4 -4 -34 -24 -66 -45 -118 -79 -200 -198 -237 -342 -52 -202 -1
-386 149 -534 42 -42 89 -85 106 -96 l30 -21 -73 -144 c-86 -171 -173 -297
-301 -431 -87 -91 -232 -218 -250 -218 -10 0 -153 200 -225 315 -264 421 -372
856 -300 1210 56 273 237 615 553 1043 l106 144 59 -64 c32 -34 85 -98 118
-141z m1510 -6 c289 -394 436 -682 499 -981 31 -147 31 -353 0 -500 -60 -284
-196 -573 -412 -875 -98 -137 -104 -145 -114 -145 -17 0 -136 105 -231 201
-112 116 -196 225 -268 348 -47 80 -116 226 -116 246 0 6 16 19 36 30 54 29
156 145 192 217 44 89 62 168 62 268 0 152 -49 281 -147 389 l-53 60 45 137
c76 232 207 477 352 657 29 37 57 67 61 67 4 0 46 -54 94 -119z m-883 -2024
c50 -135 162 -350 251 -485 68 -103 238 -313 283 -351 14 -11 6 -25 -77 -124
-114 -137 -216 -274 -286 -387 -60 -95 -172 -322 -191 -387 -7 -24 -15 -43
-18 -43 -4 0 -19 35 -35 78 -85 229 -260 502 -513 798 l-44 52 77 83 c208 227
371 490 474 766 19 51 37 93 40 93 3 0 20 -42 39 -93z m-625 -1011 c294 -346
463 -654 527 -961 14 -70 24 -85 53 -85 37 0 45 14 75 132 33 130 83 264 144
383 78 150 243 384 403 569 l41 48 102 -109 c57 -59 111 -120 121 -134 l19
-26 -77 -64 c-114 -96 -306 -291 -403 -409 -185 -226 -289 -399 -404 -675
l-16 -40 -33 80 c-155 382 -403 706 -810 1061 l-59 52 22 28 c45 58 214 235
221 232 4 -2 38 -38 74 -82z m-109 -510 c170 -170 251 -267 367 -441 137 -206
257 -480 274 -630 5 -44 12 -60 30 -72 22 -14 26 -14 47 0 19 12 25 28 30 74
14 135 134 416 259 610 99 154 243 325 404 483 141 138 234 220 247 220 13 0
112 -158 154 -246 24 -52 56 -137 70 -191 24 -89 27 -115 27 -288 0 -160 -3
-205 -21 -288 -31 -134 -75 -263 -134 -386 -105 -221 -209 -342 -479 -561 -85
-69 -190 -158 -232 -198 l-77 -74 -33 25 c-18 14 -65 41 -105 61 -43 21 -74
44 -78 56 -8 27 -48 52 -68 44 -9 -3 -27 -20 -41 -38 -13 -18 -57 -50 -98 -71
-40 -21 -83 -47 -95 -58 l-23 -20 -82 79 c-46 44 -144 128 -218 188 -327 265
-461 442 -569 749 -58 165 -75 272 -75 472 -1 189 5 233 51 380 33 104 79 202
143 299 l51 77 62 -52 c34 -29 130 -121 212 -203z m710 -1946 c3 -5 42 -28 86
-51 161 -84 214 -194 177 -372 -11 -55 -11 -60 7 -73 29 -21 48 -17 97 21 115
90 282 100 367 22 30 -28 60 -93 61 -130 1 -94 -112 -199 -262 -243 -56 -17
-73 -51 -43 -84 18 -19 34 -20 522 -20 288 0 503 -4 503 -9 0 -18 -117 -117
-175 -148 -109 -58 -192 -76 -355 -77 -80 -1 -151 -5 -157 -9 -7 -5 -13 -22
-13 -38 0 -26 6 -32 48 -50 57 -24 88 -52 112 -99 21 -41 46 -125 55 -189 l7
-44 -73 60 c-227 186 -469 296 -686 310 -103 7 -123 -1 -123 -46 0 -23 12 -35
74 -75 141 -89 200 -176 276 -406 60 -181 103 -277 153 -343 42 -54 38 -56
-55 -27 -127 39 -224 121 -298 253 -40 69 -72 84 -104 49 -16 -19 -16 -23 5
-83 16 -46 23 -88 23 -149 1 -110 -24 -162 -138 -287 -46 -50 -89 -99 -95
-110 -9 -17 -11 -16 -28 7 -9 14 -53 63 -97 109 -125 134 -159 240 -121 381
34 127 30 150 -26 150 -24 0 -31 -7 -44 -36 -27 -66 -106 -165 -166 -209 -60
-44 -135 -78 -203 -91 l-38 -7 35 49 c55 78 95 166 149 328 27 83 65 180 85
216 43 77 149 185 216 220 82 43 77 103 -9 108 -205 14 -485 -102 -733 -302
l-84 -68 7 49 c20 148 81 250 166 282 37 14 46 21 48 45 2 16 -1 33 -7 39 -7
7 -68 12 -159 13 -168 1 -224 13 -347 74 -56 27 -98 57 -140 99 l-59 61 512 0
512 0 16 25 c26 39 11 62 -54 80 -173 51 -276 173 -242 288 29 100 99 143 219
135 71 -5 166 -43 223 -89 18 -15 34 -20 51 -15 32 8 41 35 28 83 -16 55 -13
143 5 196 22 65 82 128 161 170 37 20 77 43 88 51 24 18 32 19 40 6z"/>
<path d="M10425 11924 c-27 -7 -77 -14 -110 -14 -33 0 -66 -4 -74 -9 -8 -5
-29 -63 -47 -128 -40 -149 -99 -298 -169 -430 -384 -727 -1230 -1250 -2316
-1432 -145 -25 -455 -61 -520 -61 -25 0 -49 -27 -49 -55 0 -35 36 -55 100 -55
163 0 552 -61 815 -127 1154 -289 1932 -951 2150 -1828 9 -38 22 -76 27 -82 6
-7 31 -13 57 -13 25 0 85 -7 133 -17 105 -20 111 -17 128 70 21 109 99 328
160 454 114 231 253 416 462 619 521 503 1314 826 2261 920 53 5 71 11 82 27
34 49 3 97 -62 97 -56 0 -353 40 -488 66 -1085 209 -1897 742 -2255 1479 -74
152 -106 240 -151 409 -15 60 -34 113 -41 118 -17 10 -33 9 -93 -8z m44 -161
c57 -247 199 -537 377 -772 l81 -107 -120 -140 c-137 -161 -360 -404 -442
-484 l-57 -55 -130 134 c-71 74 -194 208 -274 299 l-144 164 52 57 c198 216
380 543 463 831 l33 115 43 6 c105 14 103 15 118 -48z m864 -1254 c67 -51 122
-96 122 -100 0 -4 -67 -51 -150 -104 -237 -153 -627 -434 -664 -478 -7 -10
-11 -27 -7 -39 9 -36 424 -340 728 -533 l107 -68 -77 -55 c-95 -67 -150 -112
-271 -221 l-94 -85 -36 44 c-137 168 -362 419 -540 603 -91 93 -120 117 -142
117 -22 0 -55 -29 -174 -152 -135 -140 -378 -410 -449 -499 l-29 -37 -81 70
c-74 64 -198 160 -257 199 l-23 16 29 18 c154 96 493 329 630 432 230 173 231
151 -7 329 -152 114 -602 421 -641 438 -8 3 -5 9 6 16 48 30 221 166 296 233
l84 74 65 -76 c249 -289 523 -571 555 -571 26 0 378 370 590 621 l91 108 108
-104 c60 -58 164 -146 231 -196z m-1998 -242 c216 -136 664 -451 665 -467 1
-18 -537 -394 -727 -508 l-72 -43 -96 56 c-355 209 -833 379 -1320 469 -87 16
-122 25 -105 29 14 4 77 16 140 27 451 82 930 254 1290 463 52 30 99 52 105
49 5 -3 60 -37 120 -75z m2344 13 c323 -189 802 -361 1241 -445 211 -40 208
-39 110 -54 -453 -68 -1008 -263 -1385 -486 -42 -25 -79 -45 -82 -45 -7 0
-267 166 -388 249 -148 101 -405 291 -405 300 0 18 378 287 622 442 l171 109
31 -19 c17 -10 56 -33 85 -51z m-1192 -992 c187 -201 208 -224 366 -410 l108
-127 -71 -88 c-190 -235 -341 -527 -414 -801 -13 -48 -27 -87 -32 -87 -50 1
-136 19 -138 28 -113 395 -280 704 -521 966 -51 54 -56 63 -44 79 91 117 552
622 568 622 4 0 84 -82 178 -182z"/>
<path d="M6635 15281 c-172 -54 -334 -120 -540 -221 -660 -325 -1142 -742
-1456 -1261 -193 -320 -319 -719 -345 -1096 l-7 -92 -56 50 c-182 162 -465
194 -701 78 -155 -77 -257 -207 -330 -425 -39 -114 -63 -228 -100 -479 -91
-610 -165 -815 -364 -1002 -42 -39 -76 -80 -76 -90 0 -29 20 -43 62 -43 142 0
381 194 604 490 178 237 322 370 480 441 233 106 453 96 645 -30 88 -58 228
-201 312 -319 32 -44 112 -168 179 -273 203 -326 305 -467 363 -505 21 -14 27
-14 52 -1 15 9 40 28 55 44 35 38 98 134 98 151 0 8 -37 55 -83 105 -247 275
-409 558 -525 917 -154 478 -151 1027 8 1501 41 123 122 301 159 348 l19 25
-9 -45 c-4 -24 -8 -101 -9 -170 0 -190 29 -289 123 -414 76 -101 222 -194 362
-230 76 -19 234 -19 309 0 312 81 522 417 577 920 8 74 10 189 5 350 -7 261 2
400 35 554 52 237 178 513 295 644 39 43 46 90 15 107 -26 13 -18 15 -156 -29z
m-46 -163 c-87 -149 -172 -373 -208 -553 -35 -172 -44 -312 -36 -555 7 -253
-3 -398 -39 -560 -48 -214 -118 -352 -241 -475 -164 -164 -342 -202 -554 -118
-234 92 -342 254 -342 513 -1 109 17 216 51 316 23 66 25 95 8 112 -20 20 -53
14 -104 -20 -136 -91 -296 -410 -368 -730 -75 -337 -85 -764 -25 -1077 84
-436 304 -881 594 -1206 36 -40 65 -76 65 -81 0 -5 -13 -24 -28 -42 l-28 -34
-58 74 c-72 90 -142 194 -276 408 -240 386 -380 540 -575 635 -220 108 -501
95 -720 -32 -139 -81 -263 -202 -451 -440 -120 -151 -228 -270 -276 -304 -26
-19 -25 -16 16 68 86 174 127 329 201 773 83 491 136 649 263 782 96 101 222
143 402 135 73 -3 121 -10 158 -25 115 -45 224 -162 258 -278 12 -44 20 -55
41 -60 52 -14 57 0 64 167 12 281 49 499 126 734 274 842 961 1487 2008 1886
55 21 101 39 103 39 1 0 -12 -24 -29 -52z"/>
<path d="M13972 15304 c-32 -22 -27 -50 21 -107 128 -153 213 -333 276 -588
42 -172 51 -287 50 -644 0 -318 5 -390 43 -550 70 -298 229 -529 437 -633 103
-52 171 -66 296 -60 386 18 648 352 596 758 -6 51 -10 95 -7 97 7 7 84 -130
121 -216 181 -424 222 -1036 100 -1504 -91 -350 -250 -667 -472 -942 -45 -55
-102 -120 -127 -145 -30 -29 -46 -53 -46 -69 0 -33 51 -110 111 -166 39 -36
54 -45 72 -40 51 15 158 158 363 485 215 344 303 459 434 563 143 115 289 164
454 154 164 -10 297 -61 429 -166 86 -69 147 -135 280 -301 240 -301 348 -407
492 -482 66 -34 89 -41 140 -42 l60 -1 3 32 c3 25 -3 37 -24 55 -148 124 -207
213 -278 416 -44 126 -75 272 -131 617 -66 407 -121 590 -219 738 -98 148
-299 247 -501 247 -153 0 -313 -59 -410 -150 l-54 -52 -5 34 c-3 18 -8 67 -11
108 -4 41 -17 134 -30 206 -144 783 -631 1441 -1416 1915 -177 106 -475 252
-679 332 -140 55 -201 76 -330 113 -9 2 -26 -3 -38 -12z m308 -181 c284 -106
659 -306 914 -487 229 -164 459 -376 619 -571 372 -454 567 -991 567 -1566 0
-103 3 -131 16 -143 30 -30 84 -14 84 25 0 40 72 159 127 209 94 86 185 120
322 120 209 -1 362 -78 450 -228 82 -140 129 -315 201 -746 68 -406 120 -600
201 -743 16 -29 29 -55 29 -59 0 -13 -89 71 -158 149 -40 45 -120 143 -177
218 -133 173 -234 274 -348 349 -314 207 -665 198 -943 -24 -133 -106 -239
-245 -464 -606 -137 -221 -267 -400 -290 -400 -5 0 -21 16 -36 35 l-26 35 60
64 c330 353 574 899 633 1415 18 159 7 554 -20 710 -64 370 -189 683 -338 842
-58 62 -105 91 -139 87 -48 -6 -51 -27 -16 -140 57 -188 67 -317 33 -450 -36
-140 -98 -231 -207 -303 -112 -75 -286 -117 -398 -96 -259 48 -462 311 -532
689 -12 64 -18 193 -24 492 -9 419 -15 495 -61 675 -36 139 -129 355 -200 464
l-23 33 25 -7 c13 -4 67 -23 119 -42z"/>
<path d="M5246 9035 c-82 -96 -134 -173 -293 -427 -79 -127 -175 -272 -212
-322 -207 -275 -397 -389 -641 -388 -170 1 -318 56 -461 170 -92 73 -147 133
-314 342 -167 209 -218 265 -319 346 -97 78 -202 132 -272 140 -47 6 -53 4
-64 -16 -18 -33 -4 -61 51 -103 62 -47 133 -137 181 -230 81 -155 132 -365
212 -862 44 -273 81 -408 152 -553 45 -92 67 -126 118 -176 72 -71 174 -126
276 -150 82 -20 236 -20 318 -1 87 21 196 78 257 136 l52 49 7 -89 c38 -505
242 -1011 576 -1431 225 -282 589 -584 959 -795 223 -126 585 -288 805 -359
109 -35 143 -41 161 -26 28 23 17 59 -38 125 -107 130 -199 327 -256 547 -47
180 -53 254 -55 653 -3 383 -8 444 -53 610 -114 416 -404 675 -731 651 -231
-17 -431 -150 -527 -351 -52 -109 -69 -204 -62 -354 3 -69 8 -137 12 -151 5
-19 0 -15 -20 15 -84 128 -172 352 -214 540 -46 209 -56 309 -56 585 0 234 3
280 24 395 83 466 304 914 612 1241 44 46 79 90 79 99 0 25 -63 118 -111 164
-63 60 -85 57 -153 -24z m144 -124 c0 -5 -29 -41 -65 -81 -347 -387 -574 -913
-626 -1450 -13 -137 -7 -429 11 -570 33 -253 103 -502 195 -690 65 -132 101
-187 164 -253 61 -65 115 -93 148 -78 22 10 24 17 21 49 -3 20 -16 76 -31 124
-64 212 -58 370 19 534 98 208 398 335 625 264 120 -37 228 -126 314 -259 130
-201 176 -406 176 -791 1 -308 15 -546 39 -675 37 -189 113 -389 210 -554 l32
-54 -29 7 c-115 29 -499 205 -709 327 -683 393 -1168 938 -1368 1540 -85 253
-123 470 -133 767 -6 168 -7 174 -29 184 -30 14 -52 4 -66 -29 -47 -115 -72
-158 -121 -207 -129 -130 -318 -167 -520 -103 -141 45 -212 105 -280 235 -71
138 -118 314 -172 647 -71 440 -118 622 -204 794 l-42 83 45 -38 c63 -52 142
-143 288 -329 146 -185 225 -268 323 -337 160 -113 284 -158 461 -165 253 -11
419 61 615 265 99 102 187 226 359 502 112 180 178 276 248 359 l46 54 28 -32
c15 -17 28 -35 28 -40z"/>
<path d="M15371 9064 c-50 -44 -111 -135 -111 -164 0 -12 35 -60 87 -118 325
-364 532 -808 609 -1307 23 -151 23 -485 0 -655 -41 -303 -146 -627 -251 -776
-27 -39 -27 -39 -21 -9 3 17 8 80 12 140 13 245 -65 437 -230 562 -216 163
-502 187 -719 60 -175 -103 -314 -325 -382 -612 -41 -170 -47 -254 -49 -640
-2 -343 -3 -378 -24 -475 -60 -274 -167 -507 -323 -702 -28 -34 -20 -75 16
-84 34 -8 277 70 460 148 909 387 1568 998 1856 1720 78 196 147 482 163 678
4 41 9 92 12 113 l6 37 50 -45 c69 -62 189 -120 279 -135 88 -15 253 -8 322
14 97 31 205 96 263 158 41 43 97 131 129 203 59 134 95 288 140 595 91 615
187 863 398 1024 26 20 37 36 37 55 0 56 -34 63 -133 30 -148 -50 -326 -209
-524 -468 -201 -264 -337 -385 -515 -459 -209 -87 -410 -78 -588 25 -82 48
-255 219 -337 333 -33 47 -122 184 -198 305 -161 257 -227 354 -297 430 -60
66 -82 69 -137 19z m118 -149 c57 -69 161 -226 311 -465 214 -342 351 -488
545 -581 101 -49 193 -69 320 -69 310 0 525 137 839 535 111 140 281 325 298
325 5 0 -9 -35 -31 -77 -84 -168 -127 -334 -196 -743 -89 -532 -151 -712 -289
-838 -134 -123 -398 -156 -571 -72 -106 51 -181 138 -225 257 -25 70 -47 84
-85 59 -24 -16 -25 -20 -25 -144 0 -466 -151 -962 -415 -1362 -297 -451 -779
-850 -1354 -1122 -142 -67 -451 -192 -458 -185 -2 3 7 23 20 44 65 103 140
282 181 434 54 199 58 238 66 684 7 374 10 431 29 518 47 215 122 374 232 492
181 193 387 227 635 105 265 -130 350 -423 229 -793 -14 -43 -25 -84 -25 -91
0 -24 37 -48 62 -41 149 47 341 387 422 748 45 199 57 311 63 567 4 198 2 272
-12 380 -61 486 -284 973 -618 1352 l-68 78 27 35 c14 19 30 35 33 35 4 0 31
-29 60 -65z"/>
</g>
</svg>
