<?xml version="1.0" standalone="no"?>
<!DOCTYPE svg PUBLIC "-//W3C//DTD SVG 20010904//EN"
 "http://www.w3.org/TR/2001/REC-SVG-20010904/DTD/svg10.dtd">
<svg version="1.0" xmlns="http://www.w3.org/2000/svg"
 width="2000.000000pt" height="1991.000000pt" viewBox="0 0 2000.000000 1991.000000"
 preserveAspectRatio="xMidYMid meet">

<g transform="translate(0.000000,1991.000000) scale(0.100000,-0.100000)"
fill="#000000" stroke="none">
<path d="M9915 18178 c-319 -218 -560 -424 -773 -659 l-114 -127 -131 63
c-344 166 -718 247 -1132 246 -450 -1 -825 -90 -1211 -290 -548 -284 -942
-734 -1133 -1295 l-47 -139 -159 -28 c-88 -15 -239 -41 -335 -58 -407 -72
-679 -81 -768 -24 -27 17 -58 9 -73 -19 -8 -15 -6 -31 12 -71 28 -67 37 -235
20 -403 -18 -178 -132 -830 -148 -843 -4 -4 -35 -15 -68 -25 -734 -214 -1323
-842 -1559 -1664 -174 -605 -102 -1327 192 -1909 17 -34 28 -63 23 -65 -25 -9
-248 -218 -344 -323 -200 -217 -476 -584 -477 -633 0 -38 175 -288 347 -494
104 -125 267 -292 385 -394 93 -81 97 -87 83 -107 -7 -12 -36 -72 -64 -134
-448 -994 -248 -2176 493 -2919 243 -242 549 -431 867 -535 106 -34 130 -46
134 -63 26 -131 119 -693 131 -801 22 -187 16 -350 -16 -422 -21 -50 -21 -54
-6 -78 20 -31 30 -31 92 -2 45 20 63 22 234 21 121 0 223 -6 295 -17 189 -29
689 -119 704 -126 8 -4 24 -41 36 -81 157 -535 535 -995 1070 -1305 718 -415
1620 -454 2398 -104 62 28 123 57 136 66 15 9 26 11 30 5 23 -37 222 -248 310
-330 234 -216 599 -492 651 -492 24 0 154 85 309 203 203 153 397 330 551 502
l111 123 132 -63 c342 -165 717 -246 1127 -246 448 0 834 92 1217 290 234 122
421 259 604 442 237 238 418 532 529 858 l45 134 160 28 c653 113 741 124 918
117 88 -4 123 -10 166 -28 55 -24 73 -22 95 12 7 11 3 31 -15 69 -22 51 -24
65 -24 229 0 96 6 216 13 265 19 139 123 717 133 742 5 13 16 23 25 23 37 0
237 75 369 139 243 118 422 248 620 452 376 387 610 872 692 1434 24 165 24
533 -1 700 -42 296 -104 507 -229 784 l-61 134 75 65 c117 103 306 297 410
422 166 199 339 444 339 480 0 36 -173 281 -339 480 -104 124 -291 318 -410
422 l-74 66 60 133 c114 252 172 440 213 689 72 445 33 905 -115 1330 -43 124
-153 355 -226 476 -279 463 -715 817 -1207 981 -75 25 -139 47 -141 49 -3 3
-44 227 -100 559 -59 346 -66 578 -20 684 23 55 21 73 -13 95 -11 7 -31 3 -69
-14 -114 -50 -400 -37 -794 37 -104 19 -248 45 -320 57 l-129 22 -47 138
c-194 571 -602 1027 -1178 1316 -274 137 -513 212 -826 256 -146 21 -502 24
-650 5 -305 -39 -613 -129 -870 -255 -49 -24 -92 -40 -95 -36 -19 31 -237 262
-312 330 -244 225 -598 491 -651 489 -12 0 -49 -18 -82 -41z m228 -167 c218
-142 497 -396 726 -658 37 -43 71 -73 82 -73 11 0 70 25 132 56 561 282 1213
346 1822 179 167 -46 295 -94 450 -170 564 -276 994 -775 1151 -1337 14 -51
34 -100 45 -109 10 -9 44 -20 76 -24 32 -4 192 -31 355 -61 316 -57 532 -84
675 -84 l88 0 -26 -25 c-21 -22 -41 -28 -117 -37 -129 -17 -280 -1 -597 62
-143 29 -297 54 -341 57 -78 5 -82 5 -89 -16 -4 -12 -2 -79 5 -149 6 -70 13
-156 16 -190 5 -58 9 -65 36 -80 91 -51 211 -136 271 -191 37 -35 67 -67 67
-71 0 -4 -19 -3 -42 1 -24 5 -102 18 -175 30 -107 18 -135 20 -147 10 -17 -14
-19 -24 -36 -171 -28 -232 -110 -553 -136 -527 -2 1 6 32 17 67 43 138 78 340
94 542 6 74 5 78 -20 94 -21 13 -40 15 -117 9 -334 -23 -604 -140 -814 -350
-137 -137 -242 -301 -369 -574 -110 -236 -129 -273 -188 -361 -133 -197 -348
-351 -607 -434 -179 -58 -253 -69 -480 -71 -198 -2 -205 -3 -219 -24 -13 -20
-12 -26 15 -63 46 -65 187 -173 298 -228 144 -70 204 -84 364 -84 l132 0 10
-35 c29 -114 51 -206 65 -281 8 -46 21 -88 28 -92 6 -4 28 -10 47 -14 183 -32
372 -83 367 -99 -14 -34 -17 -149 -8 -219 25 -179 110 -349 245 -493 62 -66
84 -83 106 -83 16 0 32 6 36 12 5 7 9 100 9 208 2 216 14 304 66 468 74 231
210 438 377 573 102 82 182 127 405 228 107 49 230 109 273 135 436 262 637
578 670 1054 6 92 5 104 -12 123 -17 19 -26 20 -99 14 -197 -16 -483 -70 -590
-111 -18 -7 -18 -6 -6 9 28 35 301 101 546 132 71 9 136 22 143 28 17 13 11
77 -19 232 -28 148 -28 148 37 85 66 -65 131 -153 182 -247 l37 -68 80 -7 c44
-4 131 -12 192 -18 116 -12 147 -9 156 14 9 22 -11 156 -58 396 -69 357 -82
478 -65 615 9 71 16 95 34 113 l23 23 6 -158 c8 -187 21 -280 87 -632 27 -146
52 -291 56 -321 7 -62 27 -100 51 -100 39 0 307 -99 422 -156 373 -185 685
-481 914 -868 433 -732 462 -1647 76 -2418 -33 -65 -59 -126 -59 -136 0 -11
27 -43 63 -73 278 -239 508 -494 701 -777 l64 -93 -32 -55 c-42 -76 -216 -308
-312 -419 -104 -120 -267 -281 -386 -384 -61 -52 -98 -90 -98 -102 0 -11 25
-69 55 -129 359 -717 363 -1555 10 -2275 -126 -257 -259 -439 -472 -645 -251
-243 -536 -410 -852 -502 -58 -16 -113 -38 -122 -48 -9 -10 -19 -45 -23 -77
-3 -32 -29 -182 -56 -333 -72 -399 -83 -492 -84 -690 l-1 -175 -190 -1 c-213
-1 -304 -11 -660 -79 -126 -24 -268 -49 -315 -56 -110 -15 -125 -25 -140 -91
-20 -85 -79 -245 -130 -353 -187 -400 -526 -752 -945 -982 -261 -144 -563
-245 -870 -289 -146 -22 -503 -25 -645 -6 -278 37 -575 125 -817 241 -80 39
-154 71 -163 71 -10 0 -44 -30 -76 -68 -249 -286 -475 -490 -767 -693 l-98
-67 -82 50 c-232 141 -548 419 -771 676 -49 57 -96 102 -106 102 -9 0 -82 -31
-162 -70 -483 -233 -1019 -309 -1548 -219 -683 116 -1271 497 -1616 1046 -97
155 -187 361 -244 560 -19 68 -23 73 -53 78 -18 2 -75 12 -127 20 -52 9 -192
34 -310 55 -337 61 -437 73 -635 74 l-180 1 -1 185 c-1 210 -12 301 -84 685
-26 143 -51 287 -55 320 -8 65 -27 105 -50 105 -40 0 -305 97 -420 154 -225
111 -393 235 -581 427 -455 467 -704 1125 -681 1794 14 390 102 734 273 1077
30 59 54 116 54 127 0 10 -25 39 -57 67 -265 222 -508 490 -701 772 l-70 103
50 82 c145 238 413 543 677 772 57 49 101 95 101 105 0 9 -25 66 -55 126 -313
625 -357 1333 -125 2009 240 696 794 1234 1469 1426 96 27 106 37 116 124 4
33 29 180 56 327 69 377 82 486 83 688 l1 176 123 -4 c158 -6 329 11 567 54
105 19 271 48 370 65 99 17 191 36 204 42 19 10 30 35 58 127 76 254 184 464
352 685 107 142 342 361 508 473 307 208 686 353 1068 409 166 24 515 24 680
-1 278 -40 546 -121 783 -237 78 -38 150 -69 161 -69 10 0 42 28 72 63 239
278 494 508 777 702 l93 63 35 -21 c20 -12 72 -46 117 -76z m4817 -2372 c318
-63 383 -72 550 -72 l155 0 1 -191 c1 -188 1 -194 52 -446 28 -140 54 -276 57
-301 l7 -45 -59 7 c-32 4 -90 8 -128 8 l-70 1 -44 75 c-68 115 -163 228 -246
294 -41 33 -81 64 -88 68 -7 4 -30 31 -51 58 -88 119 -217 231 -347 304 l-56
31 -7 115 c-4 64 -10 123 -13 131 -7 20 21 16 287 -37z m-518 -644 c-8 -137
-51 -353 -98 -500 -30 -90 -100 -241 -137 -296 -33 -49 -40 -72 -25 -91 26
-33 53 -30 99 8 120 101 480 208 802 237 36 4 50 1 54 -10 9 -24 -24 -223 -52
-313 -88 -280 -277 -507 -559 -672 -39 -23 -159 -82 -266 -131 -241 -109 -294
-139 -406 -225 -308 -238 -490 -610 -511 -1041 l-6 -135 -33 38 c-18 21 -51
72 -72 114 -81 156 -108 308 -78 436 19 80 15 100 -22 115 -37 15 -242 67
-322 82 -36 6 -71 15 -79 19 -8 5 -24 53 -37 120 -34 165 -74 297 -95 316 -17
15 -24 16 -60 5 -163 -49 -364 -7 -544 114 l-90 60 135 7 c370 18 710 158 940
388 116 116 169 199 329 521 76 152 164 316 197 365 152 229 365 392 614 468
90 28 245 56 295 53 29 -2 29 -3 27 -52z m471 -6 c117 -28 129 -34 139 -58 14
-38 57 -227 64 -288 l7 -51 -49 -7 c-131 -17 -308 -49 -393 -71 -52 -13 -96
-22 -98 -20 -2 2 8 48 21 102 14 54 35 159 46 234 11 74 23 150 26 169 l5 33
52 -6 c29 -4 110 -21 180 -37z"/>
<path d="M9836 17798 c-131 -132 -226 -245 -343 -408 -96 -134 -173 -262 -173
-287 0 -14 19 -39 53 -70 265 -240 445 -512 527 -798 45 -155 48 -159 96 -163
25 -2 45 2 51 10 6 7 20 51 32 97 77 300 258 590 511 822 61 55 90 89 90 104
0 30 -177 295 -301 451 -56 71 -158 184 -226 252 -104 103 -128 122 -154 122
-26 0 -51 -20 -163 -132z m297 -118 c125 -129 293 -342 382 -485 l47 -75 -113
-118 c-219 -225 -331 -405 -443 -707 -6 -16 -14 -3 -37 60 -92 249 -263 505
-465 694 l-73 68 76 114 c164 246 447 578 494 579 4 0 63 -58 132 -130z"/>
<path d="M8362 17308 c-20 -20 -14 -46 28 -115 22 -37 53 -101 70 -143 75
-196 56 -342 -61 -466 l-53 -55 -23 86 c-77 290 -286 493 -587 570 -181 46
-506 46 -724 1 -288 -61 -570 -187 -809 -363 -276 -202 -494 -479 -613 -778
-35 -87 -37 -106 -12 -128 15 -14 31 -15 127 -5 166 15 452 5 547 -20 152 -41
253 -108 299 -199 33 -66 48 -83 74 -83 33 0 42 17 55 103 14 97 41 180 86
273 148 303 438 393 847 262 37 -12 67 -24 66 -27 0 -4 -44 -34 -97 -69 -383
-249 -673 -672 -748 -1092 -23 -126 -23 -354 -1 -475 95 -524 470 -883 1039
-997 91 -18 147 -22 288 -22 272 0 463 45 715 168 165 81 259 143 263 174 2
14 -22 74 -56 145 -33 67 -77 167 -97 222 -58 161 -60 164 -108 151 -17 -4
-27 -21 -45 -81 -19 -64 -32 -85 -75 -130 -124 -127 -254 -94 -632 159 -104
70 -227 146 -272 167 -105 52 -211 74 -284 61 -30 -6 -55 -9 -57 -7 -8 8 64
172 99 224 138 207 356 285 657 234 139 -23 137 -27 122 143 -23 259 21 652
105 954 80 285 217 595 373 844 34 54 62 106 62 115 0 26 -27 46 -120 89 -136
62 -333 121 -405 122 -17 0 -36 -5 -43 -12z m254 -142 c54 -19 120 -44 146
-55 l47 -22 -41 -67 c-23 -37 -75 -130 -116 -207 -40 -77 -70 -131 -66 -120
14 39 16 206 4 268 -10 50 -43 147 -77 225 -7 16 -11 17 103 -22z m-911 -75
c275 -73 459 -253 525 -515 11 -44 20 -96 20 -116 0 -74 50 -80 142 -17 55 38
118 104 155 163 6 10 -3 -18 -22 -63 -160 -386 -257 -912 -238 -1288 l6 -106
-29 8 c-16 4 -92 8 -169 7 -124 0 -149 -4 -220 -27 -103 -34 -168 -73 -244
-143 -111 -102 -197 -259 -237 -430 -21 -94 -16 -136 19 -148 23 -9 31 -6 60
21 123 117 227 92 579 -139 305 -201 409 -248 547 -248 67 0 86 4 139 31 39
19 79 50 110 85 l49 55 23 -58 c13 -32 43 -97 66 -144 l43 -86 -77 -46 c-326
-196 -727 -269 -1079 -198 -278 57 -490 173 -673 368 -135 144 -224 313 -268
511 -24 108 -23 365 1 482 44 205 136 418 254 582 126 177 379 401 581 514 93
53 113 83 73 115 -29 24 -166 75 -281 105 -131 35 -344 44 -454 20 -148 -33
-272 -116 -361 -241 -54 -75 -120 -213 -136 -283 l-12 -50 -56 46 c-147 120
-380 172 -703 158 -121 -5 -148 -4 -148 7 0 25 96 203 161 298 80 118 266 310
384 399 277 207 591 334 951 385 148 21 415 14 519 -14z"/>
<path d="M11445 17290 c-118 -31 -199 -62 -307 -116 -85 -43 -87 -58 -19 -163
171 -268 321 -616 400 -926 70 -278 94 -490 89 -794 -4 -276 -9 -262 103 -240
41 8 128 14 194 14 98 0 132 -5 185 -23 133 -46 223 -113 296 -223 43 -65 111
-216 101 -225 -2 -2 -29 1 -59 6 -129 24 -266 -31 -553 -225 -343 -231 -473
-273 -604 -193 -41 26 -86 95 -108 168 -21 68 -29 80 -58 80 -32 0 -48 -24
-84 -130 -17 -52 -63 -159 -102 -238 -39 -79 -68 -149 -65 -157 17 -45 309
-202 473 -255 187 -60 295 -75 533 -75 230 0 294 9 465 62 313 98 585 324 728
605 84 163 117 305 124 528 4 139 2 184 -16 288 -46 274 -157 504 -356 741
-110 130 -325 319 -449 392 -20 11 -36 25 -36 30 0 10 113 44 209 64 256 53
453 5 594 -144 102 -108 197 -325 197 -450 0 -50 25 -83 58 -79 21 2 34 15 58
61 60 114 147 175 309 218 98 26 380 37 550 20 103 -9 111 -9 129 9 18 17 18
23 7 62 -22 78 -149 321 -218 418 -84 118 -288 325 -408 413 -333 245 -743
387 -1170 404 -206 8 -353 -13 -497 -71 -102 -41 -170 -88 -263 -181 -75 -75
-99 -106 -138 -185 -26 -52 -55 -128 -65 -167 -9 -40 -21 -73 -26 -73 -17 0
-86 81 -111 129 -41 82 -51 162 -31 261 20 97 59 194 110 275 38 58 44 83 24
103 -19 19 -74 14 -193 -18z m45 -95 c0 -3 -8 -22 -19 -43 -45 -88 -73 -204
-75 -302 0 -52 3 -108 7 -125 4 -16 -20 22 -54 85 -54 103 -105 192 -147 258
-14 21 -12 23 44 48 54 24 219 82 237 83 4 1 7 -1 7 -4z m1410 -100 c295 -53
573 -170 823 -345 118 -83 323 -288 409 -410 59 -83 178 -298 178 -322 0 -5
-66 -5 -147 -2 -330 15 -575 -42 -715 -165 l-46 -41 -7 32 c-4 18 -21 67 -38
108 -79 192 -187 321 -328 388 -114 55 -178 66 -351 59 -159 -5 -261 -27 -433
-93 -77 -30 -96 -41 -101 -60 -9 -37 1 -51 58 -80 142 -71 309 -197 439 -331
498 -510 586 -1222 213 -1713 -307 -404 -926 -565 -1482 -384 -81 26 -340 150
-381 183 l-24 18 21 34 c19 32 77 159 101 222 l11 29 52 -57 c69 -76 132 -107
228 -113 151 -9 259 37 554 235 292 198 390 239 494 208 27 -8 67 -31 88 -50
42 -39 64 -43 89 -18 22 21 14 94 -22 208 -86 273 -256 450 -493 512 -65 17
-233 23 -332 13 l-47 -5 -4 235 c-8 425 -69 726 -236 1160 -17 44 -17 50 -3
30 62 -90 178 -180 231 -180 36 0 51 22 51 77 0 55 35 175 77 260 42 87 137
194 221 249 72 49 203 98 312 118 111 20 404 15 540 -9z"/>
<path d="M9192 16888 c-20 -26 -115 -256 -157 -383 -102 -308 -145 -570 -145
-891 0 -442 97 -889 279 -1294 80 -177 121 -244 150 -248 55 -8 286 265 423
498 112 190 205 447 196 541 -3 32 -7 35 -74 60 -40 14 -87 36 -106 47 -47 29
-131 120 -156 168 -81 160 -69 355 32 492 39 53 69 80 161 145 14 10 25 27 25
38 0 43 -168 347 -273 494 -60 84 -164 208 -240 288 -56 58 -93 72 -115 45z
m219 -320 c81 -106 185 -267 244 -380 l49 -95 -86 -84 c-68 -67 -93 -99 -121
-159 -80 -170 -77 -337 8 -499 64 -120 165 -214 282 -260 56 -22 56 -21 12
-156 -68 -204 -195 -423 -360 -619 -46 -55 -89 -101 -95 -103 -18 -6 -131 246
-193 433 -242 728 -218 1392 74 2079 l17 40 55 -60 c31 -33 82 -95 114 -137z"/>
<path d="M10677 16829 c-142 -148 -282 -341 -394 -544 -75 -136 -106 -211 -99
-237 4 -13 32 -39 67 -62 113 -72 187 -204 197 -348 13 -214 -112 -400 -316
-469 -90 -30 -91 -32 -59 -158 78 -308 251 -602 519 -884 46 -49 60 -58 84
-55 27 3 36 16 109 163 155 312 246 617 302 1015 24 175 24 568 0 735 -39 266
-126 567 -230 795 -48 105 -55 115 -81 118 -25 3 -39 -7 -99 -69z m148 -235
c137 -361 192 -676 182 -1049 -12 -439 -106 -838 -294 -1236 -25 -55 -49 -99
-54 -99 -12 0 -104 106 -185 212 -126 168 -220 344 -277 518 -44 136 -48 121
47 169 151 74 254 202 296 366 24 92 25 155 5 248 -26 122 -129 281 -220 337
l-36 22 61 116 c99 188 225 371 347 502 l57 62 14 -28 c8 -15 34 -78 57 -140z"/>
<path d="M5518 15783 c-16 -19 -43 -155 -54 -278 -10 -106 3 -111 171 -69 56
14 118 18 310 18 l240 1 3 34 c3 29 -3 41 -45 83 -114 117 -304 193 -559 222
-41 5 -54 3 -66 -11z m189 -108 c88 -18 165 -45 233 -81 l55 -29 -75 -2 c-97
-3 -283 -22 -322 -34 l-31 -8 6 60 c10 94 16 109 42 109 13 0 54 -7 92 -15z"/>
<path d="M14335 15784 c-176 -27 -317 -82 -432 -168 -75 -57 -110 -107 -96
-139 10 -22 13 -22 249 -23 192 0 253 -4 309 -18 176 -44 183 -40 165 102 -18
146 -38 235 -57 250 -20 14 -21 14 -138 -4z m84 -163 c17 -107 22 -100 -61
-84 -40 8 -138 17 -218 21 l-145 7 75 36 c95 46 227 84 306 88 31 1 31 1 43
-68z"/>
<path d="M5265 15783 c-16 -3 -111 -22 -210 -43 -99 -21 -229 -46 -290 -55
-141 -22 -372 -24 -441 -6 -28 8 -63 11 -79 7 -31 -8 -30 9 -6 -181 17 -131
-4 -333 -65 -615 -41 -187 -65 -369 -53 -393 10 -18 17 -19 98 -12 47 4 136
10 196 14 61 4 115 10 122 14 6 4 28 37 48 75 48 87 121 184 184 247 60 58 60
57 32 -90 -31 -161 -35 -219 -18 -234 9 -7 84 -21 168 -32 185 -24 312 -49
443 -90 152 -47 173 -32 132 94 -45 137 -85 345 -111 570 -6 56 -24 87 -50 87
-7 0 -80 -11 -161 -25 -81 -14 -154 -25 -163 -25 -21 0 80 102 156 157 34 24
93 61 130 81 l68 37 7 80 c4 44 12 131 18 192 15 151 14 153 -63 152 -34 -1
-75 -4 -92 -6z m54 -150 c-4 -32 -8 -91 -8 -130 l-1 -73 -47 -24 c-127 -64
-305 -218 -367 -317 -15 -24 -49 -59 -75 -77 -111 -76 -253 -239 -316 -363
l-24 -46 -108 -7 c-59 -4 -119 -10 -132 -13 -23 -6 -23 -5 -16 48 4 30 25 144
47 254 55 281 68 379 68 542 l0 142 163 0 c165 -1 293 14 477 53 52 11 145 30
205 43 153 33 142 35 134 -32z m6 -660 c12 -110 45 -298 69 -391 21 -84 22
-92 6 -87 -57 18 -253 57 -355 71 -185 24 -169 16 -161 77 7 61 50 250 64 288
10 24 22 30 139 57 140 34 165 39 205 41 25 1 27 -2 33 -56z"/>
<path d="M5467 15133 c-21 -24 -21 -43 -1 -213 21 -181 57 -348 108 -503 33
-99 39 -127 27 -122 -167 65 -412 125 -581 144 -226 24 -224 24 -245 1 -18
-20 -18 -28 -7 -158 15 -189 48 -308 127 -467 76 -153 167 -272 282 -370 151
-130 266 -196 667 -384 323 -152 525 -377 637 -713 57 -171 72 -272 74 -492 1
-194 2 -200 23 -214 20 -13 25 -12 60 11 118 83 264 323 304 499 13 59 17 229
5 270 l-7 26 148 36 c81 19 167 38 192 42 75 11 85 22 104 121 16 78 39 177
66 284 l10 36 67 -10 c147 -22 345 28 503 125 113 69 240 191 240 229 0 16 -7
32 -16 37 -9 5 -76 7 -148 4 -157 -6 -300 9 -451 48 -229 58 -406 158 -571
324 -121 121 -204 244 -271 399 -129 301 -242 490 -387 643 -231 246 -471 355
-836 379 -96 6 -107 5 -123 -12z m203 -93 c274 -34 491 -141 677 -333 139
-145 248 -322 358 -584 86 -207 185 -353 337 -498 236 -227 553 -355 918 -372
l124 -6 -39 -34 c-22 -19 -85 -57 -140 -83 -158 -76 -289 -96 -422 -65 -34 8
-69 12 -77 9 -8 -3 -21 -22 -29 -42 -15 -39 -67 -245 -87 -345 -6 -32 -17 -60
-23 -61 -7 -2 -68 -15 -137 -30 -176 -37 -288 -72 -294 -94 -3 -10 1 -49 9
-87 8 -39 15 -89 15 -113 0 -61 -26 -178 -56 -253 -25 -62 -121 -219 -134
-219 -4 0 -10 57 -13 128 -20 450 -232 855 -562 1074 -55 37 -215 123 -355
192 -315 154 -433 230 -560 362 -176 182 -274 388 -309 647 -17 121 -18 117
34 117 126 0 479 -77 641 -139 69 -27 101 -45 202 -117 18 -14 28 -15 47 -6
37 17 34 64 -7 110 -88 101 -195 452 -228 747 -5 50 -10 93 -10 98 0 9 19 9
120 -3z"/>
<path d="M9972 14793 c-14 -13 -23 -42 -31 -103 -36 -249 -178 -511 -408 -751
-46 -49 -73 -85 -73 -99 0 -66 479 -580 540 -580 53 0 540 520 540 576 0 9
-35 55 -78 102 -111 124 -152 175 -216 275 -105 161 -179 352 -193 499 -5 54
-10 72 -27 83 -26 19 -30 19 -54 -2z m46 -351 c38 -126 185 -363 322 -520 l81
-92 -63 -78 c-34 -42 -129 -144 -210 -227 l-147 -150 -136 135 c-129 128 -280
301 -280 319 0 5 37 53 83 106 134 157 263 366 313 508 7 20 16 37 19 37 4 0
12 -17 18 -38z"/>
<path d="M4330 14435 c-150 -22 -199 -35 -210 -56 -13 -23 2 -146 31 -264 54
-214 214 -437 285 -397 17 9 19 31 20 254 1 192 5 257 18 308 46 179 42 183
-144 155z m50 -108 c0 -7 -5 -40 -11 -73 -6 -32 -14 -124 -18 -204 l-6 -145
-38 77 c-39 80 -87 246 -87 304 0 32 2 33 48 39 26 4 52 8 57 10 24 8 55 4 55
-8z"/>
<path d="M15509 14434 c-11 -13 -9 -34 12 -127 22 -101 24 -135 24 -347 l0
-235 33 -3 c40 -4 76 23 133 98 86 113 145 274 170 464 13 103 9 111 -62 127
-56 13 -236 39 -270 39 -15 0 -32 -7 -40 -16z m208 -105 c62 -11 63 -11 63
-44 0 -57 -48 -225 -87 -304 l-38 -76 -6 145 c-4 80 -12 172 -18 204 -18 98
-23 94 86 75z"/>
<path d="M3885 14326 c-725 -279 -1223 -1078 -1192 -1911 4 -102 12 -177 27
-234 42 -172 145 -343 265 -442 76 -63 218 -134 312 -157 40 -9 73 -20 73 -24
0 -5 -18 -26 -40 -48 -83 -83 -205 -120 -329 -101 -91 14 -207 59 -289 111
-68 43 -92 49 -112 25 -31 -38 28 -270 115 -452 65 -136 69 -138 184 -65 345
220 763 382 1162 451 203 35 342 44 571 39 180 -5 220 -3 229 9 9 11 8 35 -4
106 -53 297 21 514 226 657 59 42 223 118 232 108 2 -2 -1 -25 -7 -52 -24
-114 36 -280 173 -484 40 -59 97 -143 127 -187 71 -105 138 -246 151 -316 24
-138 -42 -233 -198 -286 -73 -24 -87 -38 -78 -75 6 -22 22 -31 114 -62 60 -20
172 -69 251 -107 79 -39 150 -68 157 -65 46 17 201 310 254 477 54 171 72 280
78 469 6 196 -8 329 -53 486 -32 114 -138 329 -206 419 -192 254 -451 409
-766 461 -144 24 -400 14 -546 -20 -280 -66 -534 -213 -766 -446 -105 -105
-203 -223 -276 -334 l-39 -59 -23 74 c-59 189 -74 385 -38 504 54 179 171 300
368 378 78 32 179 57 228 57 49 0 82 25 78 58 -2 21 -15 33 -58 55 -109 55
-178 151 -222 308 -24 88 -35 403 -20 559 8 76 7 99 -5 118 -17 27 -32 27
-108 -2z m8 -263 c-12 -332 43 -569 164 -703 l43 -48 -32 -7 c-124 -27 -329
-144 -411 -234 -57 -64 -112 -171 -133 -257 -44 -182 -1 -478 102 -712 22 -50
25 -53 56 -50 30 3 37 11 81 93 160 295 445 568 742 710 375 178 766 186 1100
20 129 -63 216 -127 308 -224 162 -172 261 -377 313 -646 24 -124 24 -374 0
-510 -33 -185 -113 -394 -214 -557 -19 -32 -36 -58 -38 -58 -1 0 -52 24 -112
53 -59 30 -123 59 -141 65 l-33 12 56 50 c73 67 108 139 114 233 9 144 -46
269 -241 559 -69 101 -139 211 -156 246 -40 80 -64 173 -56 215 8 39 46 105
74 131 25 23 27 49 4 71 -21 22 -94 14 -208 -22 -365 -115 -550 -371 -532
-734 3 -63 7 -121 9 -127 2 -7 -66 -12 -232 -15 -426 -8 -726 -69 -1160 -236
-45 -17 -50 -17 -30 -3 86 60 180 181 180 233 0 35 -18 45 -95 52 -140 12
-307 92 -410 196 -109 110 -178 262 -205 450 -16 104 -8 383 14 499 101 545
391 998 817 1275 77 51 242 137 260 137 4 0 5 -71 2 -157z m-1135 -2682 c88
-45 204 -73 302 -75 52 0 109 3 125 7 17 4 -24 -21 -90 -56 -66 -35 -151 -83
-190 -107 -38 -23 -73 -44 -78 -47 -10 -6 -60 107 -92 207 -14 45 -25 83 -25
86 0 7 10 4 48 -15z"/>
<path d="M16007 14328 c-12 -19 -13 -42 -5 -118 5 -52 7 -180 5 -285 -4 -152
-9 -206 -26 -269 -43 -160 -104 -247 -216 -309 -46 -25 -61 -39 -63 -58 -4
-36 14 -47 98 -59 153 -22 324 -96 429 -186 59 -51 117 -143 144 -229 30 -97
30 -272 -2 -400 -27 -112 -51 -185 -59 -184 -4 0 -35 44 -70 97 -250 385 -676
675 -1097 748 -132 22 -350 22 -469 0 -265 -51 -506 -178 -666 -354 -253 -276
-388 -700 -351 -1103 13 -148 61 -350 110 -468 65 -155 184 -361 221 -381 14
-8 52 6 167 63 82 39 189 85 238 102 109 36 127 49 123 89 -3 26 -8 31 -48 41
-73 19 -115 41 -160 81 -133 121 -100 257 156 639 195 290 253 435 226 561 -6
27 -9 50 -7 52 1 2 38 -11 81 -27 312 -121 442 -375 377 -738 -23 -129 -26
-127 148 -114 237 18 584 -14 845 -78 332 -82 667 -223 949 -401 129 -81 135
-80 184 17 71 141 141 361 141 444 0 61 -39 77 -95 38 -116 -79 -275 -134
-385 -132 -106 1 -175 29 -253 104 -56 53 -60 58 -37 59 45 1 217 66 292 110
175 104 300 292 353 530 25 114 31 386 11 537 -75 569 -385 1089 -831 1392
-139 95 -374 211 -427 211 -10 0 -24 -10 -31 -22z m233 -169 c598 -309 994
-1021 967 -1739 -9 -253 -80 -434 -224 -571 -110 -107 -296 -188 -428 -189
-79 0 -86 -48 -22 -142 38 -55 104 -118 163 -155 10 -7 -24 5 -77 26 -221 89
-495 163 -744 202 -102 15 -206 22 -386 26 l-245 5 7 52 c23 161 1 322 -63
455 -93 194 -319 350 -569 392 -87 14 -106 10 -115 -26 -5 -21 0 -33 24 -58
63 -67 80 -131 57 -219 -20 -80 -58 -149 -205 -373 -193 -296 -246 -418 -238
-555 6 -95 39 -162 115 -229 l53 -48 -87 -37 c-49 -21 -112 -51 -142 -67 -42
-22 -57 -26 -63 -17 -111 164 -203 395 -245 613 -23 121 -23 376 0 501 49 269
162 492 341 670 95 95 218 183 321 229 441 196 1006 79 1424 -294 139 -124
300 -326 400 -503 28 -50 37 -58 62 -58 26 0 32 6 54 56 37 84 82 230 100 329
22 115 22 298 0 380 -61 229 -228 390 -491 475 l-81 26 40 44 c57 64 114 189
139 306 19 85 22 132 23 327 0 125 4 227 9 227 4 0 61 -27 126 -61z m1044
-2786 c-9 -37 -73 -211 -90 -245 l-14 -28 -68 42 c-37 23 -130 75 -207 116
-77 40 -131 70 -120 66 11 -4 66 -9 123 -12 117 -5 209 12 307 58 76 36 77 36
69 3z"/>
<path d="M9195 13648 c-38 -27 -158 -102 -265 -166 -343 -203 -494 -314 -670
-491 -143 -144 -290 -335 -290 -376 0 -37 23 -46 157 -61 254 -29 527 -94 786
-188 77 -28 133 -44 141 -39 8 4 50 58 94 118 159 219 325 387 562 568 157
120 164 134 103 187 -137 119 -323 296 -407 390 -69 76 -106 110 -120 109 -12
0 -52 -23 -91 -51z m442 -429 l83 -74 -113 -87 c-228 -176 -345 -294 -505
-505 -46 -62 -87 -113 -89 -113 -3 0 -72 23 -154 50 -226 76 -601 160 -716
160 -18 0 -33 4 -33 8 0 18 163 203 271 307 154 149 279 240 564 410 132 79
260 158 284 174 l45 30 140 -143 c78 -79 178 -177 223 -217z"/>
<path d="M10555 13553 c-77 -81 -200 -201 -273 -267 -111 -100 -132 -124 -130
-145 2 -19 42 -55 163 -150 199 -155 372 -328 493 -491 51 -69 104 -138 116
-155 l23 -30 49 19 c310 118 612 193 913 226 100 11 121 20 121 52 0 47 -170
258 -341 423 -150 145 -290 248 -539 396 -113 67 -255 155 -316 196 -61 40
-118 73 -125 73 -8 0 -77 -66 -154 -147z m247 -26 c46 -29 177 -109 291 -178
115 -68 257 -160 315 -203 114 -85 356 -320 435 -423 46 -60 47 -63 25 -67
-13 -2 -86 -14 -163 -26 -186 -28 -354 -69 -558 -137 -92 -30 -169 -54 -170
-52 -1 2 -43 58 -92 124 -113 151 -325 365 -475 480 -63 48 -118 91 -123 95
-4 3 61 70 145 148 84 78 182 175 218 216 36 41 66 75 67 75 1 1 40 -23 85
-52z"/>
<path d="M9908 12958 c-256 -219 -638 -649 -638 -718 0 -25 10 -33 83 -71 118
-61 265 -150 398 -241 135 -92 138 -92 189 -2 18 30 39 58 48 61 17 7 66 -43
94 -95 26 -49 52 -42 190 51 116 79 219 142 383 234 54 30 71 44 73 63 5 48
-282 388 -498 589 -171 159 -210 191 -230 191 -11 0 -52 -28 -92 -62z m321
-275 c182 -182 371 -394 371 -416 0 -3 -53 -36 -117 -73 -65 -37 -167 -100
-227 -140 l-109 -72 -31 46 c-18 28 -47 55 -70 66 -36 17 -43 18 -80 5 -36
-13 -96 -73 -108 -109 -2 -6 -55 24 -118 66 -63 41 -168 105 -232 142 l-117
66 32 40 c44 59 129 157 222 259 89 98 342 337 357 337 5 0 107 -98 227 -217z"/>
<path d="M11455 12260 c-211 -15 -399 -56 -410 -90 -4 -13 10 -56 40 -121 109
-239 157 -437 153 -634 -1 -79 2 -127 10 -142 7 -12 12 -30 12 -40 0 -57 47
-71 280 -83 220 -11 361 -46 574 -141 113 -51 146 -58 164 -36 14 17 49 185
61 299 16 139 14 388 -4 521 -22 167 -63 338 -86 363 -21 22 -109 47 -279 78
-71 14 -362 39 -395 34 -5 0 -59 -4 -120 -8z m441 -115 c56 -9 141 -25 190
-38 101 -25 89 -6 129 -203 34 -163 47 -363 35 -522 -13 -161 -38 -305 -54
-298 -264 117 -462 166 -670 166 -116 0 -154 7 -167 32 -6 11 -15 88 -19 171
-14 230 -43 360 -126 555 -25 57 -43 106 -41 108 8 8 160 34 252 43 114 12
340 5 471 -14z"/>
<path d="M8110 12245 c-136 -19 -300 -55 -332 -73 -34 -20 -51 -54 -76 -157
-67 -267 -77 -581 -27 -866 23 -129 42 -187 65 -194 13 -4 58 11 128 43 231
106 432 155 622 150 109 -2 135 2 217 33 13 5 25 20 28 36 3 15 10 42 15 59 6
17 10 88 10 158 0 198 39 360 141 591 51 114 58 145 37 163 -18 14 -195 50
-310 62 -130 13 -401 11 -518 -5z m633 -110 c57 -11 86 -21 83 -29 -50 -114
-105 -265 -128 -356 -24 -94 -31 -143 -35 -265 -5 -161 -14 -209 -41 -220 -9
-4 -84 -11 -167 -15 -228 -14 -358 -43 -553 -127 -74 -31 -107 -41 -112 -33
-10 17 -27 124 -41 260 -19 191 6 479 58 670 l18 64 95 23 c182 44 270 52 510
49 162 -3 250 -8 313 -21z"/>
<path d="M9146 12068 c-54 -83 -135 -303 -160 -433 -27 -146 -28 -173 -6 -195
11 -11 32 -20 48 -20 45 0 130 -46 180 -98 84 -86 121 -176 207 -499 25 -94
61 -225 81 -290 20 -65 37 -125 38 -133 2 -24 -58 -17 -185 23 -64 20 -202 58
-306 86 -239 62 -338 101 -416 160 -72 54 -113 116 -136 203 l-16 63 -48 3
c-105 7 -338 -56 -509 -137 -102 -49 -115 -65 -93 -118 23 -55 110 -197 174
-283 64 -87 235 -267 262 -275 10 -4 60 8 110 24 141 47 247 65 394 65 159 1
241 -13 415 -71 157 -51 468 -190 484 -216 8 -12 8 -22 0 -34 -15 -24 -323
-163 -469 -212 -154 -52 -245 -71 -370 -78 -129 -7 -293 16 -439 64 -132 42
-123 46 -250 -88 -154 -161 -319 -417 -314 -484 3 -27 12 -35 98 -78 144 -72
315 -122 483 -141 39 -5 51 -2 67 14 11 11 20 32 20 48 0 45 46 130 98 180 86
84 176 121 499 207 94 25 225 61 290 81 65 20 125 37 133 38 24 2 17 -58 -23
-185 -20 -64 -58 -202 -86 -306 -62 -239 -101 -338 -160 -416 -50 -67 -130
-123 -190 -133 -74 -11 -81 -18 -81 -79 0 -121 60 -335 138 -495 44 -89 49
-95 80 -98 52 -5 238 106 393 234 87 73 209 199 209 217 0 6 -14 52 -30 101
-46 137 -64 245 -64 391 -1 159 13 241 71 415 51 157 190 468 216 484 12 8 22
8 34 0 24 -15 163 -323 212 -469 52 -154 71 -245 78 -370 7 -128 -16 -293 -63
-436 -19 -58 -34 -111 -34 -116 0 -19 130 -151 223 -226 157 -128 335 -231
385 -225 23 3 34 16 69 88 78 155 130 331 146 494 6 56 -15 86 -60 86 -46 0
-131 46 -181 98 -84 86 -121 176 -207 499 -25 94 -61 225 -81 290 -20 65 -37
125 -38 133 -2 24 58 17 185 -23 64 -20 202 -58 306 -86 239 -62 338 -101 416
-160 67 -50 123 -130 133 -190 13 -83 15 -85 112 -78 111 7 258 46 392 103
149 62 170 77 170 115 0 52 -118 248 -236 389 -76 92 -197 210 -216 210 -7 0
-53 -14 -102 -30 -137 -46 -245 -64 -391 -64 -158 -1 -241 13 -410 69 -120 39
-421 167 -472 201 -34 22 -28 50 16 80 49 32 341 153 468 194 278 89 508 90
774 4 58 -19 111 -34 116 -34 19 0 151 130 226 223 128 157 231 335 225 385
-2 22 -16 34 -66 60 -141 75 -354 139 -516 155 -56 6 -86 -15 -86 -60 0 -46
-46 -131 -98 -181 -86 -84 -176 -121 -499 -207 -94 -25 -225 -61 -290 -81 -65
-20 -125 -37 -133 -38 -24 -2 -17 58 23 185 20 64 58 202 86 306 62 239 101
338 160 416 54 72 116 113 203 136 l63 16 3 48 c7 110 -59 351 -142 516 -56
110 -60 111 -185 46 -155 -82 -388 -267 -468 -371 l-26 -35 31 -97 c49 -150
64 -242 66 -392 1 -163 -13 -243 -71 -420 -51 -157 -190 -468 -215 -484 -13
-8 -23 -8 -35 0 -24 15 -163 323 -212 469 -52 154 -71 245 -78 370 -7 129 16
293 63 438 l36 109 -28 40 c-55 79 -246 241 -386 326 -155 95 -206 110 -232
70z m244 -199 c84 -58 211 -166 262 -225 l27 -31 -23 -74 c-38 -118 -56 -250
-56 -399 0 -243 41 -404 189 -738 106 -241 122 -261 214 -262 76 0 102 32 201
250 152 333 199 511 199 750 0 148 -18 273 -57 396 -18 54 -22 83 -16 95 12
22 159 153 234 208 31 23 94 64 139 91 l82 50 17 -34 c51 -100 107 -275 123
-386 l6 -45 -49 -18 c-124 -43 -237 -169 -300 -334 -17 -44 -59 -185 -93 -314
-34 -129 -75 -265 -92 -304 -19 -47 -31 -94 -34 -142 -5 -70 -5 -73 25 -102
27 -27 37 -31 86 -31 31 0 80 9 109 19 28 11 77 28 107 39 31 12 161 48 290
82 257 68 377 117 467 189 58 47 127 143 144 202 14 45 17 46 125 23 81 -16
203 -57 297 -99 l59 -25 -28 -48 c-81 -141 -258 -366 -318 -406 -21 -13 -30
-13 -97 9 -118 37 -250 55 -399 55 -243 0 -404 -41 -738 -189 -243 -107 -261
-122 -262 -218 0 -44 4 -56 29 -80 31 -31 284 -152 449 -214 326 -123 626
-137 927 -42 l80 25 74 -78 c91 -97 165 -194 231 -305 l51 -83 -53 -27 c-75
-38 -213 -85 -302 -103 -108 -23 -111 -22 -125 23 -19 66 -89 160 -155 208
-117 87 -183 112 -530 203 -110 29 -231 66 -270 82 -48 20 -95 32 -143 35 -70
5 -73 5 -104 -26 -31 -31 -31 -34 -26 -104 3 -46 15 -96 32 -137 31 -74 53
-148 120 -405 52 -200 106 -328 174 -412 47 -58 143 -127 203 -145 l40 -12 -6
-52 c-11 -92 -103 -369 -135 -406 -16 -18 -234 130 -368 251 -107 94 -106 94
-78 182 37 118 55 250 55 399 0 243 -41 404 -189 738 -106 241 -122 261 -214
262 -76 0 -102 -32 -201 -250 -152 -333 -199 -511 -199 -750 0 -150 18 -272
59 -401 l26 -84 -78 -73 c-102 -95 -198 -168 -304 -232 l-84 -51 -28 56 c-49
96 -118 327 -118 393 0 12 16 23 49 35 123 43 236 170 299 334 17 44 59 185
93 314 34 129 75 266 92 304 19 47 31 94 34 142 5 70 5 73 -26 104 -31 31 -34
31 -104 26 -46 -3 -96 -15 -137 -32 -74 -31 -148 -53 -405 -120 -200 -52 -328
-106 -412 -174 -58 -47 -127 -143 -144 -202 -14 -45 -21 -47 -129 -24 -84 18
-197 55 -288 96 l-64 29 27 48 c82 142 272 384 324 411 12 7 39 3 92 -13 118
-38 250 -56 399 -56 243 0 404 41 738 189 241 106 261 122 262 214 0 76 -32
102 -250 201 -333 152 -511 199 -750 199 -150 0 -272 -18 -401 -59 l-84 -26
-74 78 c-91 97 -165 194 -231 304 l-51 84 35 18 c100 51 275 107 386 123 l45
6 18 -49 c43 -124 169 -237 334 -300 44 -17 185 -59 314 -93 129 -34 266 -75
304 -92 47 -19 94 -31 142 -34 70 -5 73 -5 104 26 31 31 31 34 26 104 -3 46
-15 96 -32 137 -31 74 -53 148 -120 405 -52 200 -106 328 -174 412 -47 58
-143 127 -202 144 -32 10 -39 17 -39 38 1 62 60 263 111 379 l29 63 47 -27
c27 -15 86 -53 133 -85z"/>
<path d="M7174 11867 c-185 -137 -353 -305 -494 -495 -43 -57 -137 -204 -210
-325 -74 -122 -162 -264 -197 -316 -35 -51 -63 -101 -63 -110 0 -9 62 -75 137
-146 75 -72 195 -194 267 -273 109 -120 134 -142 155 -140 19 2 51 37 133 143
191 248 371 423 595 579 45 31 83 64 85 74 3 9 -7 46 -20 82 -107 282 -181
588 -212 870 -6 58 -16 110 -22 117 -21 26 -57 12 -154 -60z m105 -258 c28
-178 79 -386 142 -571 28 -82 49 -151 47 -152 -237 -163 -447 -361 -613 -579
l-90 -117 -50 52 c-116 124 -237 248 -308 317 l-77 73 53 82 c29 44 108 173
175 286 67 113 159 255 204 315 95 128 277 318 398 416 l85 68 7 -27 c3 -15
16 -88 27 -163z"/>
<path d="M12670 11925 c-6 -8 -18 -72 -26 -142 -29 -254 -94 -527 -188 -785
-25 -70 -46 -131 -46 -136 0 -6 45 -42 99 -81 232 -165 398 -327 585 -568 91
-119 122 -153 140 -153 17 0 53 32 132 121 60 67 179 190 266 274 87 84 158
160 158 168 0 8 -24 51 -54 94 -29 43 -107 168 -173 278 -66 111 -147 242
-181 292 -155 230 -377 458 -596 612 -62 43 -95 51 -116 26z m181 -203 c128
-107 298 -285 392 -412 43 -57 143 -212 222 -345 79 -132 158 -260 175 -285
l30 -45 -123 -120 c-68 -66 -166 -166 -218 -223 l-94 -102 -87 112 c-176 228
-294 346 -505 506 -62 46 -113 87 -113 91 0 3 18 58 41 121 75 213 169 627
169 746 0 19 4 34 8 34 5 0 51 -35 103 -78z"/>
<path d="M4070 11014 c-281 -26 -604 -106 -866 -215 -171 -71 -194 -85 -194
-118 0 -24 16 -45 88 -111 101 -95 271 -225 392 -300 120 -75 328 -180 356
-180 26 0 24 -2 91 89 82 111 195 170 339 179 208 12 391 -110 460 -306 32
-92 40 -98 111 -83 302 67 607 235 887 489 101 91 110 104 102 138 -5 20 -37
39 -169 103 -314 154 -621 245 -997 296 -110 15 -504 28 -600 19z m481 -104
c266 -27 565 -94 793 -180 155 -58 356 -149 356 -161 0 -12 -168 -155 -262
-221 -109 -78 -252 -157 -367 -203 -91 -36 -222 -77 -227 -72 -2 1 -21 39 -43
82 -111 221 -351 345 -590 305 -131 -22 -291 -121 -362 -224 l-23 -35 -106 54
c-235 121 -598 391 -558 416 7 5 70 31 140 59 218 85 459 146 692 174 136 17
418 20 557 6z"/>
<path d="M15393 11005 c-392 -45 -713 -136 -1050 -300 -215 -104 -216 -106
-122 -202 238 -242 573 -440 877 -518 124 -32 140 -27 161 54 17 66 75 154
139 213 212 190 522 144 691 -102 22 -33 46 -56 59 -58 31 -5 285 128 428 224
135 90 233 168 342 271 63 60 73 74 70 99 -2 24 -12 33 -63 58 -241 116 -549
208 -837 252 -146 22 -538 27 -695 9z m702 -109 c130 -21 325 -68 445 -107
103 -34 290 -107 303 -119 11 -10 -97 -108 -215 -196 -105 -78 -275 -183 -379
-234 l-66 -33 -84 85 c-61 61 -103 93 -151 116 -187 91 -390 77 -562 -39 -87
-58 -145 -126 -193 -226 l-34 -71 -69 19 c-161 44 -320 119 -481 227 -105 71
-299 228 -306 248 -2 6 49 36 114 66 284 134 622 229 973 273 154 19 565 14
705 -9z"/>
<path d="M7570 10584 c-252 -192 -680 -616 -680 -675 0 -58 433 -489 673 -670
105 -79 118 -78 170 16 92 164 155 267 234 384 102 150 103 159 18 211 -33 20
-61 44 -63 52 -3 17 47 63 97 90 46 25 41 53 -32 156 -67 95 -177 275 -249
407 -56 103 -67 105 -168 29z m140 -184 c34 -61 97 -163 140 -227 l77 -117
-43 -28 c-54 -34 -79 -71 -79 -118 0 -47 25 -84 80 -119 l44 -28 -67 -99 c-36
-54 -101 -158 -142 -231 l-76 -132 -70 55 c-130 104 -307 269 -436 407 -70 76
-128 143 -128 148 0 19 440 451 535 527 50 39 93 72 97 72 3 0 34 -50 68 -110z"/>
<path d="M12302 10628 c-5 -7 -42 -71 -82 -143 -39 -71 -117 -197 -171 -279
-72 -108 -99 -156 -97 -174 2 -19 19 -35 62 -62 33 -20 62 -42 64 -49 6 -17
-35 -59 -80 -82 -66 -34 -67 -50 -9 -132 75 -107 181 -278 253 -407 83 -148
81 -148 219 -40 247 192 649 595 649 650 0 55 -400 457 -642 645 -107 83 -144
99 -166 73z m198 -228 c126 -105 242 -216 366 -349 68 -73 124 -137 124 -140
0 -14 -247 -273 -350 -368 -107 -98 -270 -233 -281 -233 -3 0 -38 55 -77 123
-39 67 -102 169 -140 226 l-70 105 43 27 c55 35 80 72 80 119 0 47 -25 84 -80
119 l-43 27 81 125 c45 69 109 173 142 231 l59 106 41 -31 c22 -18 69 -57 105
-87z"/>
<path d="M2618 10481 c-215 -144 -355 -258 -510 -413 -110 -109 -128 -132
-128 -159 0 -58 297 -335 547 -512 132 -93 254 -167 276 -167 12 0 67 48 141
123 66 67 171 160 231 205 138 104 346 209 500 253 154 44 159 47 163 95 2 25
-2 45 -10 51 -7 6 -51 21 -98 33 -289 74 -537 223 -782 471 -77 78 -135 129
-147 129 -11 0 -93 -49 -183 -109z m301 -133 c216 -209 420 -335 701 -434 8
-3 -32 -23 -89 -45 -239 -90 -479 -252 -668 -452 l-72 -76 -111 74 c-130 87
-249 176 -340 254 -112 97 -240 223 -240 238 0 30 249 257 426 388 81 60 253
175 261 175 3 0 63 -55 132 -122z"/>
<path d="M17091 10500 c-230 -251 -515 -428 -821 -510 -47 -12 -91 -27 -97
-32 -7 -6 -13 -27 -13 -48 0 -21 6 -42 13 -48 6 -5 57 -22 112 -36 281 -75
524 -223 767 -468 74 -75 135 -128 146 -128 25 0 286 173 432 286 63 49 177
150 252 225 121 119 138 141 138 169 0 56 -278 318 -529 499 -126 91 -274 181
-296 181 -15 0 -49 -29 -104 -90z m264 -121 c72 -48 178 -126 237 -174 128
-102 308 -275 308 -295 0 -20 -183 -195 -310 -297 -58 -47 -167 -126 -243
-177 l-137 -93 -88 89 c-214 220 -437 363 -737 472 -16 6 -5 13 50 32 241 83
507 261 700 466 39 40 75 72 80 69 6 -2 69 -44 140 -92z"/>
<path d="M5951 10355 c-243 -221 -493 -355 -718 -386 -120 -17 -122 -17 -129
-43 -12 -48 7 -60 107 -74 243 -33 507 -172 743 -393 58 -54 104 -89 117 -89
65 0 579 482 579 542 0 49 -528 539 -579 538 -9 -1 -63 -43 -120 -95z m264
-138 c61 -52 157 -143 215 -201 l105 -106 -135 -135 c-131 -132 -301 -280
-320 -280 -6 0 -46 32 -91 70 -44 39 -119 98 -167 132 -94 68 -291 173 -360
194 -23 7 -39 15 -35 19 4 4 36 17 70 29 138 51 331 173 493 315 61 52 89 71
100 66 8 -5 65 -51 125 -103z"/>
<path d="M13864 10413 c-194 -145 -514 -459 -514 -503 0 -56 521 -540 581
-540 11 0 59 37 110 86 242 229 522 375 765 400 54 6 68 11 81 30 14 22 14 26
0 48 -13 19 -27 24 -81 30 -242 25 -524 173 -768 404 -48 45 -96 82 -106 82
-11 0 -41 -17 -68 -37z m141 -154 c159 -139 339 -255 492 -315 40 -16 73 -31
73 -34 0 -3 -34 -18 -75 -34 -147 -56 -332 -175 -498 -321 l-76 -67 -78 63
c-43 35 -145 130 -228 211 l-150 147 110 112 c100 101 332 309 345 309 3 0 41
-32 85 -71z"/>
<path d="M15092 9835 c-277 -72 -576 -243 -827 -476 -104 -96 -109 -102 -101
-135 12 -48 410 -225 666 -298 451 -128 916 -159 1330 -90 236 39 574 146 763
240 92 47 92 65 -3 156 -100 96 -238 204 -365 287 -136 89 -379 213 -407 209
-13 -2 -37 -25 -58 -55 -49 -71 -75 -98 -135 -138 -186 -123 -444 -93 -593 69
-49 53 -86 117 -103 176 -14 52 -35 80 -58 80 -9 -1 -58 -12 -109 -25z m107
-170 c150 -303 525 -406 804 -221 32 21 84 68 117 105 l60 66 94 -48 c120 -61
247 -141 362 -227 113 -85 217 -181 207 -190 -15 -15 -240 -99 -358 -135 -287
-87 -546 -121 -860 -112 -351 10 -630 63 -963 183 -157 57 -364 154 -359 168
6 21 202 179 307 248 138 92 278 162 420 209 63 21 118 38 121 39 3 0 25 -38
48 -85z"/>
<path d="M4763 9838 c-5 -7 -15 -33 -22 -58 -21 -74 -60 -136 -125 -199 -69
-65 -119 -94 -203 -116 -189 -49 -387 31 -502 204 -22 34 -45 57 -58 59 -11 2
-71 -22 -133 -53 -223 -112 -420 -245 -603 -409 -97 -87 -120 -123 -100 -155
14 -22 218 -109 386 -166 277 -93 512 -134 809 -142 476 -13 921 75 1358 268
182 80 264 129 268 158 10 65 -348 350 -591 472 -225 114 -453 178 -484 137z
m297 -160 c102 -40 248 -118 350 -189 90 -61 290 -226 290 -238 0 -11 -219
-113 -330 -154 -541 -200 -1104 -251 -1614 -146 -166 35 -394 108 -564 180
l-45 20 29 30 c46 49 201 171 300 237 86 58 321 192 336 192 4 0 44 -37 90
-83 94 -94 153 -129 264 -157 136 -35 249 -23 382 41 113 55 194 136 252 252
l42 85 72 -20 c39 -11 105 -34 146 -50z"/>
<path d="M6641 9646 c-56 -63 -176 -187 -267 -275 -90 -88 -164 -167 -164
-176 0 -8 24 -50 53 -93 30 -42 119 -185 198 -317 156 -260 239 -378 371 -525
143 -160 411 -380 463 -380 35 0 45 21 56 121 28 256 90 527 179 779 28 80 54
153 57 162 6 21 1 25 -167 149 -169 125 -376 334 -519 522 -87 114 -117 147
-135 147 -17 0 -51 -32 -125 -114z m278 -216 c131 -164 307 -327 526 -485 l28
-21 -36 -100 c-78 -220 -143 -486 -168 -689 -7 -55 -15 -103 -18 -107 -10 -12
-156 109 -271 224 -173 174 -289 330 -455 618 -43 74 -105 176 -137 225 l-58
90 97 91 c54 51 151 151 217 223 l118 130 41 -52 c22 -28 75 -95 116 -147z"/>
<path d="M13163 9698 c-27 -35 -78 -101 -113 -148 -124 -165 -322 -353 -525
-500 -55 -39 -103 -78 -107 -85 -4 -7 13 -68 38 -136 92 -252 159 -530 190
-793 8 -71 20 -136 26 -143 19 -23 53 -14 114 29 223 158 442 382 593 606 32
48 115 182 184 297 69 116 148 243 176 283 28 41 51 81 51 89 0 9 -70 83 -155
165 -85 82 -204 205 -265 273 -82 92 -118 125 -135 125 -17 0 -37 -18 -72 -62z
m332 -343 c33 -33 86 -84 118 -114 l58 -53 -59 -91 c-32 -51 -103 -166 -157
-257 -54 -91 -121 -199 -148 -240 -120 -180 -299 -377 -467 -512 -72 -57 -86
-65 -91 -51 -4 10 -16 84 -28 164 -25 173 -83 407 -141 574 -23 66 -44 127
-47 136 -3 12 29 41 114 105 151 112 393 354 504 502 l84 112 100 -107 c54
-60 126 -135 160 -168z"/>
<path d="M13983 9045 c-52 -36 -179 -280 -237 -456 -67 -200 -80 -288 -80
-534 0 -191 3 -233 22 -322 103 -473 423 -836 842 -956 240 -69 583 -61 825
18 342 113 677 384 914 738 l45 69 14 -39 c7 -21 25 -85 39 -143 64 -257 20
-483 -124 -626 -98 -99 -276 -180 -443 -204 -84 -12 -102 -23 -98 -59 2 -19
17 -33 63 -59 117 -65 173 -145 216 -307 17 -64 22 -118 26 -270 2 -104 0
-233 -5 -285 -10 -103 0 -140 37 -140 24 0 124 41 235 97 523 262 905 811
1011 1453 22 135 30 395 16 504 -29 212 -106 374 -245 511 -76 76 -107 99
-186 138 -52 25 -128 54 -167 64 -40 9 -73 20 -73 24 0 20 116 110 168 130
125 48 312 15 481 -87 77 -46 99 -52 119 -32 38 38 -30 294 -133 498 -29 57
-40 70 -59 70 -13 0 -70 -29 -127 -63 -204 -125 -374 -208 -587 -288 -380
-142 -837 -214 -1196 -187 -179 13 -176 15 -153 -115 45 -252 -1 -444 -142
-587 -70 -71 -160 -127 -256 -160 -32 -11 -60 -19 -61 -17 -2 1 2 23 7 47 19
81 -5 190 -69 317 -18 34 -88 146 -158 250 -197 293 -247 412 -223 524 19 87
99 159 209 189 55 15 70 26 70 55 0 32 -25 48 -120 79 -47 16 -154 61 -239
102 -84 41 -154 74 -155 74 -1 0 -11 -7 -23 -15z m102 -136 c28 -15 90 -43
138 -64 l88 -38 -55 -49 c-72 -64 -108 -136 -114 -231 -9 -145 38 -255 236
-551 148 -221 185 -289 208 -377 22 -86 5 -149 -59 -216 -27 -29 -30 -37 -21
-60 7 -21 17 -29 41 -31 59 -6 205 37 322 94 97 48 125 67 197 138 68 67 90
97 123 166 63 134 85 295 62 458 l-7 52 182 0 c416 0 817 77 1199 232 64 25
67 26 40 5 -63 -47 -96 -81 -135 -139 -61 -92 -53 -138 25 -138 65 0 185 -35
273 -79 252 -127 382 -384 382 -755 0 -294 -63 -567 -194 -841 -101 -210 -187
-334 -346 -499 -141 -146 -282 -252 -448 -335 -131 -65 -117 -86 -117 177 -1
194 -4 241 -23 326 -25 117 -82 242 -139 306 l-40 44 92 31 c256 86 423 248
481 465 34 129 18 357 -37 537 -46 149 -79 223 -104 229 -24 6 -65 -10 -65
-25 0 -5 -21 -46 -46 -91 -156 -278 -456 -558 -735 -689 -195 -92 -375 -134
-574 -135 -201 0 -373 39 -539 124 -536 275 -764 973 -534 1630 44 123 171
366 188 357 3 -1 28 -14 55 -28z m3122 -246 c31 -72 86 -234 80 -239 -2 -2
-30 7 -61 21 -133 59 -290 83 -401 62 -30 -6 -8 9 90 61 72 37 159 87 195 110
36 23 66 42 68 42 2 0 15 -26 29 -57z"/>
<path d="M5854 8992 c-61 -32 -158 -74 -215 -94 -149 -54 -154 -57 -154 -98 0
-32 2 -35 55 -50 126 -38 198 -100 219 -188 26 -105 -33 -244 -225 -528 -68
-101 -138 -212 -155 -247 -65 -127 -89 -236 -70 -317 5 -24 8 -46 6 -48 -7 -8
-141 49 -204 86 -75 44 -171 143 -207 213 -62 124 -80 293 -47 462 21 109 15
123 -48 120 -277 -13 -520 -2 -739 33 -387 63 -807 224 -1154 442 -96 60 -119
69 -142 54 -32 -20 -123 -238 -159 -381 -49 -196 -27 -229 102 -151 88 53 207
98 290 110 75 10 174 -5 234 -35 34 -18 129 -102 129 -115 0 -4 -30 -15 -67
-24 -87 -21 -231 -91 -309 -149 -197 -150 -304 -420 -304 -772 0 -706 385
-1385 976 -1718 190 -107 321 -148 336 -105 3 7 1 60 -4 118 -15 173 -4 460
21 555 40 151 106 250 198 296 66 33 83 48 83 74 0 31 -17 42 -80 50 -141 19
-281 71 -386 143 -106 72 -169 157 -207 277 -28 89 -29 272 -3 380 27 111 56
205 64 204 4 0 36 -45 72 -101 247 -381 669 -669 1093 -745 123 -22 353 -22
472 0 454 83 790 379 940 830 155 467 86 967 -191 1395 -66 101 -68 101 -220
24z m200 -187 c304 -558 243 -1234 -150 -1645 -228 -238 -511 -352 -843 -337
-437 19 -828 230 -1133 612 -59 75 -178 252 -199 297 -13 30 -39 43 -68 33
-41 -13 -134 -311 -150 -483 -23 -244 32 -416 179 -562 62 -63 94 -85 188
-132 62 -31 138 -62 167 -69 l54 -12 -41 -46 c-58 -65 -115 -190 -140 -307
-19 -85 -22 -132 -23 -327 0 -144 -4 -227 -10 -227 -22 0 -211 103 -293 159
-493 339 -802 950 -802 1586 0 145 12 221 52 342 86 259 312 443 577 469 76 8
91 16 91 53 0 52 -101 180 -182 232 -37 24 -37 24 122 -37 349 -134 735 -206
1113 -206 179 -1 198 -2 192 -17 -4 -9 -9 -66 -12 -126 -11 -223 48 -389 191
-530 115 -114 222 -172 396 -216 105 -27 151 -23 164 13 8 23 4 32 -31 73 -57
63 -70 122 -48 207 20 79 57 147 206 374 197 301 245 413 237 553 -6 96 -39
162 -115 231 l-53 47 97 42 c54 23 118 53 143 65 l45 24 18 -27 c10 -14 37
-62 61 -106z m-2969 -238 c83 -43 141 -75 130 -72 -11 4 -65 10 -120 12 -114
6 -195 -9 -308 -57 -39 -16 -72 -28 -75 -26 -5 6 51 169 82 238 l26 58 57 -37
c32 -20 126 -73 208 -116z"/>
<path d="M7721 8846 c-15 -18 -47 -177 -60 -298 -14 -124 -14 -389 -1 -498 16
-128 60 -331 78 -362 20 -34 54 -51 157 -77 261 -66 594 -76 869 -25 132 24
184 42 191 64 4 13 -11 57 -43 128 -105 226 -154 427 -151 617 2 112 -3 146
-32 222 -5 13 -20 25 -36 28 -15 3 -42 10 -59 15 -17 6 -87 10 -157 10 -202 0
-389 45 -606 146 -99 46 -131 53 -150 30z m206 -161 c183 -75 321 -106 498
-112 161 -5 209 -14 220 -41 4 -9 11 -84 15 -167 13 -228 41 -349 126 -552 30
-72 41 -109 33 -114 -16 -9 -125 -26 -259 -40 -190 -19 -458 3 -650 54 l-84
22 -22 88 c-38 149 -56 310 -56 482 0 216 29 443 55 431 7 -2 63 -26 124 -51z"/>
<path d="M12150 8828 c-116 -53 -213 -89 -325 -120 -98 -27 -129 -31 -278 -34
-93 -2 -177 -8 -187 -14 -10 -5 -27 -10 -37 -10 -56 0 -83 -83 -83 -259 0
-198 -41 -372 -141 -595 -51 -115 -58 -146 -35 -165 7 -6 55 -20 107 -30 282
-59 616 -55 922 8 156 33 170 47 207 204 49 206 67 436 50 643 -12 151 -51
366 -70 389 -18 22 -58 17 -130 -17z m69 -140 c28 -137 35 -216 35 -378 0
-186 -16 -325 -57 -486 l-22 -89 -63 -17 c-182 -49 -444 -72 -646 -58 -117 9
-282 33 -293 43 -1 2 17 52 41 110 84 200 114 329 126 547 9 167 13 185 38
195 9 4 87 11 172 15 222 12 397 54 581 139 35 16 67 30 71 30 4 1 11 -23 17
-51z"/>
<path d="M6564 8168 c-5 -7 -9 -100 -9 -208 -2 -216 -14 -305 -66 -468 -62
-194 -165 -367 -298 -502 -120 -121 -235 -191 -506 -310 -582 -255 -867 -605
-916 -1128 -14 -148 -10 -179 27 -188 33 -9 294 20 419 46 109 22 283 72 358
101 46 18 49 19 42 2 -77 -189 -133 -437 -155 -683 -11 -124 -11 -125 12 -143
20 -17 34 -18 123 -12 511 34 873 293 1119 800 210 431 226 461 291 543 240
298 643 464 1092 450 164 -6 173 -3 173 44 0 58 -185 210 -344 283 -115 53
-192 69 -338 69 l-128 -1 -15 54 c-9 30 -29 118 -46 196 -16 78 -35 147 -42
154 -7 6 -59 21 -117 32 -107 22 -289 67 -295 73 -2 1 1 28 6 58 21 120 -12
293 -81 432 -51 103 -90 157 -173 245 -54 57 -76 73 -98 73 -15 0 -31 -6 -35
-12z m197 -313 c84 -150 115 -313 85 -448 -12 -54 -14 -82 -7 -95 11 -21 123
-56 316 -97 65 -14 121 -28 123 -30 3 -2 13 -46 23 -97 32 -157 80 -315 100
-334 17 -15 24 -16 60 -5 164 49 363 7 546 -115 l88 -59 -135 -6 c-229 -11
-413 -59 -615 -159 -206 -103 -355 -231 -470 -405 -29 -45 -115 -204 -190
-355 -75 -151 -162 -313 -193 -360 -65 -99 -230 -269 -317 -325 -170 -112
-373 -179 -564 -187 l-55 -3 3 50 c6 140 70 437 127 597 34 94 55 134 98 192
43 55 48 102 14 115 -29 11 -45 5 -88 -32 -101 -88 -451 -194 -744 -227 -54
-6 -101 -8 -104 -5 -3 2 0 50 7 106 47 385 261 696 618 896 48 28 156 81 238
118 222 100 310 147 405 219 317 238 506 617 527 1055 l6 135 29 -35 c16 -19
47 -65 69 -104z"/>
<path d="M13298 8102 c-135 -142 -224 -319 -248 -493 -10 -74 -7 -189 7 -224
5 -14 -96 -44 -280 -81 -67 -14 -127 -30 -134 -37 -6 -7 -23 -68 -37 -137 -14
-69 -35 -159 -46 -201 l-21 -75 -67 9 c-120 18 -303 -17 -432 -83 -79 -40
-163 -101 -237 -173 -56 -54 -73 -77 -73 -98 0 -16 7 -32 16 -37 9 -5 76 -7
148 -4 612 23 1089 -272 1310 -811 100 -244 233 -460 372 -607 233 -244 471
-351 834 -375 98 -7 106 -6 124 13 16 18 17 31 11 104 -18 220 -74 492 -136
660 -25 69 -27 79 -12 73 188 -76 433 -132 681 -156 115 -10 124 -10 144 7 19
18 20 26 14 122 -13 202 -51 352 -129 507 -103 206 -237 353 -454 497 -86 57
-190 111 -475 247 -185 87 -271 144 -373 247 -169 169 -280 389 -338 668 -16
81 -21 140 -22 296 0 108 -4 201 -9 208 -4 6 -20 12 -35 12 -22 0 -44 -17
-103 -78z m67 -447 c67 -362 270 -691 530 -863 44 -29 206 -116 360 -193 318
-160 415 -220 533 -333 144 -138 226 -266 287 -449 35 -106 73 -312 62 -341
-4 -10 -17 -13 -49 -10 -317 35 -631 121 -760 207 -100 68 -100 68 -123 53
-33 -22 -31 -62 6 -104 81 -92 186 -415 218 -677 7 -49 14 -109 17 -132 6 -50
12 -48 -116 -33 -274 34 -491 141 -677 333 -144 149 -242 313 -376 623 -93
217 -252 422 -435 559 -216 162 -499 258 -800 272 -141 7 -141 8 -32 79 69 44
153 82 235 105 63 18 237 18 287 0 46 -15 71 -8 86 24 14 31 92 344 92 370 0
37 17 47 128 70 122 26 252 60 294 76 37 15 41 35 22 115 -30 127 -3 280 77
434 21 41 53 93 71 115 l33 39 7 -125 c3 -69 14 -166 23 -214z"/>
<path d="M9785 7915 c-83 -62 -257 -171 -395 -247 -142 -79 -143 -83 -64 -188
188 -247 617 -680 674 -680 23 0 51 23 228 189 234 218 506 539 500 589 -3 22
-29 41 -168 120 -91 52 -221 132 -289 179 -150 102 -159 103 -211 18 -20 -33
-44 -61 -52 -63 -17 -3 -63 47 -90 97 -24 44 -59 41 -133 -14z m151 -182 c15
-9 44 -18 64 -18 47 0 84 25 119 80 l27 43 121 -79 c67 -44 167 -105 224 -138
57 -32 104 -62 106 -67 4 -12 -113 -157 -231 -284 -106 -115 -354 -350 -369
-350 -17 0 -462 453 -527 538 -36 46 -66 87 -68 91 -1 4 53 40 120 79 68 39
170 102 227 140 l105 70 27 -43 c15 -24 40 -52 55 -62z"/>
<path d="M8960 7469 c-246 -98 -578 -178 -865 -210 -107 -11 -125 -19 -125
-54 0 -27 122 -194 220 -300 189 -204 358 -336 657 -515 114 -68 258 -157 319
-197 60 -40 116 -73 123 -73 7 0 85 74 172 164 88 90 211 210 275 267 97 86
115 106 112 128 -2 19 -36 50 -143 133 -248 192 -417 364 -578 593 -34 49 -69
91 -77 92 -8 1 -49 -11 -90 -28z m145 -201 c104 -144 343 -386 498 -503 l118
-90 -98 -89 c-54 -49 -154 -146 -223 -217 l-125 -128 -35 25 c-19 14 -149 93
-288 177 -139 83 -301 187 -360 231 -115 84 -359 321 -435 423 l-47 62 32 5
c327 50 510 92 723 166 77 26 145 48 150 48 6 0 46 -49 90 -110z"/>
<path d="M10939 7488 c-9 -7 -43 -51 -77 -98 -156 -220 -338 -405 -572 -583
-102 -79 -136 -109 -138 -129 -3 -20 15 -40 103 -118 58 -51 182 -171 275
-266 93 -96 175 -174 182 -174 7 0 47 23 88 51 41 27 170 107 285 176 116 69
249 152 297 184 223 150 449 371 606 593 43 61 52 95 28 115 -7 6 -71 18 -142
26 -253 30 -480 83 -730 170 -87 31 -166 58 -174 61 -8 3 -22 -1 -31 -8z m154
-143 c208 -75 538 -154 707 -170 36 -4 71 -8 78 -11 31 -10 -212 -278 -381
-420 -108 -91 -240 -180 -467 -314 -96 -57 -204 -123 -240 -146 l-64 -44 -136
139 c-74 76 -174 174 -223 217 l-87 79 113 87 c212 164 350 302 504 506 46 61
88 112 91 112 4 0 51 -16 105 -35z"/>
<path d="M9883 6470 c-155 -143 -406 -428 -419 -477 -5 -18 13 -43 90 -130
230 -258 355 -492 388 -731 13 -99 20 -112 58 -112 37 0 46 14 54 88 26 240
163 502 395 757 50 55 91 108 91 118 0 61 -483 577 -540 577 -11 0 -63 -40
-117 -90z m273 -182 c83 -84 176 -186 208 -226 l59 -72 -61 -69 c-144 -162
-266 -351 -328 -508 -16 -40 -32 -73 -35 -73 -4 0 -10 12 -13 28 -13 54 -128
269 -189 354 -35 48 -98 129 -141 178 l-78 91 59 72 c60 75 351 377 363 377 3
0 74 -69 156 -152z"/>
<path d="M11695 6253 c-89 -8 -265 -46 -364 -80 -198 -66 -463 -214 -469 -262
-2 -14 20 -72 56 -145 33 -66 76 -166 96 -221 47 -131 57 -149 84 -153 30 -5
49 12 57 51 22 103 107 206 187 228 101 27 249 -35 532 -225 104 -69 225 -144
270 -166 104 -52 213 -75 287 -62 30 6 55 9 57 7 8 -8 -62 -167 -98 -222 -137
-208 -356 -287 -658 -236 -140 23 -137 27 -123 -148 19 -240 -15 -592 -85
-869 -89 -354 -219 -649 -444 -1006 -7 -12 -10 -32 -7 -46 16 -63 496 -229
555 -192 29 19 25 51 -17 120 -53 87 -97 203 -111 289 -20 123 19 240 108 328
l49 48 11 -55 c16 -80 65 -197 115 -274 102 -157 265 -270 465 -322 129 -34
235 -43 432 -37 293 9 510 63 785 196 440 213 776 558 941 966 39 97 41 116
16 138 -15 14 -31 15 -127 5 -166 -15 -452 -5 -547 20 -158 43 -250 106 -311
217 -25 46 -39 61 -58 63 -36 4 -45 -12 -58 -98 -16 -104 -64 -242 -113 -325
-126 -213 -338 -304 -613 -261 -97 14 -275 63 -275 75 0 3 32 26 71 50 312
192 596 545 718 893 95 272 100 597 14 863 -33 102 -102 242 -161 325 -255
360 -759 568 -1267 523z m437 -123 c264 -55 456 -156 634 -334 156 -157 235
-292 292 -505 22 -85 25 -116 26 -266 0 -139 -4 -189 -22 -272 -45 -209 -138
-415 -260 -579 -133 -179 -373 -390 -568 -499 -130 -73 -128 -106 12 -159 168
-64 273 -87 434 -93 127 -5 156 -3 229 16 225 57 384 221 471 487 l26 81 44
-39 c54 -48 182 -110 270 -131 116 -28 276 -40 438 -33 103 4 152 3 152 -4 0
-20 -69 -156 -124 -242 -337 -537 -1008 -879 -1676 -855 -117 4 -162 10 -235
32 -215 64 -364 182 -449 356 -47 98 -76 196 -76 265 0 78 -48 85 -142 21 -55
-38 -118 -104 -155 -163 -7 -10 5 24 26 77 110 272 188 588 220 891 6 54 11
185 11 293 l0 195 28 -7 c15 -4 88 -8 162 -8 113 0 147 4 210 23 213 66 375
228 459 458 32 87 58 221 48 247 -11 30 -55 32 -85 5 -131 -122 -228 -100
-582 132 -228 150 -286 183 -389 220 -167 61 -303 33 -407 -84 l-51 -56 -28
67 c-16 38 -45 102 -66 145 l-38 76 67 40 c194 115 396 187 610 217 131 19
356 12 484 -15z m-722 -3031 c-15 -51 -12 -207 5 -273 9 -33 29 -91 45 -129
16 -39 28 -72 26 -74 -5 -5 -173 52 -238 81 l-57 25 72 124 c40 68 90 160 111
205 22 45 41 80 43 79 1 -2 -2 -19 -7 -38z"/>
<path d="M7890 6235 c-443 -73 -812 -345 -972 -717 -21 -50 -51 -139 -66 -197
-24 -97 -27 -122 -27 -311 0 -220 9 -286 62 -454 56 -181 179 -388 333 -564
93 -106 268 -260 383 -335 42 -29 77 -55 77 -59 0 -4 -32 -17 -71 -28 -251
-75 -444 -73 -599 5 -169 86 -295 293 -329 538 -11 79 -24 99 -60 95 -19 -2
-33 -17 -58 -63 -61 -111 -152 -175 -308 -216 -99 -26 -382 -37 -550 -21 -103
10 -111 10 -129 -8 -19 -19 -19 -21 -3 -73 25 -79 110 -248 174 -346 79 -122
155 -212 275 -326 287 -273 651 -452 1075 -526 167 -30 486 -33 600 -6 262 61
463 210 567 420 25 50 53 125 63 165 9 39 21 72 26 72 20 0 90 -85 114 -135
35 -79 47 -156 33 -232 -15 -90 -59 -206 -108 -287 -57 -93 -54 -126 14 -126
42 0 211 43 299 77 87 33 208 92 217 107 16 24 6 52 -59 154 -329 525 -507
1197 -471 1775 7 107 6 142 -4 154 -13 16 -27 15 -163 -8 -99 -16 -243 -6
-330 23 -121 42 -199 101 -276 211 -43 61 -117 223 -106 233 2 2 29 -1 59 -6
129 -24 266 31 552 224 292 196 416 250 522 227 92 -21 159 -92 190 -200 20
-67 30 -81 59 -81 32 0 48 25 79 120 16 47 61 154 102 238 60 126 72 157 63
174 -26 49 -294 191 -469 247 -172 56 -275 72 -495 76 -141 3 -225 0 -285 -10z
m535 -100 c135 -25 294 -80 435 -151 69 -35 135 -72 148 -82 l23 -17 -30 -55
c-16 -30 -45 -94 -66 -141 l-36 -86 -62 62 c-75 74 -145 105 -240 105 -142 0
-249 -48 -530 -237 -111 -75 -233 -151 -272 -169 -146 -70 -233 -64 -328 24
-23 22 -31 24 -55 16 -25 -9 -27 -14 -25 -64 3 -110 67 -283 151 -407 85 -126
233 -228 382 -264 59 -15 296 -19 343 -6 l27 7 0 -187 c0 -422 80 -825 244
-1228 16 -39 16 -39 -1 -15 -88 123 -228 211 -271 168 -7 -7 -12 -31 -12 -53
0 -122 -83 -315 -181 -419 -144 -154 -325 -223 -609 -233 -646 -22 -1289 308
-1632 837 -55 84 -119 204 -132 248 l-8 23 149 -7 c328 -15 575 42 714 165
l47 41 12 -47 c32 -130 140 -315 229 -396 65 -57 171 -113 257 -133 107 -25
338 -15 467 20 118 32 278 92 289 109 15 23 8 57 -14 70 -13 8 -61 35 -108 62
-282 160 -538 433 -675 720 -166 348 -185 706 -55 1030 154 385 519 646 986
705 96 12 331 4 439 -15z m335 -3320 c23 -38 44 -73 47 -77 2 -4 -22 -19 -54
-34 -62 -28 -234 -86 -239 -81 -2 1 13 42 33 91 57 143 72 267 47 386 -3 14
23 -29 59 -95 35 -66 83 -151 107 -190z"/>
<path d="M4324 6038 c-111 -119 -183 -303 -209 -533 -5 -51 -4 -63 12 -77 18
-16 153 -42 278 -54 102 -9 105 -4 74 139 -22 101 -24 135 -24 347 l0 235 -36
3 c-33 3 -41 -3 -95 -60z m45 -472 c17 -93 19 -90 -46 -82 -97 11 -103 14
-103 51 0 57 47 220 87 301 l38 79 6 -145 c4 -80 12 -172 18 -204z"/>
<path d="M15549 6093 c-1 -5 -2 -111 -3 -238 -1 -203 -4 -243 -25 -342 -31
-140 -27 -148 64 -139 128 13 267 40 287 56 19 15 20 20 9 106 -17 128 -47
237 -90 329 -41 87 -117 193 -156 219 -25 16 -84 22 -86 9z m168 -306 c28 -68
63 -209 63 -253 0 -31 -1 -32 -63 -43 -101 -18 -101 -18 -93 32 19 113 25 191
26 287 l0 105 22 -35 c11 -19 32 -61 45 -93z"/>
<path d="M9292 5738 c-5 -7 -39 -71 -75 -143 -157 -316 -244 -607 -304 -1020
-25 -171 -25 -584 0 -745 46 -296 127 -570 243 -817 39 -85 45 -93 71 -93 22
0 43 16 97 73 166 175 314 386 427 611 85 167 85 174 3 226 -230 144 -274 482
-89 688 56 62 124 106 204 133 79 27 86 40 66 126 -70 305 -251 623 -517 906
-65 68 -102 84 -126 55z m90 -165 c172 -180 333 -442 411 -668 56 -164 60
-145 -39 -194 -284 -141 -393 -475 -247 -754 41 -77 115 -164 169 -198 l35
-21 -59 -112 c-101 -191 -280 -446 -379 -539 l-30 -28 -38 88 c-86 206 -153
446 -192 688 -25 157 -25 590 0 760 36 241 85 437 164 655 46 128 151 360 162
360 4 0 23 -17 43 -37z"/>
<path d="M10580 5678 c-259 -275 -428 -564 -505 -865 -32 -122 -28 -134 47
-159 83 -27 127 -52 186 -107 96 -92 142 -200 142 -338 0 -154 -70 -287 -200
-379 -41 -29 -66 -55 -68 -68 -8 -54 218 -439 362 -617 120 -148 198 -225 229
-225 26 0 32 8 77 103 68 144 132 328 174 497 71 287 92 481 83 774 -13 451
-116 873 -308 1271 -107 223 -112 225 -219 113z m138 -175 c149 -316 241 -651
281 -1025 16 -143 13 -444 -4 -588 -33 -267 -103 -520 -220 -794 l-16 -38 -31
28 c-111 107 -319 408 -409 595 l-22 46 84 84 c91 91 137 167 164 274 62 243
-65 510 -298 625 l-85 42 19 69 c68 246 198 472 417 727 29 34 57 62 61 62 4
0 31 -48 59 -107z"/>
<path d="M5479 5456 c-10 -10 -191 -58 -305 -81 -66 -14 -178 -31 -248 -40
-71 -8 -135 -20 -143 -27 -18 -14 -13 -73 18 -236 27 -142 25 -147 -39 -83
-68 68 -123 144 -174 236 -22 41 -43 77 -47 79 -3 3 -65 9 -136 15 -72 6 -159
14 -196 17 -84 8 -101 -5 -93 -74 10 -81 34 -222 59 -343 63 -308 82 -485 64
-615 -7 -49 -13 -107 -13 -129 l-1 -40 45 1 c25 1 86 7 135 13 140 19 358 -2
610 -60 269 -61 400 -74 412 -43 5 15 -10 242 -25 353 l-7 55 -82 47 c-46 26
-102 62 -125 80 -50 38 -158 140 -158 150 0 3 19 2 43 -2 23 -5 102 -19 175
-31 119 -19 135 -20 148 -6 10 10 20 57 30 139 19 167 48 316 89 461 19 66 35
123 35 128 0 24 -55 52 -71 36z m-63 -143 c-20 -65 -58 -246 -71 -343 -9 -63
-18 -130 -21 -149 l-5 -33 -52 6 c-29 4 -110 21 -180 37 -148 36 -134 21 -173
189 -29 126 -40 210 -28 210 69 1 448 70 498 90 32 13 38 12 32 -7z m-1052
-89 l112 -7 49 -84 c65 -110 172 -232 263 -302 40 -31 105 -95 145 -143 99
-119 216 -217 333 -276 l41 -21 7 -108 c4 -59 10 -119 13 -132 6 -22 4 -23
-38 -16 -24 4 -114 22 -199 40 -260 57 -334 67 -547 72 l-203 6 0 146 c0 162
-12 253 -70 546 -54 278 -57 300 -36 292 10 -4 68 -10 130 -13z"/>
<path d="M14465 5443 c-19 -18 -20 -14 28 -185 36 -129 69 -304 87 -462 6 -55
15 -96 25 -105 13 -13 34 -12 185 13 94 16 173 26 176 23 11 -11 -160 -156
-237 -201 -46 -27 -94 -55 -106 -62 -18 -11 -22 -26 -27 -91 -4 -43 -11 -127
-17 -186 -6 -60 -8 -120 -4 -134 l6 -26 87 6 c48 3 202 29 343 56 376 74 513
84 679 49 53 -11 62 -10 77 5 15 15 15 23 2 89 -18 96 -16 304 4 440 10 59 35
190 56 290 49 223 64 334 49 361 -9 18 -17 19 -82 13 -39 -3 -129 -11 -201
-16 -148 -11 -130 0 -208 -134 -59 -100 -206 -265 -207 -231 0 11 9 65 19 120
31 159 36 219 18 233 -8 7 -71 19 -139 27 -167 19 -362 58 -478 95 -111 35
-114 35 -135 13z m255 -149 c82 -19 362 -64 396 -64 10 0 -3 -94 -30 -210 -39
-168 -25 -153 -173 -189 -70 -16 -151 -33 -180 -37 l-51 -6 -7 48 c-27 198
-63 387 -91 478 -5 15 -3 18 12 12 11 -4 66 -19 124 -32z m1055 -101 c-3 -27
-19 -105 -35 -174 -58 -251 -72 -354 -77 -565 l-5 -200 -152 -1 c-164 -1 -238
-11 -546 -73 -267 -53 -295 -57 -287 -37 3 9 9 69 13 132 l7 116 46 24 c124
63 286 203 360 311 19 28 57 66 85 85 111 76 229 210 302 343 l36 66 61 1 c50
1 144 10 191 18 4 0 5 -20 1 -46z"/>
<path d="M5471 4396 c-15 -18 -11 -73 15 -231 26 -155 21 -152 170 -130 178
27 323 81 430 160 84 63 123 120 105 153 -9 15 -36 17 -248 18 -191 0 -252 4
-308 18 -111 28 -149 31 -164 12z m382 -133 l147 -6 -31 -19 c-71 -43 -224
-93 -319 -104 l-58 -6 -11 64 c-19 111 -22 107 57 91 37 -7 133 -16 215 -20z"/>
<path d="M14425 4399 c-88 -28 -236 -41 -420 -37 l-190 3 -3 -36 c-3 -33 3
-41 60 -95 122 -114 293 -179 545 -209 47 -5 54 -3 67 17 14 23 40 159 52 275
5 44 3 67 -6 78 -14 17 -59 18 -105 4z m-5 -203 l-12 -68 -61 7 c-77 8 -205
49 -282 88 l-60 32 140 7 c77 4 172 13 210 20 83 16 83 16 65 -86z"/>
<path d="M9952 3738 c-5 -7 -22 -58 -36 -113 -75 -281 -223 -523 -468 -767
-79 -78 -128 -134 -128 -146 0 -27 195 -318 306 -457 49 -60 146 -167 216
-237 108 -109 132 -128 158 -128 58 0 334 295 509 544 99 142 171 259 171 279
0 13 -48 67 -123 141 -154 152 -269 304 -351 466 -59 116 -136 325 -136 368 0
36 -29 62 -69 62 -21 0 -43 -6 -49 -12z m147 -433 c92 -188 240 -387 395 -532
l75 -70 -94 -139 c-51 -77 -132 -187 -178 -245 -94 -116 -278 -309 -295 -309
-29 0 -263 258 -387 426 -70 94 -175 253 -175 264 0 5 28 35 61 67 98 93 205
219 281 332 92 138 135 223 213 426 6 16 12 6 31 -50 13 -38 46 -115 73 -170z"/>
</g>
</svg>
