<svg xmlns="http://www.w3.org/2000/svg" width="17.576" height="17.746" viewBox="0 0 17.576 17.746">
  <path id="Path_402" data-name="Path 402" d="M173.324,705.355c-1.743,1.743-6.206.105-9.969-3.657s-5.4-8.227-3.657-9.969l1.147-1.148a2.063,2.063,0,0,1,2.916.047l1.777,1.777a2.062,2.062,0,0,1,.046,2.915l-.246.246a1.188,1.188,0,0,0-.072,1.6c.383.465.8.927,1.245,1.375s.911.861,1.375,1.245a1.188,1.188,0,0,0,1.6-.072l.246-.246a2.062,2.062,0,0,1,2.915.046l1.777,1.777a2.063,2.063,0,0,1,.047,2.916Z" transform="translate(-158.227 -689.08)" fill="none" stroke="#ccc" stroke-width="1.5"/>
</svg>
