<svg width="19" height="19" viewBox="0 0 19 19" fill="none" xmlns="http://www.w3.org/2000/svg">
<path d="M9.5 11.875C10.8117 11.875 11.875 10.8117 11.875 9.5C11.875 8.18832 10.8117 7.125 9.5 7.125C8.18832 7.125 7.125 8.18832 7.125 9.5C7.125 10.8117 8.18832 11.875 9.5 11.875Z" stroke="#3D8BD3" stroke-width="1.2" stroke-miterlimit="10" stroke-linecap="round" stroke-linejoin="round"/>
<path d="M1.58325 10.1967V8.80338C1.58325 7.98005 2.25617 7.29922 3.08742 7.29922C4.52034 7.29922 5.10617 6.28588 4.38575 5.04297C3.97409 4.33047 4.2195 3.40422 4.93992 2.99255L6.3095 2.2088C6.93492 1.83672 7.74242 2.05838 8.1145 2.6838L8.20159 2.83422C8.91409 4.07713 10.0858 4.07713 10.8062 2.83422L10.8933 2.6838C11.2653 2.05838 12.0728 1.83672 12.6983 2.2088L14.0678 2.99255C14.7883 3.40422 15.0337 4.33047 14.622 5.04297C13.9016 6.28588 14.4874 7.29922 15.9203 7.29922C16.7437 7.29922 17.4245 7.97213 17.4245 8.80338V10.1967C17.4245 11.0201 16.7516 11.7009 15.9203 11.7009C14.4874 11.7009 13.9016 12.7142 14.622 13.9571C15.0337 14.6776 14.7883 15.5959 14.0678 16.0076L12.6983 16.7913C12.0728 17.1634 11.2653 16.9417 10.8933 16.3163L10.8062 16.1659C10.0937 14.923 8.922 14.923 8.20159 16.1659L8.1145 16.3163C7.74242 16.9417 6.93492 17.1634 6.3095 16.7913L4.93992 16.0076C4.2195 15.5959 3.97409 14.6696 4.38575 13.9571C5.10617 12.7142 4.52034 11.7009 3.08742 11.7009C2.25617 11.7009 1.58325 11.0201 1.58325 10.1967Z" stroke="#3D8BD3" stroke-width="1.2" stroke-miterlimit="10" stroke-linecap="round" stroke-linejoin="round"/>
</svg>
