<?xml version="1.0" standalone="no"?>
<!DOCTYPE svg PUBLIC "-//W3C//DTD SVG 20010904//EN"
 "http://www.w3.org/TR/2001/REC-SVG-20010904/DTD/svg10.dtd">
<svg version="1.0" xmlns="http://www.w3.org/2000/svg"
 width="1200.000000pt" height="297.000000pt" viewBox="0 0 1200.000000 297.000000"
 preserveAspectRatio="xMidYMid meet">

<g transform="translate(0.000000,297.000000) scale(0.100000,-0.100000)"
fill="#000000" stroke="none">
<path d="M20 1505 l0 -1195 5993 2 5992 3 -5987 2 -5988 3 0 1185 0 1185 5988
3 5987 2 -5992 3 -5993 2 0 -1195z"/>
<path d="M60 1505 l0 -1145 1874 0 c1096 0 1877 4 1880 9 8 12 -130 117 -171
132 -29 10 -31 13 -22 37 6 15 8 45 4 66 -6 44 -49 129 -74 149 -13 10 -12 7
2 -13 59 -86 79 -160 54 -208 -14 -30 -14 -30 15 -36 30 -6 100 -50 156 -98
l33 -28 -35 0 c-22 0 -52 12 -86 35 -53 36 -106 55 -152 55 -42 0 -45 20 -8
50 29 24 33 33 33 72 -1 25 -9 60 -18 77 l-16 32 -30 -26 c-34 -28 -49 -32
-131 -38 -65 -4 -93 -23 -103 -69 -7 -28 -9 -29 -43 -23 -113 21 -216 91 -263
179 -21 40 -31 48 -77 62 -56 18 -133 79 -157 123 -7 15 -19 54 -26 87 l-12
61 -48 12 c-93 24 -160 87 -174 164 -5 25 -13 37 -24 37 -27 0 -112 55 -186
121 -69 60 -133 98 -167 99 -22 0 -98 -30 -98 -39 0 -4 26 -19 58 -35 131 -64
251 -164 322 -267 33 -48 46 -58 83 -67 54 -14 97 -52 97 -87 0 -20 -5 -25
-26 -25 -14 0 -34 5 -45 10 -24 13 -24 10 2 -45 25 -54 49 -69 95 -62 41 7 46
-10 7 -19 -50 -11 -49 -12 6 -13 55 -1 61 -14 11 -25 -14 -3 3 -3 38 -1 68 3
85 -10 25 -20 -56 -10 -62 -13 -23 -14 19 -1 50 3 68 8 24 7 32 7 29 -2 -8
-26 -111 -34 -161 -12 -19 8 -18 7 2 -22 21 -29 25 -31 57 -22 72 20 157 -27
119 -65 -18 -18 -51 -20 -91 -6 -23 9 -18 1 29 -45 34 -33 65 -55 78 -55 13 0
37 -9 54 -20 l32 -19 -4 33 c-5 39 12 76 33 76 21 0 19 24 -3 43 -23 21 -42
22 -42 2 0 -17 -35 -20 -46 -4 -10 16 21 41 51 41 28 1 75 -37 75 -58 0 -7 12
-24 27 -38 l27 -25 -19 -38 c-11 -21 -21 -41 -23 -45 -2 -5 16 -8 41 -8 55 0
82 -24 53 -46 -18 -12 -18 -14 -2 -20 10 -4 26 1 39 14 64 58 141 66 135 14
-2 -19 -13 -32 -36 -43 l-32 -17 35 -6 c19 -4 44 -2 54 4 38 20 71 90 37 77
-20 -8 -43 20 -29 34 18 18 47 5 58 -24 7 -22 6 -35 -7 -58 -19 -33 -11 -36
32 -14 48 25 85 120 42 108 -10 -2 -26 5 -36 16 -26 28 -8 71 28 71 49 0 85
-87 57 -139 -9 -15 -4 -17 36 -17 33 1 48 -4 57 -17 9 -15 7 -22 -12 -37 -21
-17 -40 -18 -240 -15 -119 1 -231 3 -248 4 -17 0 -42 10 -56 21 -34 26 -40 25
-32 -5 6 -24 5 -25 -50 -25 -60 0 -66 6 -40 45 l16 25 -39 0 c-22 0 -48 6 -59
14 -16 13 -17 18 -7 35 11 17 10 22 -5 30 -9 5 -35 27 -57 50 l-40 40 -5 -31
c-6 -39 -32 -57 -54 -39 -18 15 -22 91 -7 120 7 13 3 28 -18 60 l-28 42 -7
-57 c-4 -32 -15 -77 -26 -101 -18 -41 -18 -43 -1 -55 10 -7 57 -50 106 -95 87
-82 87 -83 56 -83 -26 0 -47 14 -111 75 -43 41 -83 75 -89 75 -5 0 -17 -20
-26 -44 -16 -40 -16 -47 -2 -75 13 -25 13 -31 2 -31 -8 0 -19 15 -26 34 l-12
34 -47 -34 c-42 -30 -55 -34 -106 -33 -34 0 -51 3 -41 8 14 5 7 9 -26 18 -25
7 -58 24 -75 38 l-31 26 -3 -28 c-3 -31 -38 -47 -38 -18 0 14 -3 15 -15 5 -31
-26 -48 19 -20 56 21 28 18 34 -19 34 -43 0 -68 26 -43 44 11 9 13 16 6 23 -7
7 -5 14 4 21 10 9 22 7 50 -7 l37 -19 0 28 c0 16 3 35 6 44 7 18 44 22 44 6 0
-6 13 -4 30 5 59 30 124 7 118 -43 -4 -39 -33 -36 -33 3 0 27 -4 30 -32 33
-26 3 -33 0 -33 -15 0 -10 -9 -33 -20 -50 l-20 -33 39 0 c43 0 76 -25 47 -36
-11 -4 -14 -13 -10 -31 6 -24 5 -25 -26 -21 l-34 5 23 -18 c45 -37 147 -37
208 0 34 21 89 88 80 97 -3 4 -35 9 -70 11 l-65 6 0 71 c0 39 -5 85 -12 101
-12 31 -58 85 -72 85 -5 0 -27 -20 -51 -44 -36 -37 -56 -48 -142 -74 -117 -37
-181 -74 -221 -131 -25 -35 -34 -41 -68 -41 l-39 0 25 -32 c34 -44 85 -84 132
-103 l38 -16 -21 27 c-22 28 -28 69 -11 79 26 16 80 -48 80 -95 0 -18 -6 -20
-68 -20 -61 0 -74 4 -110 30 -41 29 -96 95 -107 129 -3 9 -24 28 -46 44 -22
15 -49 43 -60 62 -20 34 -23 35 -82 35 -102 0 -189 61 -231 162 -19 44 -7 58
47 58 32 0 46 7 78 39 33 32 39 45 39 80 0 113 -153 125 -205 16 -14 -30 -15
-45 -8 -70 13 -41 0 -68 -28 -60 -11 4 -43 -3 -73 -15 l-53 -22 27 -74 c16
-41 26 -74 23 -74 -2 0 -13 5 -24 10 -17 10 -19 7 -19 -24 0 -24 -7 -39 -21
-50 -21 -14 -21 -16 -5 -41 14 -21 20 -23 36 -15 32 17 95 12 114 -9 17 -19
17 -20 -8 -36 -21 -14 -32 -15 -56 -7 -42 15 -38 0 8 -25 53 -29 89 -36 129
-22 l35 11 -29 17 c-15 10 -34 25 -42 34 -18 23 -7 50 18 42 16 -5 18 -2 14
15 -4 15 -1 20 15 20 19 0 52 -35 65 -70 3 -8 6 2 6 22 1 54 -39 98 -88 98
-44 0 -55 -8 -39 -27 14 -18 -4 -38 -26 -30 -21 8 -20 19 5 51 38 48 128 25
155 -41 15 -34 16 -34 34 -18 24 22 54 13 45 -14 -5 -15 -2 -18 13 -14 33 8
38 -18 8 -44 l-27 -23 79 0 c66 0 85 -4 113 -23 38 -26 93 -99 87 -117 -2 -7
-18 10 -35 38 -17 28 -41 55 -53 62 -18 10 -17 5 9 -31 17 -23 31 -51 31 -63
0 -15 -9 -6 -29 29 -16 28 -38 56 -50 62 l-21 13 20 -33 c22 -36 25 -47 11
-47 -5 0 -12 8 -16 19 -7 23 -50 71 -64 71 -6 0 1 -16 14 -36 26 -38 31 -54
17 -54 -4 0 -16 16 -26 34 -11 21 -31 39 -49 45 -47 17 -55 12 -24 -13 32 -26
34 -63 4 -58 -13 2 -17 -2 -15 -15 2 -13 -3 -18 -22 -18 -18 0 -30 10 -45 37
l-21 38 -17 -35 c-18 -38 -38 -51 -62 -41 -12 4 -13 10 -6 24 9 17 7 18 -14
14 -20 -3 -25 0 -25 17 0 14 -6 21 -20 21 -12 0 -38 9 -58 19 l-38 19 1 -51
c0 -45 -3 -52 -20 -52 -31 0 -47 45 -36 97 9 39 7 46 -20 87 -16 24 -29 53
-29 63 0 25 -17 23 -26 -4 -4 -13 -46 -62 -94 -110 l-87 -87 36 -35 c35 -35
35 -36 11 -36 -13 0 -38 14 -57 32 -27 26 -35 29 -47 19 -8 -7 -18 -21 -21
-32 -5 -14 -16 -19 -45 -19 -27 0 -38 4 -35 13 4 9 -9 11 -48 9 -52 -4 -141 9
-181 24 -16 6 -18 4 -12 -11 6 -17 -7 -34 -28 -35 -4 0 -23 16 -41 36 l-33 36
-12 -36 c-9 -28 -17 -36 -35 -36 -13 0 -25 6 -28 13 -3 9 -7 9 -19 -1 -13 -10
-18 -9 -28 3 -10 12 -9 20 4 40 9 13 25 29 36 35 29 15 25 27 -12 34 -40 8
-58 23 -58 48 0 15 5 19 20 15 17 -4 19 -1 14 18 -4 15 0 26 9 32 13 7 13 17
-3 78 -22 88 -37 385 -16 320 l13 -40 18 34 17 35 -31 25 c-17 14 -31 34 -31
45 0 17 1 17 25 2 34 -22 40 -20 21 9 -9 13 -16 27 -16 30 0 13 22 -9 41 -39
l19 -31 0 26 c0 15 -9 38 -20 52 -32 40 -23 56 11 17 l30 -35 -16 40 c-9 22
-25 49 -35 61 -21 22 -27 50 -9 38 6 -3 24 -27 40 -52 17 -27 29 -39 29 -28 0
22 -15 51 -51 97 -36 46 -37 60 -3 28 50 -46 76 -104 72 -158 l-3 -49 40 23
c22 13 59 29 83 36 23 7 42 16 42 22 0 5 11 7 25 5 20 -4 23 -3 14 8 -14 17
-5 44 14 44 8 0 22 -9 32 -20 25 -27 32 -25 55 13 27 44 26 90 -4 124 -24 27
-25 27 -39 9 -16 -22 -47 -16 -47 8 0 23 35 38 62 27 35 -13 58 -44 65 -87 3
-22 14 -45 24 -52 11 -7 16 -19 12 -28 -5 -14 -3 -15 14 -6 43 24 45 -25 3
-65 -17 -15 -30 -31 -30 -34 0 -4 13 -9 30 -12 16 -4 39 -16 50 -27 26 -26 32
-25 69 6 38 32 41 20 4 -18 -36 -38 -12 -36 32 3 39 34 48 29 13 -8 -34 -37
-2 -27 42 13 22 20 43 34 47 31 3 -4 -11 -22 -32 -42 -22 -19 -34 -35 -28 -35
16 0 113 90 113 105 0 7 -15 16 -34 19 -54 10 -108 57 -196 170 -45 57 -100
117 -122 132 -36 25 -38 30 -23 39 43 25 80 63 155 160 83 108 142 155 193
155 17 0 27 5 27 14 0 16 -96 106 -113 106 -6 0 6 -16 28 -35 21 -20 35 -38
32 -42 -4 -3 -25 11 -47 31 -44 40 -76 50 -42 13 35 -37 26 -42 -13 -8 -44 39
-68 41 -32 3 37 -38 34 -50 -4 -18 -37 31 -50 32 -66 6 -7 -10 -28 -22 -48
-26 -19 -3 -35 -9 -35 -13 0 -3 14 -19 30 -34 30 -29 39 -60 20 -72 -6 -4 -18
-1 -27 7 -15 11 -16 11 -10 -5 4 -11 0 -21 -13 -29 -13 -8 -20 -24 -20 -44 0
-59 -68 -116 -111 -94 -23 13 -25 38 -3 47 11 4 22 -1 31 -13 14 -18 15 -18
39 9 30 34 31 80 4 125 -23 37 -30 39 -55 12 -10 -11 -24 -20 -32 -20 -19 0
-28 27 -14 44 9 11 6 12 -14 8 -14 -2 -25 0 -25 5 0 6 -19 15 -42 22 -24 7
-58 21 -76 32 -18 10 -35 19 -38 19 -2 0 -4 -22 -4 -48 0 -50 -33 -116 -78
-156 -31 -27 -27 -11 7 33 33 42 51 75 51 92 0 7 -13 -6 -29 -29 -16 -22 -34
-43 -40 -47 -19 -11 -12 18 9 39 10 12 26 39 35 61 l16 40 -30 -35 c-16 -19
-33 -32 -36 -28 -4 4 4 21 19 38 14 18 26 43 25 58 0 24 -1 25 -8 7 -9 -20
-51 -64 -51 -52 0 3 10 23 22 44 l23 38 -29 -22 c-35 -28 -46 -29 -46 -5 0 10
13 28 29 40 27 20 29 24 18 52 -15 38 -21 38 -35 -2 -19 -56 -2 236 18 317 16
61 16 71 3 78 -9 6 -13 17 -9 32 5 19 3 22 -14 18 -15 -4 -20 0 -20 15 0 25
18 40 58 48 37 7 41 19 12 34 -11 6 -27 22 -36 35 -13 21 -14 28 -4 40 9 11
16 13 24 5 15 -15 26 -12 20 5 -5 11 1 15 21 15 22 0 29 -7 43 -41 l16 -41 20
24 c32 37 52 49 70 42 11 -4 15 -13 10 -27 -5 -16 -3 -19 12 -13 40 15 130 28
181 24 55 -3 61 0 41 20 -9 9 -3 12 30 12 36 0 44 -4 57 -30 9 -16 21 -30 28
-30 7 0 26 14 42 30 16 17 39 30 52 30 31 0 29 -4 -13 -43 l-36 -33 89 -89
c50 -50 93 -100 97 -112 9 -28 26 -30 26 -5 0 10 13 39 29 63 27 41 29 48 20
87 -11 52 5 97 36 97 17 0 20 -7 20 -52 l-1 -51 38 19 c20 10 46 19 58 19 14
0 20 7 20 21 0 17 5 20 25 17 21 -4 23 -3 14 14 -7 14 -6 20 6 24 24 10 44 -3
62 -41 l17 -35 21 38 c15 27 27 37 45 37 19 0 24 -5 22 -18 -2 -13 2 -17 15
-15 30 5 28 -32 -4 -58 -31 -25 -23 -30 24 -13 18 6 38 24 49 45 10 18 22 34
26 34 14 0 9 -16 -17 -54 -13 -20 -20 -36 -14 -36 14 0 57 48 64 71 4 11 11
19 16 19 14 0 11 -11 -11 -47 l-20 -33 21 13 c12 6 34 35 50 62 20 35 29 44
29 29 0 -12 -14 -41 -32 -65 -29 -40 -30 -42 -7 -28 13 9 38 39 54 67 28 48
45 64 45 43 0 -20 -67 -107 -99 -128 -28 -19 -47 -23 -113 -23 l-79 0 27 -23
c30 -26 25 -52 -8 -44 -15 4 -18 1 -13 -14 9 -27 -21 -36 -45 -14 -18 16 -19
16 -34 -18 -16 -39 -59 -67 -103 -67 -34 0 -46 8 -62 38 -13 25 -7 42 14 42
20 0 29 -19 16 -34 -15 -18 -3 -26 40 -26 49 0 89 44 88 98 0 20 -3 30 -6 22
-13 -35 -46 -70 -65 -70 -16 0 -19 5 -15 20 4 17 2 20 -14 15 -25 -8 -36 19
-18 42 8 9 27 24 42 34 l29 17 -35 11 c-42 14 -95 3 -142 -30 l-30 -21 35 6
c24 4 43 1 58 -10 22 -15 22 -17 6 -35 -19 -21 -82 -26 -114 -9 -16 8 -22 6
-36 -15 -16 -25 -16 -27 5 -41 14 -11 21 -26 21 -50 0 -31 2 -34 19 -24 11 5
22 10 24 10 3 0 -7 -33 -22 -73 l-28 -74 48 -22 c37 -17 53 -19 68 -11 31 16
53 -12 40 -50 -30 -86 72 -181 156 -145 76 31 74 130 -4 182 -19 13 -48 23
-66 23 -69 0 -61 52 20 139 57 61 115 86 183 79 48 -5 50 -4 68 30 10 20 40
51 67 70 26 19 47 37 47 42 0 19 74 100 116 129 40 26 57 31 110 31 l62 0 -7
-33 c-11 -45 -28 -75 -51 -87 -43 -23 -55 28 -19 74 l21 26 -29 -11 c-46 -17
-90 -48 -122 -85 -38 -43 -39 -52 -3 -46 24 3 34 -3 62 -38 51 -64 103 -97
208 -130 52 -17 107 -37 122 -45 27 -14 65 -54 72 -77 7 -21 56 22 79 68 16
34 21 64 21 119 l0 75 52 1 c28 0 60 4 70 8 17 7 15 12 -25 53 -62 65 -148 85
-223 54 -44 -18 -53 -33 -15 -28 21 3 29 0 29 -11 0 -9 -5 -19 -12 -23 -7 -5
-4 -10 11 -16 36 -13 8 -38 -41 -38 l-40 0 21 -34 c12 -18 21 -41 21 -50 0
-13 7 -17 33 -14 28 3 32 6 32 33 0 39 29 42 33 3 6 -50 -59 -73 -118 -43 -17
9 -30 11 -30 5 0 -16 -37 -12 -44 6 -3 9 -6 28 -6 44 l0 28 -37 -19 c-28 -14
-40 -16 -50 -7 -9 7 -11 14 -4 21 7 7 5 14 -6 23 -25 18 0 44 43 44 37 0 40 6
19 34 -28 37 -11 82 20 56 12 -10 15 -9 15 5 0 29 35 13 38 -18 l3 -28 31 26
c17 14 50 31 75 38 l44 11 -33 12 c-32 12 -30 13 33 13 61 1 70 -2 120 -37
l55 -38 16 38 c10 23 23 38 34 38 15 0 16 -2 2 -17 -9 -10 -19 -28 -22 -40 -7
-22 14 -86 32 -97 5 -3 48 30 95 74 61 58 92 80 111 80 14 0 26 -3 25 -7 -1
-8 -159 -153 -192 -176 -17 -12 -17 -14 2 -58 11 -25 23 -71 27 -103 l7 -57
28 42 c21 32 25 47 18 60 -15 29 -11 105 7 120 23 19 48 -1 54 -42 5 -33 5
-33 20 -14 8 12 36 38 62 60 43 35 46 40 30 52 -16 12 -15 14 7 33 13 12 38
20 58 20 33 0 34 1 19 22 -28 40 -21 49 37 46 47 -3 52 -5 51 -25 -1 -28 0
-28 33 -6 15 10 52 19 82 22 50 3 102 3 372 2 50 0 71 -4 90 -20 20 -16 22
-23 13 -38 -9 -13 -24 -18 -57 -17 -40 0 -45 -2 -36 -17 28 -52 -8 -139 -57
-139 -36 0 -54 43 -28 71 10 11 26 18 36 16 43 -12 6 83 -42 108 -43 22 -51
19 -32 -14 13 -23 14 -36 7 -58 -11 -29 -40 -42 -58 -24 -14 14 9 42 29 34 34
-13 1 57 -37 77 -10 6 -35 8 -54 4 l-35 -6 32 -17 c43 -21 52 -67 15 -76 -26
-7 -93 22 -116 49 -8 9 -20 16 -28 16 -13 0 -13 -3 -3 -16 20 -23 -10 -48 -60
-49 -22 0 -40 -1 -40 -2 0 -1 9 -20 20 -41 21 -40 18 -72 -5 -72 -7 0 -16 -13
-20 -29 -8 -38 -47 -73 -80 -73 -30 0 -61 25 -51 41 11 16 46 13 46 -4 0 -24
27 -18 49 11 24 31 27 46 7 38 -20 -8 -46 34 -46 74 0 33 -1 34 -22 20 -13 -8
-39 -20 -58 -27 -20 -6 -58 -34 -85 -62 -44 -44 -47 -49 -22 -40 40 15 73 14
91 -5 38 -38 -47 -85 -119 -65 -32 9 -36 7 -57 -22 -21 -29 -21 -30 -2 -23 54
22 153 15 161 -11 3 -9 -5 -9 -29 -2 -18 5 -49 9 -68 8 -39 -1 -33 -4 23 -14
60 -10 43 -23 -25 -20 -35 2 -52 2 -38 -1 50 -11 44 -24 -11 -25 -55 -1 -56
-2 -6 -13 42 -10 32 -25 -13 -19 -46 6 -68 -13 -100 -85 l-19 -43 22 16 c12 8
34 15 49 15 23 0 28 -4 28 -25 0 -35 -43 -73 -97 -87 -37 -9 -50 -19 -82 -67
-39 -57 -130 -149 -188 -189 -17 -12 -68 -42 -114 -66 l-82 -44 31 -16 c73
-38 120 -20 250 92 76 65 125 98 163 107 19 5 28 16 37 49 20 77 80 128 178
155 38 10 42 14 48 53 11 65 45 135 84 169 40 35 106 68 137 69 14 0 29 17 49
55 46 88 131 148 244 174 l43 9 15 -38 c17 -43 47 -60 107 -60 56 0 105 -15
133 -41 l22 -21 12 22 c37 70 30 138 -16 159 -35 16 -28 45 11 49 71 6 97 15
155 53 48 33 68 40 95 37 18 -2 31 0 29 4 -3 4 -849 8 -1880 8 l-1874 0 0
-1145z m2480 1115 c0 -11 -6 -20 -14 -20 -18 0 -29 16 -21 30 11 18 35 11 35
-10z m-2290 -940 c11 -21 11 -21 29 2 16 19 21 20 35 9 20 -17 20 -46 1 -101
-8 -23 -15 -44 -15 -45 0 -2 22 4 49 11 35 11 55 12 75 5 35 -14 35 -46 -1
-59 -16 -6 -21 -11 -12 -11 9 -1 22 -8 29 -16 31 -38 -55 -61 -110 -30 -36 20
-41 18 -30 -11 6 -14 10 -45 10 -69 0 -34 -5 -47 -20 -55 -16 -9 -21 -6 -33
17 -14 27 -15 27 -22 4 -5 -15 -13 -21 -28 -19 -28 4 -35 60 -13 113 l16 37
-33 -8 c-17 -5 -48 -8 -67 -9 -30 0 -36 4 -38 24 -2 15 3 30 12 37 15 11 15
12 1 18 -10 3 -15 15 -13 28 4 29 42 35 94 13 20 -8 39 -13 42 -11 2 3 -1 19
-7 37 -14 42 -14 82 1 97 18 18 36 15 48 -8z m2290 -1295 c0 -8 -9 -15 -20
-15 -20 0 -26 11 -13 23 12 13 33 7 33 -8z"/>
<path d="M240 1515 c-20 -24 4 -45 26 -24 13 14 13 17 1 27 -11 10 -17 9 -27
-3z"/>
<path d="M8210 2642 c0 -4 16 -6 35 -4 27 3 44 -2 70 -22 51 -39 115 -66 158
-66 51 0 58 -22 18 -59 -36 -34 -40 -68 -15 -131 16 -39 18 -40 35 -24 27 24
88 43 144 44 61 0 90 18 105 65 9 26 16 34 28 31 10 -3 31 -8 47 -12 97 -23
189 -93 231 -176 16 -31 31 -48 43 -48 38 0 138 -60 166 -100 33 -47 54 -104
55 -147 0 -29 3 -32 49 -43 98 -23 181 -101 181 -169 0 -15 17 -28 63 -50 34
-17 96 -60 137 -96 98 -86 141 -109 197 -102 24 2 50 10 58 17 13 10 1 20 -73
63 -149 85 -234 160 -299 263 -21 32 -35 43 -70 53 -51 13 -106 62 -101 88 4
21 55 30 71 14 25 -25 26 -8 3 37 -32 64 -48 76 -91 69 -42 -7 -58 10 -18 19
49 10 49 12 -2 13 -48 1 -53 13 -10 25 11 3 -6 4 -37 1 -68 -4 -77 10 -15 23
36 9 38 10 12 11 -17 1 -45 -3 -62 -8 -18 -5 -35 -6 -38 -1 -8 13 7 19 68 26
41 5 63 2 87 -9 l32 -16 -14 22 c-8 12 -17 27 -21 33 -5 8 -20 9 -51 2 -73
-15 -148 28 -116 67 14 17 63 20 91 5 11 -7 19 -7 19 -1 0 14 -103 101 -120
101 -8 0 -30 9 -48 20 -18 11 -35 20 -37 20 -3 0 -5 -16 -5 -36 0 -44 -17 -77
-36 -70 -19 7 -18 -14 2 -42 19 -28 35 -28 52 -1 11 16 16 18 28 9 30 -26 10
-50 -42 -50 -30 0 -74 45 -74 75 0 14 -8 25 -20 28 -13 3 -20 14 -20 30 0 13
9 36 20 50 26 33 25 34 -7 30 -16 -3 -41 0 -57 6 -23 9 -27 16 -24 36 7 32
-12 32 -42 0 -13 -14 -41 -31 -62 -37 -33 -10 -41 -9 -56 5 -21 22 -9 45 36
68 l32 17 -34 6 c-39 8 -89 -12 -100 -39 -11 -30 -6 -45 14 -45 13 0 20 -7 20
-20 0 -23 -29 -27 -48 -8 -18 18 -15 68 6 91 17 20 16 20 -13 13 -36 -9 -62
-31 -81 -68 -19 -37 -18 -62 2 -54 24 9 54 -12 54 -37 0 -50 -58 -65 -86 -22
-18 28 -22 66 -12 105 7 25 6 26 -26 22 -35 -4 -76 11 -76 28 0 6 9 19 21 31
16 16 33 20 87 20 37 1 123 1 192 1 164 1 228 -5 268 -26 l32 -17 0 26 c0 24
3 25 55 25 30 0 55 -3 55 -6 0 -4 -9 -21 -20 -39 l-19 -31 27 4 c40 5 82 -14
82 -38 0 -12 -7 -20 -17 -21 -14 0 -13 -4 7 -17 14 -9 45 -36 70 -58 l45 -42
1 30 c2 56 43 64 66 13 9 -20 9 -37 0 -71 -11 -41 -10 -47 14 -84 15 -22 27
-40 28 -40 0 0 2 21 4 46 2 25 12 71 24 102 l21 56 -23 18 c-13 10 -61 54
-107 98 -83 79 -84 80 -53 80 26 0 46 -13 104 -68 106 -101 102 -99 120 -63
21 39 20 80 -1 103 -9 10 -13 21 -9 26 10 10 46 -36 46 -59 0 -21 15 -25 26
-8 3 6 27 24 52 40 39 25 55 29 111 28 l66 -1 -40 -12 -40 -13 42 -6 c26 -4
56 -19 76 -37 l35 -30 6 30 c6 33 29 40 45 13 6 -10 11 -12 11 -5 0 17 27 15
33 -2 3 -8 -3 -30 -13 -50 l-18 -36 39 0 c41 0 58 -17 43 -42 -5 -7 -7 -21 -6
-30 4 -23 -28 -24 -68 -3 l-30 16 0 -40 c0 -44 -23 -72 -37 -46 -8 14 -12 14
-39 0 -39 -20 -66 -19 -98 6 -27 21 -34 53 -16 64 18 11 42 -15 29 -31 -16
-20 -2 -34 37 -34 29 0 34 3 34 23 0 13 7 32 15 43 22 29 19 33 -27 36 -31 2
-44 8 -46 21 -2 11 3 17 13 17 14 0 15 3 5 15 -18 21 -2 38 31 31 16 -3 29 -3
29 -1 0 14 -85 45 -123 45 -53 0 -133 -39 -166 -81 -30 -39 -18 -49 57 -49
l52 0 0 -62 c0 -86 16 -136 56 -176 l34 -34 41 45 c36 41 50 49 150 82 121 38
177 73 224 136 27 36 34 40 63 35 17 -2 32 -1 32 3 0 15 -97 100 -138 120
l-42 22 19 -37 c14 -26 17 -42 11 -55 -16 -28 -50 -11 -71 35 -32 70 -28 76
44 76 54 0 70 -4 103 -28 46 -34 98 -91 119 -132 9 -17 20 -30 24 -30 15 0 73
-52 91 -83 17 -27 22 -29 88 -30 60 -2 76 -6 113 -32 52 -37 109 -114 112
-152 2 -26 -1 -28 -43 -33 -57 -7 -94 -32 -115 -77 -15 -30 -15 -42 -6 -75 24
-78 118 -83 181 -11 30 34 32 40 26 86 -7 60 5 80 39 67 17 -6 33 -4 60 10 21
11 42 21 47 22 5 2 -2 34 -16 72 -26 68 -27 91 -4 68 18 -18 26 -14 21 12 -6
29 12 66 33 66 13 0 13 4 -1 30 -13 25 -19 29 -35 20 -26 -14 -103 -13 -118 2
-33 33 17 67 70 49 40 -14 26 4 -20 28 -57 29 -97 34 -128 18 l-28 -15 32 -16
c17 -9 36 -24 41 -34 13 -24 -1 -45 -24 -36 -14 6 -17 4 -12 -9 3 -8 -1 -21
-8 -27 -11 -9 -20 -6 -40 16 -14 15 -25 33 -25 40 0 8 -4 14 -10 14 -26 0 7
-92 40 -110 11 -6 35 -10 53 -8 28 3 32 6 29 31 -3 22 1 27 17 27 29 0 28 -44
-1 -64 -39 -27 -86 -20 -124 18 -19 19 -34 42 -34 52 0 16 -1 16 -18 1 -28
-26 -55 -22 -50 6 4 20 1 23 -19 19 -31 -6 -32 30 0 51 21 15 18 16 -57 16
-61 1 -86 6 -112 21 -33 21 -94 103 -94 127 0 21 7 15 33 -29 14 -24 38 -54
53 -68 28 -26 26 -19 -13 39 -24 35 -29 51 -15 51 4 0 16 -16 26 -34 18 -34
66 -86 66 -72 0 4 -7 18 -16 31 -9 13 -14 30 -12 36 2 7 14 -4 25 -24 12 -19
31 -41 44 -47 l22 -12 -22 36 c-31 49 -22 67 9 20 23 -34 73 -64 87 -51 3 3
-7 17 -23 30 -31 27 -28 63 5 52 16 -5 18 -2 14 15 -9 35 38 22 62 -17 11 -18
22 -32 25 -32 3 0 14 14 25 32 12 18 31 33 44 35 21 3 23 1 17 -21 -5 -22 -3
-24 15 -20 15 4 22 0 26 -16 3 -11 13 -21 22 -21 9 0 34 -9 56 -20 22 -11 40
-20 42 -20 1 0 -3 14 -9 30 -14 41 -3 80 22 80 35 0 52 -71 31 -125 -6 -14 0
-30 20 -58 15 -21 31 -52 35 -70 l6 -31 19 34 c20 38 129 157 168 183 l24 16
-44 40 c-42 38 -43 40 -19 41 14 0 41 -13 60 -30 44 -37 55 -37 70 0 11 26 18
30 51 30 39 0 48 -7 29 -26 -7 -7 6 -9 42 -6 47 4 124 -6 184 -23 17 -5 21 -2
20 16 -2 35 22 33 60 -5 40 -40 44 -42 44 -21 0 8 5 26 12 40 13 29 58 36 58
9 0 -13 3 -14 15 -4 8 6 19 9 25 5 20 -12 10 -43 -25 -74 -31 -27 -33 -32 -18
-37 64 -21 73 -27 73 -51 0 -20 -4 -24 -20 -20 -17 4 -18 2 -9 -14 11 -22 4
-39 -16 -39 -12 0 -12 -7 1 -42 16 -45 44 -271 43 -348 l0 -45 -18 39 -17 39
-13 -31 c-13 -30 -12 -33 18 -58 31 -26 41 -54 19 -54 -6 0 -20 7 -30 17 -26
24 -32 11 -8 -20 22 -28 25 -37 10 -37 -5 0 -21 17 -35 37 -19 29 -25 33 -25
18 0 -11 12 -38 26 -58 14 -21 23 -41 20 -44 -3 -4 -7 -4 -9 -2 -38 51 -47 60
-47 50 0 -18 29 -73 52 -97 11 -12 15 -24 10 -28 -9 -5 -63 63 -75 94 -3 10
-6 11 -6 2 -2 -24 26 -78 59 -116 18 -20 29 -40 25 -44 -11 -11 -73 67 -91
115 -10 25 -14 57 -11 76 l5 33 -61 -29 c-111 -54 -125 -59 -136 -53 -14 9
-14 -7 0 -21 13 -13 4 -33 -15 -33 -7 0 -25 10 -40 21 -26 21 -28 21 -41 3
-35 -46 -35 -119 0 -154 15 -13 17 -13 26 3 18 32 66 18 53 -16 -8 -23 -44
-28 -75 -11 -34 17 -48 40 -51 86 -2 21 -10 36 -22 41 -12 5 -17 14 -13 27 6
22 -3 26 -20 9 -6 -6 -16 -8 -22 -5 -20 13 -12 37 24 73 28 28 31 35 17 39
-51 17 -71 27 -76 40 -8 21 -30 17 -61 -12 -15 -14 -30 -22 -34 -19 -3 4 10
20 29 36 19 16 31 29 26 29 -13 0 -50 -22 -73 -43 -29 -26 -30 -11 -1 20 33
36 6 27 -40 -13 -23 -19 -42 -31 -42 -26 0 6 16 24 35 41 41 36 37 40 -10 11
-38 -23 -86 -80 -79 -92 3 -4 18 -8 33 -8 42 0 102 -50 185 -152 76 -96 127
-148 160 -166 18 -9 17 -11 -10 -25 -34 -18 -80 -66 -152 -158 -71 -91 -124
-137 -176 -151 -48 -13 -50 -22 -12 -66 20 -23 77 -62 90 -62 4 0 -9 14 -29
31 -19 17 -35 35 -35 41 0 5 19 -7 42 -26 46 -40 73 -49 40 -13 -29 31 -28 46
1 20 23 -21 60 -43 73 -43 5 0 -7 13 -26 29 -19 16 -32 32 -29 36 4 3 19 -5
34 -19 31 -29 53 -33 61 -12 5 13 25 23 76 40 14 4 11 11 -17 39 -36 36 -44
60 -24 73 6 3 16 1 22 -5 17 -17 26 -13 20 9 -4 13 1 22 13 27 12 5 20 20 22
41 3 46 17 69 51 86 31 17 67 12 75 -11 13 -34 -35 -48 -53 -15 -9 15 -11 15
-26 2 -35 -35 -35 -108 -1 -153 14 -18 15 -18 43 3 17 12 36 18 46 14 19 -7
22 -20 7 -29 -5 -3 -10 -11 -10 -16 0 -6 5 -7 11 -3 11 6 25 1 136 -53 l61
-29 -5 32 c-3 17 0 48 6 67 15 45 79 129 92 121 5 -3 -5 -22 -22 -42 -31 -35
-59 -89 -59 -114 0 -7 6 -1 14 14 24 46 50 77 65 78 11 0 9 -6 -6 -23 -23 -25
-53 -80 -53 -98 0 -10 9 -1 47 50 2 2 6 2 9 -2 3 -3 -6 -23 -20 -44 -14 -20
-26 -47 -26 -58 0 -15 6 -11 25 18 14 20 30 37 35 37 13 0 13 -17 0 -25 -5 -3
-15 -16 -21 -27 l-12 -21 28 21 c34 27 45 28 45 4 0 -10 -14 -29 -31 -41 -25
-19 -30 -27 -24 -49 10 -42 22 -47 30 -13 9 42 25 49 25 12 0 -83 -25 -293
-40 -343 -14 -46 -15 -58 -5 -58 20 0 27 -17 16 -39 -9 -16 -8 -18 9 -14 16 4
20 0 20 -20 0 -24 -9 -30 -73 -51 -15 -5 -13 -10 18 -37 35 -31 45 -62 25 -74
-6 -4 -17 -1 -25 5 -12 10 -15 10 -15 1 0 -7 -11 -11 -27 -9 -21 2 -30 11 -37
33 -6 17 -11 31 -12 33 -1 1 -18 -14 -38 -34 -38 -38 -62 -40 -60 -5 1 18 -3
21 -20 16 -57 -16 -135 -26 -178 -23 -35 2 -47 0 -43 -10 3 -8 -8 -12 -36 -12
-32 0 -41 4 -51 24 -16 37 -32 38 -64 5 -18 -19 -38 -29 -58 -29 l-30 0 43 36
42 36 -35 27 c-45 33 -138 137 -158 175 l-16 30 -6 -32 c-4 -17 -21 -49 -37
-72 -23 -32 -27 -44 -19 -60 24 -45 5 -120 -30 -120 -25 0 -36 39 -22 80 6 16
10 30 9 30 -2 0 -20 -9 -42 -20 -22 -11 -47 -20 -56 -20 -9 0 -19 -10 -22 -21
-4 -16 -11 -20 -26 -16 -18 4 -20 2 -15 -20 6 -22 4 -24 -17 -21 -13 2 -32 17
-44 35 -11 18 -22 32 -25 32 -3 0 -14 -14 -25 -32 -24 -39 -71 -52 -62 -17 4
17 2 20 -14 15 -33 -11 -36 25 -5 52 16 13 26 27 23 30 -14 13 -64 -17 -87
-51 -31 -47 -40 -29 -9 20 l22 36 -22 -12 c-13 -6 -32 -28 -44 -47 -11 -20
-23 -31 -25 -24 -2 6 3 23 12 36 9 13 16 27 16 31 0 14 -48 -38 -66 -72 -10
-18 -22 -34 -26 -34 -14 0 -9 16 15 51 39 58 41 65 10 36 -17 -16 -39 -44 -49
-63 -17 -32 -34 -45 -34 -26 0 22 62 101 94 121 31 19 47 22 117 19 l80 -3
-25 20 c-34 27 -35 59 -3 53 20 -4 23 -1 19 19 -5 28 22 32 50 6 17 -15 18
-15 18 1 0 10 15 33 34 52 38 38 85 45 124 18 29 -20 30 -64 1 -64 -16 0 -20
5 -17 28 3 24 -1 27 -29 30 -18 2 -42 -2 -53 -8 -33 -18 -66 -110 -40 -110 6
0 10 6 10 14 0 7 11 25 25 40 20 22 29 25 40 16 7 -6 11 -19 8 -27 -5 -12 -2
-15 10 -10 8 3 21 0 27 -8 9 -11 7 -19 -12 -37 -13 -13 -33 -28 -44 -34 -18
-11 -17 -13 10 -23 34 -13 75 -7 128 20 48 25 58 40 18 29 -56 -16 -100 16
-68 48 15 15 92 16 118 2 16 -9 22 -5 35 20 14 26 14 30 1 30 -20 0 -39 37
-33 66 4 20 2 22 -15 13 -11 -6 -22 -9 -24 -6 -2 2 7 34 21 71 14 36 25 68 25
70 0 3 -15 10 -34 16 -19 6 -40 17 -46 25 -9 11 -17 12 -32 4 -32 -17 -48 5
-42 59 5 39 2 53 -18 82 -77 114 -236 50 -184 -74 17 -40 67 -76 108 -76 37 0
58 -10 58 -27 0 -43 -81 -143 -141 -174 -26 -13 -59 -19 -101 -19 -62 0 -64
-1 -82 -35 -10 -19 -36 -46 -57 -61 -21 -14 -50 -46 -63 -69 -14 -23 -49 -63
-77 -89 -51 -46 -51 -46 -125 -46 -83 0 -84 2 -55 66 20 44 53 61 72 38 9 -10
6 -23 -10 -54 l-21 -40 48 24 c26 13 68 46 92 73 l45 48 -37 5 c-28 4 -46 16
-78 53 -52 59 -103 89 -200 117 -104 31 -148 55 -172 96 l-20 34 -28 -20 c-42
-30 -64 -85 -68 -173 l-4 -77 -42 0 c-53 0 -86 -9 -86 -24 0 -20 62 -78 104
-97 54 -24 117 -24 166 1 47 24 51 32 11 24 -33 -7 -49 10 -31 31 10 12 9 15
-5 15 -10 0 -15 6 -13 17 2 13 15 19 46 21 46 3 49 7 27 36 -8 11 -15 30 -15
43 0 18 -5 23 -27 23 -41 0 -60 -15 -45 -33 10 -11 9 -17 -2 -27 -37 -30 -49
24 -13 58 27 26 61 28 101 7 27 -14 31 -14 39 0 14 26 37 -2 37 -46 l0 -39 38
19 c40 21 69 15 59 -12 -3 -9 1 -21 9 -28 22 -18 -2 -39 -46 -39 l-38 0 18
-36 c10 -20 16 -42 13 -50 -6 -17 -33 -19 -33 -1 0 6 -5 4 -11 -6 -16 -27 -39
-20 -45 13 l-6 30 -35 -30 c-20 -18 -50 -33 -75 -37 -34 -5 -38 -8 -23 -14 13
-5 1 -8 -37 -8 -50 -1 -62 3 -102 34 -53 40 -56 41 -56 17 0 -24 -26 -59 -36
-49 -4 4 -2 13 4 19 24 24 1 128 -28 128 -6 0 -46 -34 -89 -75 -63 -61 -84
-75 -110 -75 -31 0 -31 0 41 68 40 38 88 82 106 98 l32 29 -19 51 c-11 29 -21
72 -23 98 -2 25 -4 46 -4 46 -1 0 -13 -18 -28 -40 -24 -37 -25 -43 -14 -84 13
-50 2 -91 -28 -103 -22 -8 -47 25 -41 54 3 18 -6 13 -50 -27 -30 -28 -59 -50
-64 -50 -5 0 -4 -9 3 -19 19 -30 -5 -51 -59 -51 l-44 0 20 -29 c12 -16 21 -32
21 -35 0 -3 -25 -6 -55 -6 -52 0 -55 1 -55 25 l0 24 -34 -20 c-18 -11 -46 -20
-62 -21 -145 -5 -444 -7 -461 -3 -12 3 -27 14 -33 24 -16 30 14 54 61 49 37
-3 38 -2 31 22 -10 39 -6 77 12 105 28 43 86 28 86 -22 0 -25 -30 -46 -54 -37
-20 8 -21 -17 -2 -54 19 -37 45 -59 81 -68 29 -7 30 -7 13 13 -21 23 -24 73
-6 91 19 19 48 15 48 -8 0 -13 -7 -20 -20 -20 -20 0 -25 -15 -14 -45 10 -26
58 -45 98 -38 l36 6 -32 16 c-45 23 -57 46 -36 68 15 14 23 15 56 5 21 -6 49
-23 62 -37 24 -26 54 -33 65 -15 3 6 -1 10 -9 10 -9 0 -16 6 -16 13 0 24 24
37 68 37 l44 0 -21 34 c-27 43 -27 76 -1 83 11 3 20 13 20 22 1 23 31 59 60
69 29 11 70 -4 70 -25 0 -22 -31 -28 -45 -10 -17 23 -31 21 -49 -5 -21 -29
-20 -38 3 -38 23 0 31 -19 31 -71 l0 -40 29 20 c16 12 40 21 53 21 13 0 45 19
76 46 52 46 69 74 33 54 -28 -15 -77 -12 -91 5 -32 39 43 82 116 67 39 -8 45
-7 57 12 28 43 28 45 -4 29 -43 -22 -169 -8 -154 17 3 5 20 4 38 -1 17 -5 45
-9 62 -8 26 1 24 2 -12 11 -62 13 -53 27 15 23 31 -3 48 -2 37 1 -43 12 -38
24 10 25 51 1 51 3 2 13 -40 9 -24 26 18 19 43 -7 59 5 91 69 23 45 22 62 -3
37 -16 -16 -67 -7 -71 14 -5 26 50 75 100 88 37 10 49 21 83 71 66 99 174 187
322 264 63 33 63 34 40 49 -34 22 -81 29 -120 16 -18 -6 -76 -47 -127 -91 -83
-71 -135 -104 -191 -123 -9 -3 -19 -21 -22 -42 -12 -73 -94 -142 -189 -160
-34 -7 -36 -9 -40 -56 -10 -104 -86 -193 -191 -224 -45 -13 -55 -21 -70 -55
-38 -82 -132 -152 -240 -179 -56 -14 -62 -11 -70 28 -8 39 -50 61 -116 61 -57
0 -97 13 -127 41 l-21 20 -17 -41 c-25 -64 -21 -104 14 -133 41 -35 39 -57 -4
-57 -46 0 -110 -24 -159 -60 -27 -20 -53 -30 -75 -30 -30 0 -33 2 -22 15 23
28 161 115 182 115 15 0 18 4 12 18 -17 40 -16 100 5 146 11 26 16 44 11 41
-20 -13 -42 -96 -38 -144 5 -45 3 -50 -21 -61 -67 -29 -175 -116 -165 -132 3
-4 846 -8 1875 -8 l1869 0 0 1145 0 1145 -1875 0 c-1031 0 -1875 -4 -1875 -8z
m1318 -19 c5 -17 -26 -29 -40 -15 -6 6 -7 15 -3 22 9 14 37 9 43 -7z m2225
-949 l12 -27 5 24 c4 17 13 24 30 24 22 0 25 -5 28 -44 2 -23 -1 -56 -7 -72
-12 -34 -13 -33 32 -14 20 8 50 15 67 15 27 0 30 -3 30 -30 0 -22 -5 -30 -17
-30 -15 0 -15 -1 1 -13 11 -8 17 -23 14 -38 -2 -20 -8 -24 -38 -24 -19 0 -48
4 -64 8 -25 7 -28 6 -21 -10 21 -50 28 -102 15 -118 -17 -21 -41 -19 -47 5 -6
23 -23 27 -23 6 0 -7 -6 -19 -14 -25 -11 -9 -18 -8 -31 6 -13 13 -16 27 -12
62 3 25 9 54 12 63 7 17 5 17 -30 2 -52 -22 -109 -15 -113 13 -2 15 3 23 19
28 l21 7 -23 12 c-32 16 -34 32 -5 51 22 15 31 15 79 3 l54 -14 -14 33 c-19
46 -20 103 -2 114 22 14 29 11 42 -17z m-2225 -1291 c2 -8 -6 -13 -22 -13 -25
0 -33 10 -19 24 10 10 36 3 41 -11z"/>
<path d="M11753 1514 c-9 -23 13 -40 32 -24 12 10 13 16 4 26 -15 18 -28 18
-36 -2z"/>
<path d="M3740 2579 c-30 -23 -74 -51 -98 -61 -37 -17 -42 -22 -35 -41 14 -37
7 -101 -16 -145 -12 -23 -19 -42 -16 -42 3 0 17 24 30 53 25 52 30 95 16 132
-7 16 -1 23 30 37 52 23 167 108 146 108 -1 0 -27 -19 -57 -41z"/>
<path d="M8250 2596 c24 -26 60 -52 60 -42 0 2 -19 19 -42 37 -40 30 -41 31
-18 5z"/>
<path d="M3781 2572 c-25 -20 -65 -48 -90 -62 -46 -25 -46 -25 -52 -90 -4 -36
-14 -83 -24 -105 -17 -40 -71 -105 -88 -105 -5 0 -28 20 -51 44 -42 43 -45 44
-127 51 -76 7 -86 10 -116 40 -35 35 -39 36 -23 4 16 -29 61 -48 136 -55 79
-8 120 -25 129 -54 8 -25 40 -43 64 -35 48 15 111 143 111 225 0 48 1 50 43
71 23 12 63 39 89 60 l47 39 2182 0 2183 0 56 -44 c31 -25 72 -52 91 -61 33
-16 34 -19 35 -73 1 -34 9 -76 21 -103 25 -55 79 -119 101 -119 9 0 35 20 58
45 36 40 46 45 85 45 86 1 166 33 177 71 2 8 -5 4 -15 -7 -27 -32 -51 -41
-133 -49 -72 -7 -77 -9 -117 -51 -24 -24 -49 -44 -56 -44 -44 0 -125 171 -112
237 5 30 3 34 -36 53 -23 12 -67 42 -98 66 l-56 44 -2185 0 -2185 0 -44 -38z"/>
<path d="M410 2561 c-14 -3 -52 -19 -85 -35 l-60 -29 33 -33 c33 -33 40 -58
21 -70 -6 -3 -16 -1 -22 5 -18 18 -25 13 -20 -13 5 -24 6 -24 45 -10 60 21 92
43 117 80 21 30 29 34 68 34 41 0 115 28 127 49 14 22 -158 39 -224 22z"/>
<path d="M11428 2559 c-21 -6 -38 -15 -38 -19 0 -17 88 -50 132 -50 38 0 47
-4 56 -24 15 -33 73 -75 124 -91 42 -12 43 -12 44 11 2 20 -1 22 -16 14 -40
-21 -41 26 0 65 33 31 32 40 -6 49 -14 4 -38 16 -53 27 -21 16 -47 21 -117 24
-49 2 -106 -1 -126 -6z"/>
<path d="M8329 2536 c7 -8 28 -21 46 -27 33 -12 33 -12 28 -69 -5 -48 -1 -64
25 -115 16 -33 40 -69 52 -80 l22 -20 18 23 c10 12 20 27 22 32 5 17 79 39
132 40 56 0 108 28 126 68 8 18 15 22 33 16 55 -17 118 -57 152 -96 20 -24 32
-34 27 -23 -24 48 -117 114 -183 130 -20 5 -27 1 -37 -19 -17 -38 -69 -66
-122 -66 -72 0 -117 -17 -141 -53 -13 -18 -24 -34 -26 -36 -6 -8 -45 46 -68
94 -26 52 -32 113 -16 144 8 15 1 22 -47 45 -34 17 -51 22 -43 12z"/>
<path d="M647 2500 c-35 -28 -91 -50 -125 -50 -27 0 -30 -3 -35 -49 -13 -109
-94 -222 -179 -250 -29 -10 -40 -21 -53 -54 -9 -23 -28 -59 -42 -81 l-25 -38
28 -29 c55 -57 154 -23 154 53 0 13 -5 18 -14 15 -20 -8 -37 15 -26 33 8 12
13 13 29 3 17 -11 21 -9 29 16 10 29 38 61 52 61 5 0 14 -9 20 -19 13 -26 -1
-62 -42 -106 -18 -19 -43 -48 -56 -64 -12 -16 -36 -33 -54 -36 l-31 -7 30 -13
c52 -22 90 -27 132 -15 l41 11 -35 30 c-35 31 -45 62 -25 74 6 4 17 1 26 -5
12 -11 14 -9 12 11 -2 18 2 24 17 24 14 0 27 -14 41 -44 19 -40 21 -42 27 -20
10 38 9 46 -19 79 -15 17 -23 34 -19 38 4 4 20 -9 37 -28 27 -31 29 -32 23
-10 -4 14 -16 36 -26 49 -28 35 -22 51 6 19 13 -16 27 -28 30 -28 10 0 -27 64
-53 93 -14 15 -21 27 -16 27 12 0 57 -46 72 -75 15 -26 15 0 1 28 -6 12 -27
39 -47 59 -37 39 -38 65 -1 32 70 -62 95 -147 64 -221 -19 -44 -19 -49 0 -33
21 17 48 4 42 -20 -4 -17 -2 -18 13 -10 50 27 68 111 31 144 -16 15 -19 15
-24 1 -10 -25 -39 -19 -35 8 4 32 42 34 73 3 33 -33 34 -92 3 -132 -21 -26
-21 -27 -3 -20 72 29 134 15 189 -43 l29 -30 20 52 c20 53 26 111 14 124 -4 4
-23 -9 -42 -27 -30 -29 -35 -31 -35 -14 0 11 8 36 18 55 l18 36 -75 33 c-72
33 -74 34 -49 45 l27 10 -25 24 c-31 30 -31 59 0 67 14 3 30 2 37 -2 9 -5 10
-2 5 12 -18 42 -27 87 -22 100 7 19 -32 34 -85 34 -52 0 -99 -43 -99 -90 0
-26 3 -31 16 -26 21 8 45 -11 37 -30 -3 -8 -13 -14 -23 -14 -27 0 -50 33 -50
74 0 30 7 45 34 72 30 30 40 34 88 34 l53 1 -39 34 c-46 41 -54 42 -89 15z"/>
<path d="M11289 2488 l-44 -33 57 -5 c67 -6 114 -43 124 -97 8 -43 -18 -86
-49 -81 -32 4 -30 43 2 43 30 0 37 17 21 56 -21 49 -88 71 -157 53 -18 -5 -23
-14 -23 -40 0 -19 -6 -50 -14 -68 l-14 -34 31 2 c26 1 33 -3 35 -22 2 -14 -5
-33 -18 -47 l-22 -23 23 -7 c20 -7 15 -12 -46 -43 -39 -19 -72 -36 -74 -38 -1
-1 4 -13 13 -26 9 -12 16 -36 16 -52 l0 -30 -35 34 -34 33 -11 -28 c-9 -23 -7
-36 9 -69 11 -23 22 -49 25 -59 5 -16 11 -14 48 17 55 47 104 56 171 30 12 -4
11 3 -5 35 -24 48 -18 88 18 122 21 20 29 22 53 12 26 -9 29 -8 40 21 14 39
77 113 87 103 4 -4 -4 -20 -18 -35 -36 -39 -58 -74 -58 -92 0 -8 8 -1 18 15
23 36 50 60 59 51 4 -3 -5 -19 -19 -34 -26 -28 -48 -64 -48 -79 1 -4 12 5 25
22 13 16 27 26 31 23 3 -4 -5 -21 -20 -38 -14 -17 -26 -41 -26 -52 0 -17 4
-15 26 11 14 17 30 31 36 31 5 0 -2 -14 -16 -31 -17 -20 -26 -43 -26 -65 0
-45 11 -43 32 7 13 29 22 40 35 37 11 -2 18 -12 17 -25 0 -18 3 -20 18 -12 10
5 23 7 28 4 19 -12 10 -37 -24 -71 l-34 -34 39 -12 c33 -9 49 -8 96 6 l56 18
-41 18 c-22 10 -46 29 -53 42 -6 12 -29 42 -50 65 -39 43 -52 94 -29 108 18
11 58 -23 65 -55 6 -26 9 -29 27 -19 24 13 44 -2 34 -26 -4 -11 -12 -14 -26
-10 -31 10 -26 -31 9 -66 38 -37 88 -39 127 -5 l28 23 -42 84 c-39 78 -46 86
-97 113 -87 45 -138 118 -157 227 -9 54 -12 59 -37 59 -29 0 -125 42 -135 59
-12 18 -31 13 -77 -21z"/>
<path d="M1667 2431 l-29 -6 25 -23 c31 -29 51 -76 43 -98 -10 -26 -49 -13
-67 23 -20 40 -29 33 -29 -23 0 -34 5 -47 26 -63 28 -22 60 -27 83 -12 12 8
12 13 3 24 -10 11 -9 17 2 27 20 16 36 5 36 -25 0 -48 -80 -73 -128 -39 -22
15 -23 15 -16 -13 9 -38 8 -38 69 -38 44 0 59 -5 77 -23 23 -23 23 -23 4 -38
-26 -18 -49 -18 -89 2 l-32 16 35 -37 c47 -49 90 -72 101 -53 5 7 9 16 9 19 0
14 53 19 91 9 23 -6 43 -10 44 -8 2 2 -3 25 -12 51 -12 37 -13 54 -5 73 14 29
36 31 55 4 l14 -21 6 21 c3 12 13 20 26 20 32 0 43 -39 27 -100 -7 -27 -12
-50 -11 -50 2 0 19 7 38 15 47 20 91 19 108 -1 11 -14 10 -19 -9 -35 -21 -17
-22 -18 -5 -27 10 -5 23 -7 30 -5 13 5 31 -24 49 -82 12 -38 13 -38 13 -10 0
17 -11 57 -24 90 -14 33 -25 64 -25 68 0 20 24 -10 46 -57 35 -76 33 -148 -7
-212 l-31 -49 42 40 c23 22 60 66 82 98 l39 58 -25 30 c-44 52 -48 111 -9 117
24 4 42 -22 53 -73 5 -28 7 -27 28 29 29 77 28 102 -7 137 -36 36 -72 39 -68
7 3 -27 -30 -37 -40 -12 -8 21 29 54 63 54 13 0 39 -14 59 -31 28 -25 35 -28
35 -14 0 10 -16 33 -35 52 -42 41 -54 78 -32 101 15 15 19 14 43 -9 l26 -24
-7 25 c-22 73 -34 92 -57 86 -13 -3 -37 -6 -54 -6 -31 0 -31 0 -37 -66 -8 -83
-44 -151 -100 -187 -22 -15 -47 -27 -54 -27 -6 0 -20 16 -29 36 -22 46 -72 78
-154 99 -92 23 -175 71 -224 127 -22 26 -43 47 -46 47 -3 -1 -18 -4 -33 -8z"/>
<path d="M10280 2398 c-56 -65 -106 -96 -212 -129 -106 -32 -161 -69 -172
-115 -6 -22 -11 -25 -34 -19 -77 19 -142 116 -142 213 0 58 0 57 -72 66 l-46
5 -16 -40 c-21 -53 -20 -66 4 -44 27 24 50 13 50 -26 0 -23 -10 -42 -40 -71
-31 -31 -38 -44 -30 -57 6 -10 10 -11 10 -3 0 17 59 52 88 52 28 0 63 -35 56
-55 -4 -8 -15 -15 -25 -15 -14 0 -19 7 -19 26 0 24 -3 25 -27 19 -67 -16 -82
-57 -52 -141 22 -62 39 -75 39 -30 0 13 8 30 18 39 58 53 77 -40 20 -100 -20
-22 -21 -25 -6 -56 19 -39 104 -143 123 -151 8 -3 4 10 -10 31 -29 41 -40 90
-31 136 9 47 54 139 65 132 6 -3 0 -28 -14 -58 -12 -28 -26 -70 -29 -92 -6
-37 -5 -35 19 20 14 33 25 62 25 64 0 2 6 1 13 -2 7 -3 23 1 36 8 l23 12 -22
6 c-16 4 -21 12 -18 29 2 19 10 24 40 26 20 2 53 -4 73 -12 34 -15 37 -15 31
1 -15 39 -18 103 -6 118 18 22 48 18 56 -7 l7 -23 8 23 c16 42 59 20 59 -30 0
-16 -7 -45 -15 -64 l-15 -36 26 6 c86 22 120 15 126 -25 3 -20 5 -19 52 13 27
18 56 43 64 56 14 22 14 22 -14 7 -35 -18 -66 -19 -82 -3 -34 34 24 74 93 64
40 -6 43 -5 49 20 9 33 3 39 -22 25 -35 -18 -77 -13 -101 13 -27 28 -24 61 4
61 16 0 20 -7 20 -30 0 -35 21 -43 66 -25 39 17 49 37 42 90 l-6 43 -19 -37
c-14 -27 -25 -36 -43 -36 -38 0 -35 54 6 103 27 33 28 37 11 37 -11 0 -26 2
-34 4 -7 2 -29 -14 -48 -36z"/>
<path d="M175 2379 c-15 -28 -25 -52 -23 -54 2 -2 27 4 56 14 51 18 52 18 32
36 -11 10 -20 24 -20 31 0 33 -22 20 -45 -27z"/>
<path d="M11794 2391 l-21 -38 49 -16 c26 -8 48 -11 48 -6 0 13 -43 99 -49 99
-4 0 -15 -17 -27 -39z"/>
<path d="M3180 2411 c-56 -18 -110 -53 -146 -96 -20 -25 -35 -48 -32 -50 3 -3
19 15 36 39 22 30 50 53 85 70 80 38 91 39 102 14 16 -35 73 -68 119 -68 69
-1 119 -17 143 -47 13 -15 23 -23 23 -17 0 18 -45 54 -81 64 -19 6 -53 10 -77
10 -55 0 -97 22 -117 60 -17 32 -17 32 -55 21z"/>
<path d="M410 2374 c-19 -14 -59 -32 -88 -40 -44 -13 -52 -19 -46 -32 4 -10
10 -41 12 -69 4 -49 5 -52 24 -42 44 24 97 82 117 130 30 69 25 83 -19 53z"/>
<path d="M11576 2373 c12 -53 59 -127 98 -155 51 -36 67 -37 60 0 -3 16 1 45
9 65 l16 36 -53 15 c-29 9 -69 27 -90 41 -46 31 -48 31 -40 -2z"/>
<path d="M1557 2372 c-9 -10 -23 -35 -32 -56 -12 -29 -20 -36 -33 -31 -77 32
-169 4 -222 -68 -34 -47 -37 -57 -14 -57 66 0 144 -85 144 -157 0 -120 -116
-178 -220 -109 -46 30 -85 102 -77 142 2 13 2 24 -1 24 -15 0 -82 -54 -82 -67
0 -13 77 -173 83 -173 2 0 4 14 4 30 0 39 17 58 40 44 28 -17 37 -63 24 -113
l-12 -45 46 -45 c45 -45 46 -46 38 -16 -11 44 -7 75 12 94 15 15 18 14 36 -8
22 -27 23 -42 4 -96 -8 -21 -13 -40 -12 -40 1 0 10 -7 19 -14 15 -11 25 -7 80
39 66 55 128 89 164 90 15 0 26 12 39 39 21 48 69 95 115 115 47 19 122 29
158 21 l30 -6 4 -97 c3 -79 9 -108 31 -155 30 -67 49 -70 58 -11 9 69 51 118
77 92 16 -16 15 -33 -4 -69 l-15 -30 29 15 c16 8 43 31 61 51 35 40 40 82 16
129 -9 16 -13 32 -9 35 10 11 44 -40 44 -67 0 -20 3 -23 12 -14 9 9 8 24 -5
65 -9 30 -17 57 -17 61 0 16 23 -8 36 -38 l13 -31 1 27 c0 15 -7 46 -16 68
-16 39 -17 40 -31 20 -16 -22 -64 -27 -109 -10 -15 6 -28 9 -31 7 -2 -2 4 -21
12 -41 20 -46 16 -85 -8 -100 -14 -9 -21 -7 -31 7 -16 21 -26 22 -26 3 0 -20
-25 -27 -45 -12 -14 10 -17 23 -13 62 3 27 9 57 13 68 8 17 6 17 -23 2 -41
-21 -111 -21 -119 0 -3 8 -26 25 -51 37 -26 11 -63 38 -84 59 l-38 38 0 -61
c0 -119 -37 -184 -137 -236 -75 -40 -103 -48 -103 -31 0 7 29 26 64 41 35 16
79 45 97 65 26 27 28 32 9 19 -41 -29 -123 -66 -132 -61 -16 10 -8 20 26 32
41 15 116 68 116 82 0 6 -19 1 -41 -11 -28 -14 -45 -17 -51 -11 -7 7 4 18 33
32 54 27 79 49 79 67 0 10 -11 6 -37 -12 -37 -25 -73 -33 -73 -16 0 5 13 14
30 21 66 28 96 81 81 150 -6 30 -8 32 -14 14 -21 -61 -103 -91 -150 -54 -30
24 -36 57 -11 67 23 9 40 -12 25 -31 -10 -12 -8 -17 8 -26 27 -14 64 -4 92 26
18 19 23 41 30 116 4 51 11 101 14 111 9 22 2 22 -18 -1z"/>
<path d="M8830 2386 c0 -2 24 -18 54 -34 29 -17 65 -46 80 -64 14 -18 26 -28
26 -23 0 18 -72 81 -117 104 -24 12 -43 19 -43 17z"/>
<path d="M10457 2302 c8 -121 20 -153 65 -175 48 -24 77 -15 75 21 -2 30 27
43 37 16 9 -23 -19 -62 -49 -70 -37 -9 -95 14 -114 47 -23 41 -31 36 -31 -19
0 -57 18 -85 71 -112 38 -20 52 -40 27 -40 -7 0 -32 11 -55 25 -24 13 -43 20
-43 16 0 -14 41 -51 80 -71 22 -11 40 -25 40 -30 0 -15 -17 -12 -63 11 l-42
21 29 -31 c17 -17 50 -41 75 -53 57 -26 54 -24 46 -37 -7 -13 -97 29 -134 63
l-24 21 17 -26 c21 -33 75 -71 140 -99 33 -14 46 -24 39 -31 -15 -15 -114 32
-167 81 -53 49 -69 91 -70 181 l-1 66 -48 -43 c-27 -24 -64 -49 -83 -56 -18
-6 -36 -20 -40 -30 -7 -22 -69 -25 -118 -4 l-33 14 13 -37 c18 -50 17 -75 -5
-102 -16 -20 -21 -21 -35 -10 -9 7 -16 21 -17 30 0 11 -3 10 -11 -6 -14 -28
-44 -30 -58 -3 -11 21 -5 59 17 104 14 27 14 28 -3 22 -11 -4 -40 -10 -65 -13
-35 -4 -49 -1 -63 12 -21 21 -29 13 -46 -45 -17 -60 -10 -79 11 -32 22 51 45
49 23 -3 -8 -19 -14 -49 -13 -67 l0 -33 17 44 c9 24 23 46 31 49 11 4 12 0 6
-14 -29 -69 -29 -91 -3 -132 25 -37 98 -91 98 -72 0 5 -4 12 -10 15 -13 8 -13
72 0 80 29 18 67 -37 72 -105 5 -59 31 -50 63 22 25 54 29 76 29 156 l1 92 34
6 c52 10 151 -12 196 -44 24 -17 49 -47 65 -79 20 -41 30 -52 49 -52 38 -1
103 -37 165 -91 49 -43 60 -49 78 -39 15 8 18 16 13 32 -14 43 -17 95 -6 116
29 54 72 -2 54 -71 l-11 -40 49 48 c38 38 46 51 38 65 -17 32 -11 104 11 124
26 23 50 5 51 -39 0 -27 6 -18 46 59 l45 89 -37 33 c-21 18 -42 33 -47 33 -4
0 -8 -16 -8 -35 0 -45 -20 -85 -60 -119 -115 -96 -273 -5 -231 134 13 44 77
107 118 116 16 3 32 7 37 8 18 4 -62 92 -104 114 -44 23 -104 26 -151 7 -12
-5 -20 2 -27 25 -6 17 -20 42 -31 55 l-19 25 5 -88z"/>
<path d="M3117 2349 c-26 -17 -56 -44 -68 -61 -29 -41 -20 -44 11 -3 14 18 47
47 75 64 27 17 45 31 39 31 -6 0 -32 -14 -57 -31z"/>
<path d="M171 2281 c-27 -27 -27 -51 0 -85 13 -17 30 -26 49 -26 25 0 28 4 33
38 9 74 -38 117 -82 73z"/>
<path d="M877 2293 c-13 -12 -7 -48 13 -80 22 -36 35 -41 44 -17 11 29 -39
116 -57 97z"/>
<path d="M11132 2293 c-28 -10 -59 -113 -33 -113 15 0 41 30 47 55 8 33 1 63
-14 58z"/>
<path d="M11786 2284 c-16 -15 -21 -69 -10 -98 9 -22 50 -20 74 4 25 25 26 72
2 93 -23 21 -46 22 -66 1z"/>
<path d="M3550 2265 c-7 -9 -11 -17 -9 -20 3 -2 10 5 17 15 14 24 10 26 -8 5z"/>
<path d="M9026 2240 c4 -14 11 -30 16 -37 10 -13 15 -15 85 -33 75 -19 125
-77 143 -163 7 -37 8 -38 9 -11 1 43 -46 132 -83 155 -17 11 -57 27 -89 36
-48 14 -61 22 -73 47 -11 24 -12 26 -8 6z"/>
<path d="M9000 2228 c0 -4 5 -18 11 -31 8 -18 26 -28 67 -40 31 -9 58 -14 60
-12 2 2 -21 11 -52 20 -41 12 -60 24 -71 43 -8 15 -14 24 -15 20z"/>
<path d="M2980 2213 c0 -6 -23 -16 -51 -23 -27 -7 -48 -14 -46 -17 3 -2 25 1
51 8 45 11 64 24 52 36 -3 4 -6 2 -6 -4z"/>
<path d="M3006 2202 c-4 -13 -25 -24 -64 -35 -73 -21 -117 -49 -142 -89 -31
-51 -23 -57 8 -7 30 46 66 68 149 89 38 10 73 43 60 57 -3 2 -8 -4 -11 -15z"/>
<path d="M133 2122 c6 -50 25 -102 38 -102 11 0 59 101 53 111 -3 5 -13 9 -23
9 -9 0 -26 7 -37 15 -31 24 -37 18 -31 -33z"/>
<path d="M2820 2144 c-44 -38 -70 -94 -75 -166 l-4 -63 8 54 c15 89 39 140 84
172 22 16 35 29 29 29 -6 0 -25 -12 -42 -26z"/>
<path d="M11866 2154 c-11 -8 -30 -14 -43 -14 -14 0 -23 -6 -23 -16 0 -22 51
-115 60 -109 13 8 32 90 28 122 -3 29 -4 31 -22 17z"/>
<path d="M9192 2104 c15 -16 34 -45 42 -64 8 -19 15 -29 16 -21 0 22 -40 86
-63 100 -18 11 -17 8 5 -15z"/>
<path d="M11341 2097 c-6 -8 -14 -31 -18 -50 -4 -28 0 -40 27 -70 30 -35 67
-55 40 -22 -20 24 2 42 33 28 l23 -11 -19 58 c-14 42 -23 57 -34 53 -8 -3 -20
2 -27 12 -11 15 -14 15 -25 2z"/>
<path d="M986 2068 c10 -34 12 -34 42 -5 l27 27 -38 0 c-35 0 -38 -2 -31 -22z"/>
<path d="M10980 2084 c0 -3 10 -14 22 -24 17 -13 25 -15 30 -7 15 24 8 37 -22
37 -16 0 -30 -3 -30 -6z"/>
<path d="M1963 2014 c-8 -21 13 -42 28 -27 13 13 5 43 -11 43 -6 0 -13 -7 -17
-16z"/>
<path d="M10030 2016 c-13 -17 -6 -36 15 -36 19 0 26 27 11 39 -10 8 -17 7
-26 -3z"/>
<path d="M2772 1995 c0 -16 2 -22 5 -12 2 9 2 23 0 30 -3 6 -5 -1 -5 -18z"/>
<path d="M9282 1940 c0 -14 2 -19 5 -12 2 6 2 18 0 25 -3 6 -5 1 -5 -13z"/>
<path d="M971 1932 c-16 -29 -14 -88 4 -123 l16 -29 -55 6 c-74 9 -106 -12
-197 -129 -40 -51 -85 -106 -102 -124 l-30 -32 32 -32 c18 -17 58 -66 90 -108
32 -42 70 -87 84 -99 36 -34 94 -52 131 -41 45 13 46 12 30 -26 -17 -42 -18
-92 0 -124 l13 -24 12 36 c7 19 40 78 75 131 35 53 58 96 51 96 -7 0 -33 11
-59 25 -42 23 -46 23 -46 6 0 -24 -25 -45 -45 -37 -8 3 -15 13 -15 23 0 15 -4
14 -20 -7 -42 -54 -78 27 -46 104 8 20 14 36 12 36 -2 0 -20 -7 -39 -15 -44
-18 -89 -19 -105 -3 -21 21 -14 46 15 55 l28 10 -28 6 c-33 9 -37 41 -6 58 20
10 69 4 123 -17 14 -6 15 -3 1 30 -22 51 -20 103 4 116 27 14 28 13 45 -17 10
-18 15 -22 16 -12 0 9 7 22 15 29 20 17 45 -3 45 -37 l0 -25 33 20 c17 11 44
22 59 26 l27 6 -46 66 c-25 36 -61 95 -79 131 -29 59 -33 63 -43 45z"/>
<path d="M9251 1930 c-1 -26 15 -50 33 -50 5 0 3 6 -6 13 -9 6 -19 23 -21 37
l-4 25 -2 -25z"/>
<path d="M11008 1883 c-18 -38 -54 -96 -80 -130 -26 -35 -41 -63 -34 -63 7 0
34 -11 59 -24 43 -21 47 -22 47 -5 0 19 25 49 41 49 5 0 15 -11 21 -25 l11
-25 11 23 c15 29 37 28 55 -4 13 -23 12 -32 -2 -75 -9 -27 -15 -50 -14 -51 1
-1 24 5 51 14 43 14 52 15 75 2 32 -18 33 -40 4 -55 l-23 -11 25 -11 c29 -13
31 -24 9 -46 -19 -20 -50 -20 -103 -1 -22 8 -41 13 -41 12 0 -1 7 -24 15 -51
19 -62 19 -71 -1 -90 -23 -24 -43 -19 -50 10 l-7 27 -14 -27 c-18 -34 -42 -33
-55 2 l-11 28 -45 -23 c-25 -13 -51 -23 -58 -23 -7 0 8 -28 34 -62 26 -35 61
-91 77 -125 17 -35 33 -63 37 -63 4 0 12 17 17 38 10 36 6 64 -14 116 -7 16
-5 17 15 11 78 -25 132 4 217 115 32 41 77 95 100 120 l43 47 -31 29 c-17 16
-57 63 -89 105 -100 129 -142 158 -222 145 -36 -6 -40 -5 -33 11 20 51 24 79
14 115 -5 21 -12 38 -14 38 -2 0 -19 -30 -37 -67z"/>
<path d="M2636 1895 c-81 -29 -127 -86 -125 -155 1 -32 2 -31 9 11 4 26 13 56
19 67 15 28 68 59 132 76 30 8 43 15 29 15 -14 0 -43 -6 -64 -14z"/>
<path d="M2760 1902 c0 -6 -19 -15 -42 -21 l-43 -11 39 5 c40 4 65 19 53 32
-4 3 -7 1 -7 -5z"/>
<path d="M9313 1903 c9 -2 23 -2 30 0 6 3 -1 5 -18 5 -16 0 -22 -2 -12 -5z"/>
<path d="M9417 1872 c61 -30 62 -32 78 -89 22 -79 26 -86 20 -33 -10 79 -54
128 -130 145 -18 4 -4 -6 32 -23z"/>
<path d="M9308 1873 c6 -2 18 -2 25 0 6 3 1 5 -13 5 -14 0 -19 -2 -12 -5z"/>
<path d="M1739 1860 c-67 -20 -113 -75 -125 -149 -5 -34 -10 -41 -23 -35 -43
19 -77 15 -121 -15 -25 -16 -58 -43 -73 -59 l-29 -30 36 -12 c20 -6 33 -16 30
-22 -4 -6 1 -6 14 1 11 6 44 11 73 11 50 0 51 1 36 18 -21 23 -22 58 -2 66 33
12 73 -14 91 -59 9 -25 28 -52 43 -61 l26 -18 -27 32 c-28 34 -52 92 -46 117
2 11 22 -3 65 -45 l63 -60 15 30 c13 26 42 50 59 50 7 0 -23 -80 -37 -98 -7
-8 -1 -31 18 -73 15 -33 24 -63 21 -66 -3 -4 -23 12 -45 35 l-39 40 -23 -26
c-36 -42 -43 -120 -14 -152 16 -18 19 -18 30 -3 15 21 48 10 43 -14 -5 -28
-51 -28 -84 0 -22 19 -28 33 -28 63 0 22 4 48 8 59 7 15 2 13 -22 -9 l-32 -30
0 25 c0 13 12 44 25 68 14 24 24 44 23 45 -2 1 -21 -1 -43 -5 -30 -5 -33 -7
-12 -8 32 -1 31 1 12 -43 -24 -58 -114 -80 -102 -25 2 12 8 29 11 38 6 13 2
16 -17 12 -13 -3 -40 0 -61 5 -20 6 -34 7 -31 3 2 -5 -14 -13 -36 -20 l-40
-12 43 -39 c62 -56 102 -74 154 -66 l42 5 7 -39 c14 -83 79 -140 171 -150 l51
-6 6 82 c3 59 12 98 31 139 14 32 26 61 26 65 0 5 -13 11 -28 15 -27 6 -59 41
-48 53 4 3 30 -2 58 -11 51 -16 53 -16 84 5 l32 22 -29 18 c-29 18 -32 18 -92
-1 -34 -10 -63 -18 -65 -16 -6 5 30 55 38 55 5 0 20 4 34 10 l26 9 -20 33
c-26 45 -50 142 -50 205 l0 53 -37 -1 c-21 0 -50 -4 -64 -9z m59 -123 c5 -24
-28 -35 -43 -14 -11 16 -13 16 -27 -1 -23 -26 -30 -56 -19 -86 13 -31 -3 -36
-20 -5 -16 31 -2 85 28 109 32 25 76 23 81 -3z m-28 -297 c0 -5 -5 -10 -11
-10 -5 0 -7 5 -4 10 3 6 8 10 11 10 2 0 4 -4 4 -10z"/>
<path d="M2603 1850 c-43 -26 -63 -59 -71 -117 -6 -43 -10 -49 -37 -55 -29 -6
-29 -6 5 -5 34 2 35 3 43 57 10 69 28 97 80 121 23 10 35 19 27 19 -8 0 -29
-9 -47 -20z"/>
<path d="M10185 1852 c10 -32 -14 -161 -40 -216 -14 -29 -25 -56 -25 -59 0 -3
13 -8 30 -12 17 -4 39 -20 51 -37 l22 -30 -24 7 c-13 3 -45 14 -70 22 -45 15
-48 15 -72 -4 l-26 -20 30 -22 c29 -22 32 -22 70 -7 22 9 48 16 59 16 19 0 20
-1 4 -24 -8 -14 -29 -28 -45 -31 -18 -4 -28 -12 -25 -18 43 -99 56 -141 59
-207 l4 -74 44 2 c92 7 161 62 175 143 10 57 13 64 26 51 15 -15 73 -15 101
-1 12 7 44 30 71 53 l49 40 -36 16 c-30 14 -34 19 -24 30 10 12 9 12 -5 1 -9
-7 -42 -14 -73 -14 -30 -1 -55 -3 -55 -5 0 -1 7 -14 16 -27 13 -20 14 -28 4
-40 -27 -32 -84 -2 -108 57 -10 26 -9 27 21 31 28 3 26 4 -10 5 -48 2 -62 16
-40 40 8 9 24 36 36 60 24 48 61 68 92 52 24 -14 24 -31 -1 -58 l-21 -22 50 0
c27 0 61 -4 76 -10 14 -5 24 -6 21 -1 -3 5 10 15 29 23 l36 14 -48 41 c-82 68
-130 86 -174 63 -22 -12 -23 -9 -34 52 -12 75 -95 137 -183 138 -38 0 -43 -2
-37 -18z m110 -98 c38 -15 60 -109 31 -133 -12 -10 -13 -6 -9 27 6 43 -10 82
-32 82 -8 0 -15 -4 -15 -10 0 -13 -37 -13 -45 0 -16 26 31 49 70 34z m88 -126
c-8 -43 -26 -79 -52 -102 l-20 -18 29 -37 c27 -34 55 -109 45 -120 -6 -5 -66
49 -98 87 -24 28 -28 28 -52 -7 -10 -17 -29 -34 -41 -40 -22 -10 -22 -10 -6
32 9 23 21 50 27 59 9 14 6 29 -16 75 -15 32 -26 60 -23 62 7 8 58 -34 68 -56
10 -20 11 -20 44 11 19 17 46 43 61 58 35 35 42 34 34 -4z m-59 -244 c35 -34
7 -128 -41 -140 -29 -8 -58 6 -58 27 0 8 10 15 23 17 12 2 22 -1 22 -7 0 -18
29 -12 40 8 5 11 10 32 10 46 0 14 -5 35 -10 46 -13 23 -7 25 14 3z"/>
<path d="M9434 1828 c30 -26 39 -42 43 -78 8 -62 19 -80 49 -80 39 0 82 -24
163 -90 84 -69 104 -79 40 -20 -73 66 -143 110 -185 117 -46 7 -54 16 -54 65
0 29 -8 47 -36 78 -20 22 -41 40 -47 40 -6 0 6 -15 27 -32z"/>
<path d="M11505 1810 c-3 -5 -1 -10 4 -10 6 0 11 5 11 10 0 6 -2 10 -4 10 -3
0 -8 -4 -11 -10z"/>
<path d="M2405 1679 c-22 -12 -76 -52 -120 -89 -44 -37 -89 -72 -99 -77 -18
-10 -18 -11 5 -23 13 -7 58 -42 99 -77 41 -36 91 -73 110 -83 41 -20 114 -38
90 -21 -8 6 -23 11 -33 11 -30 0 -79 30 -147 90 -36 31 -78 65 -93 75 l-28 18
23 15 c13 9 52 41 88 72 72 63 117 90 170 101 35 7 35 7 5 8 -17 0 -48 -9 -70
-20z"/>
<path d="M9563 1689 c46 -11 73 -28 162 -102 39 -32 79 -63 90 -69 26 -14 26
-14 -75 72 -96 81 -147 110 -187 109 -24 -1 -23 -2 10 -10z"/>
<path d="M2389 1634 c-30 -20 -59 -43 -66 -51 -6 -8 -26 -26 -44 -39 -18 -13
-29 -24 -23 -24 5 0 38 25 74 56 36 31 81 64 100 74 19 11 30 19 24 20 -7 0
-36 -16 -65 -36z"/>
<path d="M1081 1638 c-23 -13 -51 -37 -61 -54 l-20 -30 45 10 c31 7 45 16 45
27 0 23 22 39 65 46 25 4 32 9 23 14 -22 14 -53 10 -97 -13z"/>
<path d="M10841 1646 c-10 -12 -8 -13 8 -9 31 8 80 -16 87 -41 4 -16 18 -25
47 -33 23 -6 43 -10 44 -9 2 1 -13 21 -33 44 -46 54 -127 79 -153 48z"/>
<path d="M1188 1578 c-24 -13 -38 -27 -38 -39 0 -11 -10 -23 -22 -28 l-23 -8
24 -8 c17 -5 22 -13 19 -29 -4 -19 4 -27 43 -46 l48 -22 25 20 26 20 -23 14
c-12 9 -32 18 -44 22 -35 11 -36 35 -2 54 63 35 66 39 44 56 -25 19 -30 18
-77 -6z"/>
<path d="M10760 1582 l-23 -19 46 -22 c26 -13 47 -29 47 -37 0 -7 -18 -23 -39
-34 -52 -26 -57 -36 -27 -55 23 -15 27 -15 68 7 28 15 43 30 43 43 0 11 10 25
23 31 l23 12 -26 6 c-20 5 -26 12 -22 25 3 14 -7 24 -40 40 -52 25 -46 25 -73
3z"/>
<path d="M1297 1521 l-29 -18 35 -22 c32 -19 37 -20 69 -7 27 12 38 12 49 3 7
-7 5 -2 -5 11 -11 12 -15 22 -10 22 9 1 -66 30 -76 30 -3 0 -18 -9 -33 -19z"/>
<path d="M10653 1528 c-43 -14 -42 -35 2 -54 34 -14 38 -13 67 7 l30 22 -23
18 c-27 21 -31 21 -76 7z"/>
<path d="M2240 1504 c0 -12 81 -83 153 -134 28 -20 65 -36 90 -39 41 -6 42 -6
49 -55 10 -74 59 -129 123 -141 l30 -5 -30 11 c-74 29 -115 81 -115 147 0 36
-16 52 -55 52 -17 0 -48 12 -70 27 -43 28 -155 121 -167 138 -5 7 -8 6 -8 -1z"/>
<path d="M9804 1482 c-21 -16 -46 -37 -54 -48 -8 -10 1 -5 20 11 20 17 47 38
60 47 14 9 22 17 19 17 -3 1 -24 -12 -45 -27z"/>
<path d="M9709 1443 c-76 -65 -138 -103 -170 -103 -37 0 -59 -24 -59 -67 0
-61 -44 -111 -118 -133 -17 -5 -20 -9 -9 -9 31 -2 97 39 117 72 11 18 20 45
20 60 0 42 17 67 46 67 44 0 131 57 224 146 33 32 0 11 -51 -33z"/>
<path d="M1000 1452 c0 -3 9 -19 20 -38 32 -51 122 -88 158 -65 9 5 1 10 -26
15 -42 6 -67 27 -59 49 3 9 -11 18 -44 29 -27 8 -49 13 -49 10z"/>
<path d="M10980 1442 c-25 -9 -45 -23 -46 -29 -1 -7 -2 -17 -2 -22 -3 -14 -60
-34 -84 -28 -19 5 -20 4 -6 -10 36 -35 139 11 174 78 8 16 13 29 12 28 -2 0
-23 -8 -48 -17z"/>
<path d="M9699 1394 c-28 -30 -85 -61 -143 -78 -38 -11 -41 -15 -52 -62 -20
-89 -42 -110 -144 -141 l-45 -13 40 6 c91 13 148 66 161 149 5 39 8 42 50 53
51 14 108 48 143 86 14 14 22 26 19 26 -2 0 -15 -12 -29 -26z"/>
<path d="M1298 1386 c-15 -11 -15 -16 -3 -52 19 -53 18 -68 -4 -95 -18 -22
-21 -23 -36 -8 -19 19 -23 50 -12 94 8 30 7 29 -38 -16 l-46 -45 12 -45 c13
-50 4 -96 -24 -113 -22 -14 -40 5 -40 43 0 17 -3 28 -6 26 -3 -2 -24 -40 -46
-85 l-40 -82 35 -29 c19 -16 37 -29 41 -29 4 0 10 20 14 45 12 80 86 145 165
145 145 0 179 -181 51 -267 -19 -13 -45 -23 -57 -23 -33 0 -30 -20 11 -67 56
-66 138 -90 209 -63 23 9 27 6 44 -33 10 -23 27 -49 37 -57 11 -8 16 -9 11 -3
-4 7 -11 56 -15 108 -7 78 -12 100 -30 119 -28 30 -65 40 -92 26 -16 -9 -18
-14 -8 -26 15 -19 -2 -40 -25 -31 -39 15 8 87 56 87 32 0 78 -29 98 -63 l20
-32 2 30 c5 86 -8 115 -68 147 -24 13 -44 26 -44 30 0 16 37 7 73 -17 26 -18
37 -22 37 -12 0 18 -25 40 -79 67 -29 14 -40 25 -33 32 6 6 23 3 51 -11 22
-12 41 -17 41 -11 0 14 -75 67 -116 82 -34 12 -42 22 -26 32 11 7 104 -37 121
-57 7 -10 18 -17 24 -17 26 0 -61 71 -119 97 -35 15 -64 34 -64 41 0 17 28 9
103 -31 100 -52 137 -117 137 -236 l0 -61 38 38 c21 21 58 48 84 59 25 12 48
29 51 37 8 21 78 21 119 0 29 -15 31 -15 23 2 -4 11 -10 41 -13 68 -4 39 -1
52 13 62 20 15 45 8 45 -12 0 -19 10 -18 26 4 10 13 17 15 31 6 24 -15 28 -54
8 -100 -8 -20 -14 -39 -12 -41 3 -2 16 1 31 7 45 17 93 12 109 -10 14 -20 15
-19 31 20 9 22 16 53 16 68 l-1 27 -13 -31 c-13 -30 -36 -54 -36 -38 0 4 8 31
17 61 13 41 14 56 5 65 -9 9 -12 6 -12 -14 0 -27 -34 -78 -44 -67 -4 3 0 19 9
35 24 47 19 89 -16 129 -18 20 -45 43 -61 51 l-29 15 15 -30 c19 -36 20 -53 4
-69 -26 -26 -68 23 -77 93 -9 60 -33 57 -61 -7 -18 -41 -25 -77 -28 -155 l-4
-103 -62 0 c-34 0 -83 7 -109 16 -55 19 -121 81 -137 130 -10 30 -16 34 -45
34 -35 0 -129 56 -174 104 -27 29 -38 31 -63 12z"/>
<path d="M10047 1394 c-4 -4 -7 -23 -7 -41 0 -58 -42 -115 -71 -97 -12 7 -11
71 1 79 6 3 10 10 10 15 0 19 -73 -35 -98 -72 -26 -41 -26 -63 3 -132 6 -14 5
-18 -6 -14 -8 3 -22 25 -31 49 l-17 44 0 -33 c-1 -18 5 -48 13 -67 22 -52 -1
-54 -23 -3 -21 47 -28 28 -11 -32 17 -58 25 -66 46 -45 14 13 28 16 63 12 25
-3 54 -9 65 -13 17 -6 17 -5 3 22 -22 45 -28 83 -17 104 14 27 44 25 58 -2 8
-17 11 -18 11 -7 1 9 8 23 17 30 14 11 19 10 35 -10 22 -27 23 -52 5 -102
l-13 -37 33 14 c49 21 111 18 118 -4 4 -10 22 -24 40 -30 19 -7 56 -32 83 -56
l48 -43 1 66 c1 90 17 132 70 181 53 49 152 96 167 81 7 -7 -6 -17 -39 -31
-65 -28 -119 -66 -140 -99 l-17 -26 24 21 c37 34 127 76 134 63 8 -13 11 -11
-46 -37 -25 -12 -58 -36 -75 -53 l-29 -31 42 21 c46 23 63 26 63 11 0 -5 -18
-19 -40 -30 -39 -20 -80 -57 -80 -71 0 -4 19 3 43 16 23 14 48 25 55 25 25 0
11 -20 -27 -40 -53 -27 -71 -55 -71 -112 0 -55 8 -60 31 -19 19 33 77 56 114
47 30 -8 58 -47 49 -70 -10 -27 -39 -14 -37 16 2 36 -27 45 -75 21 -45 -22
-58 -55 -64 -172 -5 -82 -5 -83 13 -60 10 13 23 38 29 56 10 29 14 31 36 23
36 -14 99 -12 137 4 36 15 120 103 111 117 -3 5 -15 9 -28 9 -37 0 -101 53
-120 99 -21 54 -20 89 4 128 71 117 261 60 278 -82 2 -25 8 -45 13 -45 5 0 24
14 43 31 l35 31 -42 81 c-35 70 -42 78 -45 55 -9 -74 -72 -49 -72 29 0 24 4
52 9 62 8 14 0 27 -38 65 l-49 48 11 -40 c13 -49 -3 -95 -30 -90 -28 5 -39 52
-24 105 11 42 10 49 -5 60 -10 7 -21 13 -24 13 -3 0 -32 -22 -65 -50 -68 -57
-111 -80 -153 -80 -25 0 -31 -5 -37 -28 -8 -40 -60 -99 -108 -124 -32 -17 -60
-22 -121 -22 l-79 -1 -2 90 c-2 128 -52 245 -88 209z"/>
<path d="M2511 1270 c0 -20 9 -56 22 -80 19 -38 30 -48 77 -66 63 -24 134 -40
110 -24 -8 5 -23 10 -34 10 -10 0 -45 12 -77 26 -51 23 -60 32 -73 68 -9 22
-17 55 -19 71 -4 28 -4 28 -6 -5z"/>
<path d="M2239 1206 c40 -64 42 -136 7 -212 -22 -47 -46 -77 -46 -57 0 4 11
35 25 68 13 33 24 74 24 90 0 28 -1 28 -13 -10 -18 -58 -36 -87 -49 -82 -7 2
-20 0 -30 -5 -17 -9 -16 -10 5 -27 19 -16 20 -21 9 -35 -17 -20 -61 -21 -108
-1 -19 8 -36 15 -38 15 -1 0 4 -23 11 -50 16 -61 5 -100 -27 -100 -13 0 -23 8
-26 20 l-6 21 -14 -21 c-19 -27 -41 -25 -55 4 -8 19 -7 36 5 73 9 26 14 49 12
51 -1 2 -21 -2 -44 -8 -38 -10 -91 -5 -91 9 0 3 -4 12 -9 19 -11 19 -54 -4
-101 -53 l-35 -37 32 16 c40 20 63 20 89 2 19 -15 19 -15 -4 -38 -18 -18 -33
-23 -77 -23 -61 0 -60 0 -69 -38 -7 -28 -6 -28 16 -13 48 34 128 9 128 -39 0
-30 -16 -41 -36 -25 -11 10 -12 16 -2 27 9 11 9 16 -3 24 -23 15 -55 10 -83
-12 -21 -16 -26 -29 -26 -63 0 -56 9 -63 29 -23 17 33 46 46 63 29 15 -15 2
-55 -28 -91 l-25 -30 26 -7 c23 -6 33 0 68 38 56 61 108 92 192 118 39 12 87
29 108 37 40 17 87 65 87 88 0 24 18 26 57 6 74 -37 109 -96 120 -201 6 -58 7
-60 34 -60 15 0 39 -4 54 -10 24 -9 27 -7 39 23 8 17 17 43 21 57 l7 25 -26
-24 c-24 -23 -28 -24 -43 -9 -22 23 -10 60 32 101 19 19 35 42 35 52 0 14 -7
11 -35 -14 -20 -17 -46 -31 -59 -31 -34 0 -71 33 -63 54 10 25 43 15 40 -12
-4 -31 27 -29 66 4 38 31 39 60 9 140 -21 56 -23 57 -28 29 -11 -51 -29 -77
-53 -73 -39 6 -35 65 9 117 l25 30 -39 58 c-22 32 -59 76 -82 98 l-42 40 31
-49z"/>
<path d="M9749 1188 c-27 -29 -59 -72 -71 -95 l-22 -42 22 -24 c41 -44 46
-117 8 -117 -21 0 -46 34 -46 63 0 45 -15 31 -39 -36 -30 -85 -15 -126 52
-142 24 -6 27 -5 27 19 0 19 5 26 19 26 10 0 21 -7 25 -15 7 -20 -28 -55 -56
-55 -29 0 -88 35 -88 52 0 8 -4 7 -10 -3 -8 -13 -1 -26 30 -57 30 -29 40 -48
40 -71 0 -39 -23 -50 -50 -26 -24 22 -25 9 -4 -44 15 -38 17 -39 47 -30 18 5
44 9 59 9 27 0 28 1 28 58 0 100 61 191 145 216 17 5 23 -1 34 -29 16 -46 65
-77 161 -105 101 -30 164 -65 215 -122 42 -46 57 -54 88 -42 11 4 8 12 -14 36
-34 36 -41 98 -11 98 24 0 37 -11 54 -44 l15 -29 6 44 c7 52 -3 72 -42 89 -45
18 -66 10 -66 -25 0 -23 -4 -30 -20 -30 -28 0 -31 33 -4 61 24 26 66 31 101
13 25 -14 31 -8 22 25 -6 25 -9 26 -49 20 -69 -10 -127 30 -93 64 16 16 47 15
82 -3 28 -15 28 -15 14 7 -8 13 -37 38 -64 56 -47 32 -49 33 -52 13 -6 -40
-40 -47 -126 -25 l-26 6 15 -36 c8 -19 15 -48 15 -64 0 -50 -43 -72 -59 -30
l-8 23 -7 -23 c-8 -25 -38 -29 -56 -7 -12 15 -9 79 6 118 6 16 3 16 -31 1 -20
-8 -53 -14 -73 -12 -30 2 -38 7 -40 26 -3 17 2 25 18 29 l22 6 -23 12 c-13 7
-29 11 -36 8 -7 -3 -13 -4 -13 -2 0 2 -11 31 -25 64 -24 55 -25 57 -19 20 3
-22 17 -64 29 -92 14 -30 20 -55 14 -58 -11 -7 -56 85 -65 133 -9 45 2 94 31
136 35 51 20 45 -36 -16z"/>
<path d="M11500 1201 c0 -5 5 -13 10 -16 6 -3 10 -2 10 4 0 5 -4 13 -10 16 -5
3 -10 2 -10 -4z"/>
<path d="M325 1122 l-50 -16 33 -10 c18 -5 43 -22 55 -38 12 -16 34 -42 48
-56 42 -42 62 -88 49 -112 -6 -11 -15 -20 -20 -20 -14 0 -42 32 -52 61 -8 25
-12 27 -29 16 -16 -10 -21 -9 -29 3 -11 18 6 41 26 33 26 -10 16 46 -12 72
-37 34 -89 34 -124 0 l-27 -26 42 -79 c37 -72 46 -83 93 -106 87 -43 147 -130
159 -233 5 -48 6 -49 45 -55 45 -7 108 -37 127 -60 20 -23 33 -20 77 19 l39
34 -53 1 c-48 0 -58 4 -88 34 -27 27 -34 42 -34 73 0 57 42 92 69 59 14 -17
-9 -39 -33 -30 -13 5 -16 0 -16 -26 0 -47 47 -90 99 -90 53 0 92 15 85 34 -5
13 4 58 22 100 5 14 4 17 -5 12 -20 -13 -61 3 -61 22 0 10 11 29 25 42 l25 24
-27 11 c-26 11 -25 12 48 45 l75 33 -18 36 c-10 19 -18 44 -18 55 0 17 4 16
33 -12 18 -18 36 -32 40 -32 3 0 9 15 12 34 5 24 1 45 -14 74 -12 23 -21 49
-21 58 0 12 -13 5 -44 -24 -25 -23 -56 -44 -70 -48 -25 -6 -80 0 -114 14 -13
4 -11 -1 6 -22 44 -57 14 -156 -48 -156 -25 0 -37 27 -21 43 10 9 15 8 25 -5
12 -17 14 -17 30 0 33 37 14 116 -34 142 -15 8 -17 7 -13 -10 7 -25 -21 -37
-44 -19 -15 12 -16 12 -9 -6 24 -65 29 -104 18 -143 -12 -41 -85 -132 -97
-121 -3 4 6 20 21 35 35 37 64 85 64 104 -1 10 -4 9 -12 -5 -15 -29 -60 -75
-72 -75 -5 0 2 12 16 28 27 28 63 92 52 92 -3 0 -15 -11 -26 -26 -31 -38 -33
-21 -4 23 36 52 33 76 -3 33 -16 -19 -32 -32 -36 -28 -4 4 4 21 19 38 26 32
30 50 17 84 -6 15 -10 11 -23 -23 -17 -43 -45 -63 -58 -41 -5 7 -5 20 -2 29 5
14 3 14 -11 3 -9 -8 -21 -11 -27 -7 -20 12 -10 43 25 74 l35 30 -38 11 c-47
13 -57 12 -117 -8z"/>
<path d="M11578 1128 l-28 -10 35 -32 c35 -33 44 -59 25 -71 -5 -3 -18 -1 -28
4 -15 8 -18 6 -18 -12 1 -13 -6 -23 -17 -25 -13 -3 -22 8 -35 37 -21 50 -32
52 -32 7 0 -22 9 -45 26 -65 14 -17 21 -31 16 -31 -6 0 -22 14 -36 31 -22 26
-26 28 -26 11 0 -11 12 -35 26 -52 15 -17 23 -34 20 -38 -4 -3 -18 7 -31 23
-13 17 -24 26 -25 22 0 -15 28 -62 49 -81 22 -20 27 -36 11 -36 -5 0 -23 19
-40 42 -16 22 -30 35 -30 27 0 -17 23 -53 58 -91 14 -15 22 -31 18 -35 -10
-10 -73 64 -87 103 -11 29 -14 30 -40 21 -24 -10 -32 -8 -53 12 -36 34 -42 74
-18 122 16 32 17 39 5 35 -67 -26 -116 -17 -170 29 -46 39 -53 42 -53 20 0 -8
-9 -34 -21 -57 -17 -36 -19 -48 -9 -72 l11 -29 34 33 35 34 0 -30 c0 -17 -7
-39 -15 -50 -8 -10 -15 -22 -15 -25 0 -3 32 -20 70 -39 64 -31 68 -35 50 -45
l-21 -11 21 -19 c39 -35 14 -88 -34 -69 -14 6 -15 3 -1 -30 8 -19 15 -51 15
-70 0 -26 5 -35 23 -40 69 -18 136 4 157 53 16 39 9 56 -21 56 -17 0 -24 6
-24 20 0 28 30 30 56 4 31 -31 21 -84 -26 -126 -30 -28 -42 -33 -87 -33 l-53
-1 40 -34 c22 -19 44 -35 48 -35 5 0 27 13 50 30 23 16 65 35 94 42 l51 12 12
60 c21 109 80 190 167 228 36 16 49 29 72 76 15 31 34 67 42 80 13 22 12 25
-14 48 -40 34 -90 33 -128 -5 -35 -35 -40 -76 -9 -66 14 4 22 1 26 -10 10 -24
-10 -39 -34 -26 -18 10 -21 7 -27 -19 -7 -32 -47 -66 -65 -55 -17 11 -11 50
13 83 70 96 91 119 123 133 l36 16 -48 17 c-53 18 -77 19 -116 4z"/>
<path d="M2740 1117 c14 -8 27 -12 30 -10 7 6 -23 23 -40 23 -8 0 -4 -6 10
-13z"/>
<path d="M9262 1118 c-7 -7 -11 -26 -11 -42 l2 -31 6 35 c4 25 12 36 31 41 21
6 22 7 5 8 -12 1 -26 -4 -33 -11z"/>
<path d="M9284 1085 c-3 -8 -4 -20 -1 -27 3 -7 6 -3 6 9 1 12 7 24 14 26 9 4
9 6 -1 6 -7 1 -15 -6 -18 -14z"/>
<path d="M2741 1054 c-1 -49 23 -131 47 -160 9 -11 31 -29 47 -39 29 -17 29
-17 -3 10 -44 36 -72 94 -81 169 -7 51 -9 54 -10 20z"/>
<path d="M11350 1023 c-27 -30 -31 -42 -27 -70 4 -19 12 -42 18 -50 11 -13 14
-13 25 2 7 10 19 15 27 12 11 -4 20 11 34 53 l19 58 -23 -11 c-31 -14 -53 4
-33 28 27 33 -10 13 -40 -22z"/>
<path d="M2771 1018 c0 -15 4 -39 10 -55 11 -30 67 -93 82 -93 5 0 -2 9 -17
21 -31 25 -57 70 -67 119 -6 30 -7 31 -8 8z"/>
<path d="M9270 1009 c0 -42 -41 -117 -78 -142 -21 -14 -44 -27 -52 -30 -13 -5
-13 -6 0 -6 26 -1 78 37 104 76 23 35 46 123 32 123 -3 0 -6 -9 -6 -21z"/>
<path d="M1963 1004 c-8 -21 13 -42 28 -27 13 13 5 43 -11 43 -6 0 -13 -7 -17
-16z"/>
<path d="M10023 1004 c-7 -20 17 -37 34 -23 15 13 6 39 -13 39 -8 0 -17 -7
-21 -16z"/>
<path d="M9232 968 c-18 -52 -64 -89 -139 -113 -65 -21 -69 -24 -93 -73 -32
-64 -62 -97 -125 -133 -54 -31 -55 -40 -2 -13 63 33 97 67 128 129 29 60 32
63 87 78 32 9 72 26 91 39 35 23 76 88 69 109 -2 6 -9 -5 -16 -23z"/>
<path d="M147 939 c-18 -54 -22 -99 -9 -99 4 0 16 7 26 15 11 8 30 15 43 15
13 0 23 2 23 5 0 11 -55 115 -61 115 -3 0 -13 -23 -22 -51z"/>
<path d="M11827 943 c-32 -62 -33 -73 -9 -73 10 0 27 -7 38 -15 10 -8 22 -15
27 -15 14 0 6 75 -12 115 l-18 40 -26 -52z"/>
<path d="M990 952 c0 -6 -3 -17 -6 -26 -5 -13 2 -16 35 -16 60 0 55 11 -21 48
-5 2 -8 -1 -8 -6z"/>
<path d="M10985 935 l-30 -25 43 0 c42 0 47 5 36 34 -8 21 -13 20 -49 -9z"/>
<path d="M2890 861 c8 -6 34 -16 58 -22 23 -7 49 -21 57 -32 8 -12 15 -17 15
-11 0 22 -27 43 -68 54 -24 6 -51 14 -60 16 -15 5 -15 4 -2 -5z"/>
<path d="M190 827 c-36 -18 -48 -59 -26 -92 38 -57 103 -9 87 65 -8 39 -24 46
-61 27z"/>
<path d="M11776 824 c-10 -27 -7 -89 6 -102 31 -31 88 1 88 51 0 46 -79 89
-94 51z"/>
<path d="M2920 820 c34 -11 60 -11 35 0 -11 5 -29 8 -40 8 -16 0 -15 -2 5 -8z"/>
<path d="M9070 820 c-20 -6 -21 -8 -5 -8 11 0 29 3 40 8 25 11 -1 11 -35 0z"/>
<path d="M287 773 c-2 -27 -8 -58 -12 -70 -6 -20 -4 -23 16 -23 31 -1 108 -35
138 -63 l24 -22 -7 35 c-11 58 -50 123 -95 157 -23 18 -46 33 -51 33 -4 0 -10
-21 -13 -47z"/>
<path d="M890 788 c-32 -53 -22 -109 13 -70 33 36 43 102 16 102 -5 0 -18 -15
-29 -32z"/>
<path d="M11090 795 c0 -33 24 -81 45 -88 30 -12 13 84 -19 105 -19 13 -26 9
-26 -17z"/>
<path d="M11660 773 c-38 -36 -56 -62 -70 -103 -10 -30 -17 -56 -15 -58 2 -2
20 8 42 21 21 14 56 30 78 37 72 21 69 19 54 36 -7 8 -13 38 -13 65 -1 30 -5
49 -13 49 -6 0 -35 -21 -63 -47z"/>
<path d="M8448 768 c-44 -48 -84 -160 -74 -209 5 -27 2 -31 -42 -53 -26 -13
-65 -41 -87 -61 -40 -37 -21 -29 23 9 12 11 44 32 70 46 46 24 47 26 48 75 1
71 28 144 70 188 19 20 39 37 44 37 5 0 18 -12 29 -26 41 -52 68 -65 152 -73
69 -7 85 -13 110 -37 18 -17 28 -22 24 -12 -12 31 -57 50 -139 59 -79 9 -82
11 -123 54 -23 25 -48 45 -54 45 -7 0 -30 -19 -51 -42z"/>
<path d="M2986 780 c17 -70 96 -149 176 -176 l49 -16 37 42 c36 40 39 41 119
49 46 5 91 15 100 22 24 19 42 42 43 54 0 5 -13 -6 -28 -24 -26 -31 -33 -34
-109 -41 -85 -7 -136 -31 -148 -70 -8 -26 -19 -25 -91 9 -62 29 -108 77 -138
141 -10 22 -14 26 -10 10z"/>
<path d="M3474 765 c-29 -38 -72 -55 -142 -55 -50 0 -92 -19 -121 -56 l-21
-26 -52 29 c-34 19 -65 47 -85 77 -36 52 -45 51 -13 -1 20 -34 88 -88 130
-105 21 -8 28 -5 50 21 30 37 66 51 128 51 57 0 107 24 140 68 13 17 22 32 19
32 -3 0 -18 -16 -33 -35z"/>
<path d="M3570 763 c18 -24 35 -43 37 -43 9 0 -18 37 -43 60 -24 22 -23 20 6
-17z"/>
<path d="M9031 784 c0 -11 3 -14 6 -6 3 7 2 16 -1 19 -3 4 -6 -2 -5 -13z"/>
<path d="M8459 738 c-12 -23 -12 -23 10 -4 23 21 26 26 11 26 -5 0 -15 -10
-21 -22z"/>
<path d="M8522 740 c21 -35 75 -60 131 -60 58 0 109 -20 131 -51 9 -13 16 -19
16 -13 0 13 -37 47 -67 63 -12 6 -44 11 -72 11 -62 0 -99 14 -130 48 -22 26
-23 26 -9 2z"/>
<path d="M9008 733 c-30 -51 -85 -94 -149 -118 -35 -13 -55 -24 -43 -24 41 -2
143 59 179 106 30 40 42 63 32 63 -1 0 -10 -12 -19 -27z"/>
<path d="M3611 707 c-1 -5 4 -18 10 -29 6 -11 14 -50 19 -87 l7 -66 1 55 c1
35 -5 69 -17 95 -11 22 -20 36 -20 32z"/>
<path d="M156 665 c22 -69 64 -116 64 -71 0 19 37 49 50 41 7 -4 10 -16 7 -26
-6 -22 3 -25 21 -7 9 9 15 9 24 0 15 -15 -2 -53 -35 -78 l-24 -18 66 -34 c46
-23 85 -35 131 -39 73 -6 183 12 177 30 -6 20 -90 57 -129 57 -34 0 -46 7 -86
48 -42 42 -59 51 -159 82 -106 33 -113 34 -107 15z"/>
<path d="M11760 651 c-114 -39 -158 -65 -180 -105 -11 -22 -20 -26 -55 -26
-43 0 -149 -45 -140 -60 3 -4 28 -14 56 -20 71 -17 195 -6 230 20 15 10 39 22
53 26 38 9 39 18 6 49 -42 40 -40 86 2 64 17 -9 19 -8 14 9 -15 45 35 37 54
-9 19 -45 24 -41 66 59 8 17 11 31 7 31 -5 -1 -55 -18 -113 -38z"/>
<path d="M3660 515 c0 -2 15 -12 32 -21 18 -9 56 -34 84 -56 l51 -38 2189 3
2189 2 -2189 3 -2189 2 -51 38 c-87 66 -116 83 -116 67z"/>
</g>
</svg>
